<?xml version="1.0" encoding="UTF-8" standalone="no"?>
<!DOCTYPE svg PUBLIC "-//W3C//DTD SVG 1.1//EN"
 "http://www.w3.org/Graphics/SVG/1.1/DTD/svg11.dtd">
<!-- Generated by graphviz version 2.38.0 (20140413.2041)
 -->
<!-- Title: %3 Pages: 1 -->
<svg width="1009pt" height="248pt"
 viewBox="0.00 0.00 1008.70 248.00" xmlns="http://www.w3.org/2000/svg" xmlns:xlink="http://www.w3.org/1999/xlink">
<g id="graph0" class="graph" transform="scale(1 1) rotate(0) translate(4 244)">
<title>%3</title>
<polygon fill="white" stroke="none" points="-4,4 -4,-244 1004.7,-244 1004.7,4 -4,4"/>
<!-- /home/frank/.* -->
<g id="node1" class="node"><title>/home/frank/.*</title>
<ellipse fill="none" stroke="black" cx="358.696" cy="-222" rx="63.8893" ry="18"/>
<text text-anchor="middle" x="358.696" y="-218.3" font-family="Times New Roman,serif" font-size="14.00">/home/frank/.*</text>
</g>
<!-- inetd -->
<g id="node2" class="node"><title>inetd</title>
<polygon fill="none" stroke="black" points="385.696,-138 331.696,-138 331.696,-102 385.696,-102 385.696,-138"/>
<text text-anchor="middle" x="358.696" y="-116.3" font-family="Times New Roman,serif" font-size="14.00">inetd</text>
</g>
<!-- /home/frank/.*&#45;&gt;inetd -->
<g id="edge1" class="edge"><title>/home/frank/.*&#45;&gt;inetd</title>
<path fill="none" stroke="black" d="M358.696,-203.581C358.696,-188.382 358.696,-166.067 358.696,-148.464"/>
<polygon fill="black" stroke="black" points="362.196,-148.219 358.696,-138.219 355.196,-148.219 362.196,-148.219"/>
<text text-anchor="middle" x="401.196" y="-174.8" font-family="Times New Roman,serif" font-size="14.00">EVENT_LINK</text>
<text text-anchor="middle" x="401.196" y="-159.8" font-family="Times New Roman,serif" font-size="14.00">6</text>
</g>
<!-- inetd&#45;&gt;/home/frank/.* -->
<g id="edge2" class="edge"><title>inetd&#45;&gt;/home/frank/.*</title>
<path fill="none" stroke="black" d="M385.822,-124.096C405.792,-127.953 431.65,-136.606 444.696,-156 452.137,-167.063 452.137,-174.937 444.696,-186 438.496,-195.216 429.403,-202.007 419.424,-207.01"/>
<polygon fill="black" stroke="black" points="417.815,-203.894 410.067,-211.12 420.631,-210.303 417.815,-203.894"/>
<text text-anchor="middle" x="503.196" y="-174.8" font-family="Times New Roman,serif" font-size="14.00">EVENT_UNLINK</text>
<text text-anchor="middle" x="503.196" y="-159.8" font-family="Times New Roman,serif" font-size="14.00">2</text>
</g>
<!-- /tmp/tmp.* -->
<g id="node3" class="node"><title>/tmp/tmp.*</title>
<ellipse fill="none" stroke="black" cx="50.6955" cy="-18" rx="50.8918" ry="18"/>
<text text-anchor="middle" x="50.6955" y="-14.3" font-family="Times New Roman,serif" font-size="14.00">/tmp/tmp.*</text>
</g>
<!-- inetd&#45;&gt;/tmp/tmp.* -->
<g id="edge3" class="edge"><title>inetd&#45;&gt;/tmp/tmp.*</title>
<path fill="none" stroke="black" d="M331.568,-117.916C260.014,-114.782 70.3614,-104.594 51.6955,-84 42.6049,-73.9705 41.8128,-59.0714 43.5388,-46.0671"/>
<polygon fill="black" stroke="black" points="46.9919,-46.6404 45.3524,-36.1732 40.1067,-45.3783 46.9919,-46.6404"/>
<text text-anchor="middle" x="104.196" y="-72.8" font-family="Times New Roman,serif" font-size="14.00">EVENT_UNLINK</text>
<text text-anchor="middle" x="104.196" y="-57.8" font-family="Times New Roman,serif" font-size="14.00">3</text>
</g>
<!-- 128.55.12.10 -->
<g id="node4" class="node"><title>128.55.12.10</title>
<polygon fill="none" stroke="black" points="292.696,-36 211.085,-18 292.696,-3.55271e-015 374.306,-18 292.696,-36"/>
<text text-anchor="middle" x="292.696" y="-14.3" font-family="Times New Roman,serif" font-size="14.00">128.55.12.10</text>
</g>
<!-- inetd&#45;&gt;128.55.12.10 -->
<g id="edge4" class="edge"><title>inetd&#45;&gt;128.55.12.10</title>
<path fill="none" stroke="black" d="M331.59,-111.64C317.709,-106.356 302.016,-97.6906 293.696,-84 286.735,-72.5472 286.017,-57.7333 287.247,-45.1409"/>
<polygon fill="black" stroke="black" points="290.717,-45.5985 288.645,-35.2083 283.786,-44.6229 290.717,-45.5985"/>
<text text-anchor="middle" x="348.196" y="-72.8" font-family="Times New Roman,serif" font-size="14.00">EVENT_SENDTO</text>
<text text-anchor="middle" x="348.196" y="-57.8" font-family="Times New Roman,serif" font-size="14.00">4</text>
</g>
<!-- /tmp/.31.* -->
<g id="node5" class="node"><title>/tmp/.31.*</title>
<ellipse fill="none" stroke="black" cx="578.696" cy="-18" rx="48.1917" ry="18"/>
<text text-anchor="middle" x="578.696" y="-14.3" font-family="Times New Roman,serif" font-size="14.00">/tmp/.31.*</text>
</g>
<!-- inetd&#45;&gt;/tmp/.31.* -->
<g id="edge5" class="edge"><title>inetd&#45;&gt;/tmp/.31.*</title>
<path fill="none" stroke="black" d="M386.033,-116.711C431.221,-112.463 518.968,-102.102 543.696,-84 556.387,-74.7093 564.953,-59.3892 570.433,-45.9554"/>
<polygon fill="black" stroke="black" points="573.861,-46.7746 574.039,-36.1812 567.294,-44.3516 573.861,-46.7746"/>
<text text-anchor="middle" x="611.696" y="-72.8" font-family="Times New Roman,serif" font-size="14.00">EVENT_OPEN</text>
<text text-anchor="middle" x="611.696" y="-57.8" font-family="Times New Roman,serif" font-size="14.00">3</text>
</g>
<!-- 128.55.12.110 -->
<g id="node6" class="node"><title>128.55.12.110</title>
<polygon fill="none" stroke="black" points="865.696,-36 778.555,-18 865.696,-3.55271e-015 952.836,-18 865.696,-36"/>
<text text-anchor="middle" x="865.696" y="-14.3" font-family="Times New Roman,serif" font-size="14.00">128.55.12.110</text>
</g>
<!-- inetd&#45;&gt;128.55.12.110 -->
<g id="edge6" class="edge"><title>inetd&#45;&gt;128.55.12.110</title>
<path fill="none" stroke="black" d="M385.831,-118.434C464.732,-116.508 692.9,-108.879 762.696,-84 784.99,-76.0529 786.73,-66.7108 806.696,-54 815.737,-48.2436 825.714,-42.2088 834.85,-36.8029"/>
<polygon fill="black" stroke="black" points="836.791,-39.7224 843.641,-31.6401 833.246,-33.6864 836.791,-39.7224"/>
<text text-anchor="middle" x="855.696" y="-72.8" font-family="Times New Roman,serif" font-size="14.00">EVENT_WRITE</text>
<text text-anchor="middle" x="855.696" y="-57.8" font-family="Times New Roman,serif" font-size="14.00">1</text>
</g>
<!-- /tmp/tmp.*&#45;&gt;inetd -->
<g id="edge7" class="edge"><title>/tmp/tmp.*&#45;&gt;inetd</title>
<path fill="none" stroke="black" d="M91.6974,-28.6525C112.006,-34.3854 136.448,-42.7584 156.696,-54 174.905,-64.1097 173.953,-74.917 192.696,-84 234.01,-104.022 286.556,-112.638 321.339,-116.314"/>
<polygon fill="black" stroke="black" points="321.24,-119.821 331.532,-117.304 321.917,-112.854 321.24,-119.821"/>
<text text-anchor="middle" x="238.196" y="-72.8" font-family="Times New Roman,serif" font-size="14.00">EVENT_READ</text>
<text text-anchor="middle" x="238.196" y="-57.8" font-family="Times New Roman,serif" font-size="14.00">1</text>
</g>
<!-- 128.55.12.10&#45;&gt;inetd -->
<g id="edge8" class="edge"><title>128.55.12.10&#45;&gt;inetd</title>
<path fill="none" stroke="black" d="M349.684,-23.5035C369.735,-28.1591 390.334,-37.0949 402.696,-54 410.566,-64.7629 408.488,-71.9907 402.696,-84 400.422,-88.7145 397.17,-92.9897 393.449,-96.8027"/>
<polygon fill="black" stroke="black" points="390.998,-94.2988 385.851,-103.56 395.65,-99.5296 390.998,-94.2988"/>
<text text-anchor="middle" x="474.196" y="-72.8" font-family="Times New Roman,serif" font-size="14.00">EVENT_RECVFROM</text>
<text text-anchor="middle" x="474.196" y="-57.8" font-family="Times New Roman,serif" font-size="14.00">2</text>
</g>
<!-- /tmp/.31.*&#45;&gt;inetd -->
<g id="edge9" class="edge"><title>/tmp/.31.*&#45;&gt;inetd</title>
<path fill="none" stroke="black" d="M620.849,-26.8661C636.04,-31.9553 651.653,-40.3091 660.696,-54 668.044,-65.1258 669.564,-74.044 660.696,-84 643.364,-103.456 473.091,-113.721 396.127,-117.399"/>
<polygon fill="black" stroke="black" points="395.738,-113.913 385.912,-117.874 396.064,-120.905 395.738,-113.913"/>
<text text-anchor="middle" x="713.196" y="-72.8" font-family="Times New Roman,serif" font-size="14.00">EVENT_READ</text>
<text text-anchor="middle" x="713.196" y="-57.8" font-family="Times New Roman,serif" font-size="14.00">1</text>
</g>
<!-- 128.55.12.110&#45;&gt;inetd -->
<g id="edge10" class="edge"><title>128.55.12.110&#45;&gt;inetd</title>
<path fill="none" stroke="black" d="M886.126,-31.8968C893.404,-37.6792 900.766,-45.1935 904.696,-54 910.129,-66.1762 913.817,-74.275 904.696,-84 870.038,-120.951 513.955,-120.622 396.241,-119.486"/>
<polygon fill="black" stroke="black" points="395.967,-115.983 385.931,-119.379 395.893,-122.983 395.967,-115.983"/>
<text text-anchor="middle" x="955.196" y="-72.8" font-family="Times New Roman,serif" font-size="14.00">EVENT_READ</text>
<text text-anchor="middle" x="955.196" y="-57.8" font-family="Times New Roman,serif" font-size="14.00">1</text>
</g>
</g>
</svg>
