<?xml version="1.0" encoding="UTF-8" standalone="no"?>
<!DOCTYPE svg PUBLIC "-//W3C//DTD SVG 1.1//EN"
 "http://www.w3.org/Graphics/SVG/1.1/DTD/svg11.dtd">
<!-- Generated by graphviz version 2.38.0 (20140413.2041)
 -->
<!-- Title: %3 Pages: 1 -->
<svg width="2006pt" height="452pt"
 viewBox="0.00 0.00 2006.00 452.00" xmlns="http://www.w3.org/2000/svg" xmlns:xlink="http://www.w3.org/1999/xlink">
<g id="graph0" class="graph" transform="scale(1 1) rotate(0) translate(4 448)">
<title>%3</title>
<polygon fill="white" stroke="none" points="-4,4 -4,-448 2002,-448 2002,4 -4,4"/>
<!-- 127.0.0.1 -->
<g id="node1" class="node"><title>127.0.0.1</title>
<polygon fill="none" stroke="black" points="310,-444 181,-403 310,-362 439,-403 310,-444"/>
<text text-anchor="middle" x="310" y="-395.5" font-family="Times New Roman,serif" font-size="30.00">127.0.0.1</text>
</g>
<!-- nginx -->
<g id="node2" class="node"><title>nginx</title>
<polygon fill="none" stroke="black" points="352,-296 268,-296 268,-255 352,-255 352,-296"/>
<text text-anchor="middle" x="310" y="-268" font-family="Times New Roman,serif" font-size="30.00">nginx</text>
</g>
<!-- 127.0.0.1&#45;&gt;nginx -->
<g id="edge1" class="edge"><title>127.0.0.1&#45;&gt;nginx</title>
<path fill="none" stroke="black" d="M264.408,-376.368C240.892,-359.663 219.825,-336.801 234,-314 239.888,-304.529 248.952,-297.379 258.795,-292.006"/>
<polygon fill="black" stroke="black" points="260.51,-295.064 267.984,-287.555 257.459,-288.764 260.51,-295.064"/>
<text text-anchor="middle" x="299.5" y="-332.8" font-family="Times New Roman,serif" font-size="14.00">EVENT_RECVFROM</text>
<text text-anchor="middle" x="299.5" y="-317.8" font-family="Times New Roman,serif" font-size="14.00">98</text>
</g>
<!-- nginx&#45;&gt;127.0.0.1 -->
<g id="edge2" class="edge"><title>nginx&#45;&gt;127.0.0.1</title>
<path fill="none" stroke="black" d="M349.203,-296.01C355.561,-300.976 361.274,-306.95 365,-314 371.23,-325.788 369.939,-331.615 365,-344 362,-351.523 357.51,-358.629 352.365,-365.119"/>
<polygon fill="black" stroke="black" points="349.45,-363.14 345.56,-372.995 354.746,-367.716 349.45,-363.14"/>
<text text-anchor="middle" x="419" y="-332.8" font-family="Times New Roman,serif" font-size="14.00">EVENT_WRITE</text>
<text text-anchor="middle" x="419" y="-317.8" font-family="Times New Roman,serif" font-size="14.00">98</text>
</g>
<!-- 128.55.12.122 -->
<g id="node3" class="node"><title>128.55.12.122</title>
<polygon fill="none" stroke="black" points="189,-189 2.84217e-014,-148 189,-107 378,-148 189,-189"/>
<text text-anchor="middle" x="189" y="-140.5" font-family="Times New Roman,serif" font-size="30.00">128.55.12.122</text>
</g>
<!-- nginx&#45;&gt;128.55.12.122 -->
<g id="edge3" class="edge"><title>nginx&#45;&gt;128.55.12.122</title>
<path fill="none" stroke="black" d="M267.888,-273.276C240.961,-270.044 207.849,-260.991 190,-237 181.634,-225.755 179.135,-211.269 179.373,-197.309"/>
<polygon fill="black" stroke="black" points="182.869,-197.486 179.985,-187.291 175.882,-197.059 182.869,-197.486"/>
<text text-anchor="middle" x="239" y="-225.8" font-family="Times New Roman,serif" font-size="14.00">EVENT_WRITE</text>
<text text-anchor="middle" x="239" y="-210.8" font-family="Times New Roman,serif" font-size="14.00">97</text>
</g>
<!-- 76.56.184.25 -->
<g id="node4" class="node"><title>76.56.184.25</title>
<polygon fill="none" stroke="red" points="570,-189 396,-148 570,-107 744,-148 570,-189"/>
<text text-anchor="middle" x="570" y="-140.5" font-family="Times New Roman,serif" font-size="30.00">76.56.184.25</text>
</g>
<!-- nginx&#45;&gt;76.56.184.25 -->
<g id="edge8" class="edge"><title>nginx&#45;&gt;76.56.184.25</title>
<path fill="none" stroke="black" d="M352.198,-268.205C378.4,-262.879 411.931,-253.398 438,-237 453.184,-227.449 450.954,-218.158 465,-207 477.039,-197.436 490.866,-188.565 504.45,-180.782"/>
<polygon fill="black" stroke="black" points="506.296,-183.76 513.32,-175.828 502.883,-177.649 506.296,-183.76"/>
<text text-anchor="middle" x="525" y="-225.8" font-family="Times New Roman,serif" font-size="14.00">EVENT_CONNECT</text>
<text text-anchor="middle" x="525" y="-210.8" font-family="Times New Roman,serif" font-size="14.00">2</text>
</g>
<!-- /tmp/font -->
<g id="node5" class="node"><title>/tmp/font</title>
<ellipse fill="none" stroke="red" cx="851" cy="-148" rx="89.191" ry="28.9828"/>
<text text-anchor="middle" x="851" y="-140.5" font-family="Times New Roman,serif" font-size="30.00">/tmp/font</text>
</g>
<!-- nginx&#45;&gt;/tmp/font -->
<g id="edge4" class="edge"><title>nginx&#45;&gt;/tmp/font</title>
<path fill="none" stroke="black" d="M352.245,-273.547C444.411,-271.014 660.744,-262.464 729,-237 761.175,-224.997 792.485,-202.106 815.33,-182.68"/>
<polygon fill="black" stroke="black" points="817.791,-185.178 823.044,-175.977 813.2,-179.894 817.791,-185.178"/>
<text text-anchor="middle" x="835.5" y="-225.8" font-family="Times New Roman,serif" font-size="14.00">EVENT_UNLINK</text>
<text text-anchor="middle" x="835.5" y="-210.8" font-family="Times New Roman,serif" font-size="14.00">3</text>
</g>
<!-- 155.162.39.48 -->
<g id="node7" class="node"><title>155.162.39.48</title>
<polygon fill="none" stroke="red" points="1147,-189 958,-148 1147,-107 1336,-148 1147,-189"/>
<text text-anchor="middle" x="1147" y="-140.5" font-family="Times New Roman,serif" font-size="30.00">155.162.39.48</text>
</g>
<!-- nginx&#45;&gt;155.162.39.48 -->
<g id="edge5" class="edge"><title>nginx&#45;&gt;155.162.39.48</title>
<path fill="none" stroke="black" d="M352.403,-273.241C468.306,-269.564 788.639,-257.772 892,-237 926.485,-230.07 1008.3,-200.974 1070.02,-178.111"/>
<polygon fill="black" stroke="black" points="1071.59,-181.262 1079.75,-174.499 1069.15,-174.7 1071.59,-181.262"/>
<text text-anchor="middle" x="1041.5" y="-225.8" font-family="Times New Roman,serif" font-size="14.00">EVENT_SENDTO</text>
<text text-anchor="middle" x="1041.5" y="-210.8" font-family="Times New Roman,serif" font-size="14.00">2</text>
</g>
<!-- /tmp/minions -->
<g id="node8" class="node"><title>/tmp/minions</title>
<ellipse fill="none" stroke="red" cx="1478" cy="-148" rx="124.402" ry="28.9828"/>
<text text-anchor="middle" x="1478" y="-140.5" font-family="Times New Roman,serif" font-size="30.00">/tmp/minions</text>
</g>
<!-- nginx&#45;&gt;/tmp/minions -->
<g id="edge6" class="edge"><title>nginx&#45;&gt;/tmp/minions</title>
<path fill="none" stroke="black" d="M352.267,-274.775C512.827,-275.518 1084.78,-275.353 1262,-237 1317.68,-224.951 1377.39,-199.571 1419.89,-179.149"/>
<polygon fill="black" stroke="black" points="1421.49,-182.261 1428.96,-174.741 1418.43,-175.965 1421.49,-182.261"/>
<text text-anchor="middle" x="1399" y="-225.8" font-family="Times New Roman,serif" font-size="14.00">EVENT_OPEN</text>
<text text-anchor="middle" x="1399" y="-210.8" font-family="Times New Roman,serif" font-size="14.00">2</text>
</g>
<!-- 25.159.96.207 -->
<g id="node9" class="node"><title>25.159.96.207</title>
<polygon fill="none" stroke="black" points="1809,-189 1620,-148 1809,-107 1998,-148 1809,-189"/>
<text text-anchor="middle" x="1809" y="-140.5" font-family="Times New Roman,serif" font-size="30.00">25.159.96.207</text>
</g>
<!-- nginx&#45;&gt;25.159.96.207 -->
<g id="edge7" class="edge"><title>nginx&#45;&gt;25.159.96.207</title>
<path fill="none" stroke="black" d="M352.168,-274.274C531.324,-273.132 1230.12,-266.821 1448,-237 1543.23,-223.967 1649.89,-196.296 1722.42,-175.441"/>
<polygon fill="black" stroke="black" points="1723.79,-178.688 1732.42,-172.546 1721.84,-171.964 1723.79,-178.688"/>
<text text-anchor="middle" x="1647" y="-225.8" font-family="Times New Roman,serif" font-size="14.00">EVENT_WRITE</text>
<text text-anchor="middle" x="1647" y="-210.8" font-family="Times New Roman,serif" font-size="14.00">1</text>
</g>
<!-- 128.55.12.122&#45;&gt;nginx -->
<g id="edge9" class="edge"><title>128.55.12.122&#45;&gt;nginx</title>
<path fill="none" stroke="black" d="M250.609,-175.792C264.421,-184.141 277.942,-194.511 288,-207 296.784,-217.908 302.104,-232.43 305.305,-245.21"/>
<polygon fill="black" stroke="black" points="301.887,-245.962 307.444,-254.983 308.725,-244.466 301.887,-245.962"/>
<text text-anchor="middle" x="368.5" y="-225.8" font-family="Times New Roman,serif" font-size="14.00">EVENT_RECVFROM</text>
<text text-anchor="middle" x="368.5" y="-210.8" font-family="Times New Roman,serif" font-size="14.00">97</text>
</g>
<!-- 76.56.184.25&#45;&gt;nginx -->
<g id="edge10" class="edge"><title>76.56.184.25&#45;&gt;nginx</title>
<path fill="none" stroke="black" d="M588.403,-184.819C594.655,-202.44 597.332,-222.872 585,-237 556.686,-269.437 433.888,-274.861 362.321,-275.179"/>
<polygon fill="black" stroke="black" points="362.146,-271.679 352.151,-275.192 362.155,-278.679 362.146,-271.679"/>
<text text-anchor="middle" x="659.5" y="-225.8" font-family="Times New Roman,serif" font-size="14.00">EVENT_RECVFROM</text>
<text text-anchor="middle" x="659.5" y="-210.8" font-family="Times New Roman,serif" font-size="14.00">1</text>
</g>
<!-- sshd -->
<g id="node6" class="node"><title>sshd</title>
<polygon fill="none" stroke="black" points="1131.5,-41 1060.5,-41 1060.5,-0 1131.5,-0 1131.5,-41"/>
<text text-anchor="middle" x="1096" y="-13" font-family="Times New Roman,serif" font-size="30.00">sshd</text>
</g>
<!-- /tmp/font&#45;&gt;sshd -->
<g id="edge11" class="edge"><title>/tmp/font&#45;&gt;sshd</title>
<path fill="none" stroke="black" d="M897.659,-123.099C941.859,-100.458 1007.78,-66.6926 1051.31,-44.3903"/>
<polygon fill="black" stroke="black" points="1052.94,-47.4876 1060.25,-39.8133 1049.75,-41.2574 1052.94,-47.4876"/>
<text text-anchor="middle" x="1075" y="-77.8" font-family="Times New Roman,serif" font-size="14.00">EVENT_EXECUTE</text>
<text text-anchor="middle" x="1075" y="-62.8" font-family="Times New Roman,serif" font-size="14.00">1</text>
</g>
<!-- 155.162.39.48&#45;&gt;nginx -->
<g id="edge12" class="edge"><title>155.162.39.48&#45;&gt;nginx</title>
<path fill="none" stroke="black" d="M1136.53,-186.809C1129.37,-205.192 1117.86,-225.707 1100,-237 1038,-276.201 529.091,-276.087 362.539,-274.978"/>
<polygon fill="black" stroke="black" points="362.097,-271.475 352.072,-274.904 362.047,-278.475 362.097,-271.475"/>
<text text-anchor="middle" x="1192.5" y="-225.8" font-family="Times New Roman,serif" font-size="14.00">EVENT_RECVFROM</text>
<text text-anchor="middle" x="1192.5" y="-210.8" font-family="Times New Roman,serif" font-size="14.00">1</text>
</g>
<!-- /tmp/minions&#45;&gt;sshd -->
<g id="edge14" class="edge"><title>/tmp/minions&#45;&gt;sshd</title>
<path fill="none" stroke="black" d="M1407.94,-123.981C1330.29,-98.4716 1207.34,-58.0798 1141.38,-36.4088"/>
<polygon fill="black" stroke="black" points="1142.28,-33.0201 1131.69,-33.2239 1140.09,-39.6704 1142.28,-33.0201"/>
<text text-anchor="middle" x="1357" y="-77.8" font-family="Times New Roman,serif" font-size="14.00">EVENT_EXECUTE</text>
<text text-anchor="middle" x="1357" y="-62.8" font-family="Times New Roman,serif" font-size="14.00">1</text>
</g>
<!-- master -->
<g id="node10" class="node"><title>master</title>
<polygon fill="none" stroke="black" points="1526,-41 1430,-41 1430,-0 1526,-0 1526,-41"/>
<text text-anchor="middle" x="1478" y="-13" font-family="Times New Roman,serif" font-size="30.00">master</text>
</g>
<!-- /tmp/minions&#45;&gt;master -->
<g id="edge13" class="edge"><title>/tmp/minions&#45;&gt;master</title>
<path fill="none" stroke="black" d="M1478,-118.835C1478,-98.7729 1478,-71.851 1478,-51.4063"/>
<polygon fill="black" stroke="black" points="1481.5,-51.3761 1478,-41.3761 1474.5,-51.3761 1481.5,-51.3761"/>
<text text-anchor="middle" x="1536" y="-77.8" font-family="Times New Roman,serif" font-size="14.00">EVENT_EXECUTE</text>
<text text-anchor="middle" x="1536" y="-62.8" font-family="Times New Roman,serif" font-size="14.00">1</text>
</g>
<!-- 25.159.96.207&#45;&gt;nginx -->
<g id="edge15" class="edge"><title>25.159.96.207&#45;&gt;nginx</title>
<path fill="none" stroke="black" d="M1778.71,-182.677C1758.59,-202.499 1730.35,-225.815 1700,-237 1636.18,-260.518 607.293,-271.692 362.137,-274.028"/>
<polygon fill="black" stroke="black" points="362.03,-270.529 352.063,-274.124 362.096,-277.529 362.03,-270.529"/>
<text text-anchor="middle" x="1814.5" y="-225.8" font-family="Times New Roman,serif" font-size="14.00">EVENT_RECVFROM</text>
<text text-anchor="middle" x="1814.5" y="-210.8" font-family="Times New Roman,serif" font-size="14.00">1</text>
</g>
</g>
</svg>
