<?xml version="1.0" encoding="UTF-8" standalone="no"?>
<!DOCTYPE svg PUBLIC "-//W3C//DTD SVG 1.1//EN"
 "http://www.w3.org/Graphics/SVG/1.1/DTD/svg11.dtd">
<!-- Generated by graphviz version 2.38.0 (20140413.2041)
 -->
<!-- Title: %3 Pages: 1 -->
<svg width="423pt" height="146pt"
 viewBox="0.00 0.00 423.00 146.00" xmlns="http://www.w3.org/2000/svg" xmlns:xlink="http://www.w3.org/1999/xlink">
<g id="graph0" class="graph" transform="scale(1 1) rotate(0) translate(4 142)">
<title>%3</title>
<polygon fill="white" stroke="none" points="-4,4 -4,-142 419,-142 419,4 -4,4"/>
<!-- /usr/bin/uname -->
<g id="node1" class="node"><title>/usr/bin/uname</title>
<ellipse fill="none" stroke="black" cx="166" cy="-120" rx="63.8893" ry="18"/>
<text text-anchor="middle" x="166" y="-116.3" font-family="Times New Roman,serif" font-size="14.00">/usr/bin/uname</text>
</g>
<!-- bash -->
<g id="node2" class="node"><title>bash</title>
<polygon fill="none" stroke="black" points="54,-36 0,-36 0,-0 54,-0 54,-36"/>
<text text-anchor="middle" x="27" y="-14.3" font-family="Times New Roman,serif" font-size="14.00">bash</text>
</g>
<!-- /usr/bin/uname&#45;&gt;bash -->
<g id="edge1" class="edge"><title>/usr/bin/uname&#45;&gt;bash</title>
<path fill="none" stroke="black" d="M106.206,-113.509C84.7616,-108.722 61.9637,-99.9543 46,-84 36.1249,-74.1307 31.323,-59.4313 29.0125,-46.5064"/>
<polygon fill="black" stroke="black" points="32.4271,-45.6437 27.6011,-36.2118 25.492,-46.5946 32.4271,-45.6437"/>
<text text-anchor="middle" x="104" y="-72.8" font-family="Times New Roman,serif" font-size="14.00">EVENT_EXECUTE</text>
<text text-anchor="middle" x="104" y="-57.8" font-family="Times New Roman,serif" font-size="14.00">1</text>
</g>
<!-- test -->
<g id="node3" class="node"><title>test</title>
<polygon fill="none" stroke="black" points="193,-36 139,-36 139,-0 193,-0 193,-36"/>
<text text-anchor="middle" x="166" y="-14.3" font-family="Times New Roman,serif" font-size="14.00">test</text>
</g>
<!-- /usr/bin/uname&#45;&gt;test -->
<g id="edge2" class="edge"><title>/usr/bin/uname&#45;&gt;test</title>
<path fill="none" stroke="black" d="M166,-101.581C166,-86.3816 166,-64.0669 166,-46.4644"/>
<polygon fill="black" stroke="black" points="169.5,-46.219 166,-36.2191 162.5,-46.2191 169.5,-46.219"/>
<text text-anchor="middle" x="224" y="-72.8" font-family="Times New Roman,serif" font-size="14.00">EVENT_EXECUTE</text>
<text text-anchor="middle" x="224" y="-57.8" font-family="Times New Roman,serif" font-size="14.00">2</text>
</g>
<!-- sh -->
<g id="node4" class="node"><title>sh</title>
<polygon fill="none" stroke="black" points="332,-36 278,-36 278,-0 332,-0 332,-36"/>
<text text-anchor="middle" x="305" y="-14.3" font-family="Times New Roman,serif" font-size="14.00">sh</text>
</g>
<!-- /usr/bin/uname&#45;&gt;sh -->
<g id="edge3" class="edge"><title>/usr/bin/uname&#45;&gt;sh</title>
<path fill="none" stroke="black" d="M224.581,-112.687C245.276,-107.791 267.285,-99.1638 283,-84 293.282,-74.0781 298.759,-59.1858 301.676,-46.1583"/>
<polygon fill="black" stroke="black" points="305.133,-46.7104 303.509,-36.2408 298.25,-45.4378 305.133,-46.7104"/>
<text text-anchor="middle" x="357" y="-72.8" font-family="Times New Roman,serif" font-size="14.00">EVENT_EXECUTE</text>
<text text-anchor="middle" x="357" y="-57.8" font-family="Times New Roman,serif" font-size="14.00">2</text>
</g>
</g>
</svg>
