<?xml version="1.0" encoding="UTF-8" standalone="no"?>
<!DOCTYPE svg PUBLIC "-//W3C//DTD SVG 1.1//EN"
 "http://www.w3.org/Graphics/SVG/1.1/DTD/svg11.dtd">
<!-- Generated by graphviz version 2.38.0 (20140413.2041)
 -->
<!-- Title: %3 Pages: 1 -->
<svg width="2750pt" height="535pt"
 viewBox="0.00 0.00 2749.71 534.98" xmlns="http://www.w3.org/2000/svg" xmlns:xlink="http://www.w3.org/1999/xlink">
<g id="graph0" class="graph" transform="scale(1 1) rotate(0) translate(4 530.983)">
<title>%3</title>
<polygon fill="white" stroke="none" points="-4,4 -4,-530.983 2745.71,-530.983 2745.71,4 -4,4"/>
<!-- bash -->
<g id="node1" class="node"><title>bash</title>
<polygon fill="none" stroke="black" points="1170.71,-526.983 1098.71,-526.983 1098.71,-485.983 1170.71,-485.983 1170.71,-526.983"/>
<text text-anchor="middle" x="1134.71" y="-498.983" font-family="Times New Roman,serif" font-size="30.00">bash</text>
</g>
<!-- /usr/home/darpa/.* -->
<g id="node2" class="node"><title>/usr/home/darpa/.*</title>
<ellipse fill="none" stroke="black" cx="169.706" cy="-390.991" rx="169.912" ry="28.9828"/>
<text text-anchor="middle" x="169.706" y="-383.491" font-family="Times New Roman,serif" font-size="30.00">/usr/home/darpa/.*</text>
</g>
<!-- bash&#45;&gt;/usr/home/darpa/.* -->
<g id="edge1" class="edge"><title>bash&#45;&gt;/usr/home/darpa/.*</title>
<path fill="none" stroke="black" d="M1098.68,-505.732C942.856,-506.569 331.292,-507.303 255.706,-467.983 240.801,-460.229 244.724,-449.722 232.706,-437.983 228.424,-433.8 223.742,-429.691 218.926,-425.754"/>
<polygon fill="black" stroke="black" points="220.764,-422.746 210.743,-419.309 216.433,-428.246 220.764,-422.746"/>
<text text-anchor="middle" x="304.706" y="-456.783" font-family="Times New Roman,serif" font-size="14.00">EVENT_WRITE</text>
<text text-anchor="middle" x="304.706" y="-441.783" font-family="Times New Roman,serif" font-size="14.00">6</text>
</g>
<!-- /var/run/ld&#45;elf.so.hints -->
<g id="node3" class="node"><title>/var/run/ld&#45;elf.so.hints</title>
<ellipse fill="none" stroke="black" cx="1247.71" cy="-390.991" rx="198.894" ry="28.9828"/>
<text text-anchor="middle" x="1247.71" y="-383.491" font-family="Times New Roman,serif" font-size="30.00">/var/run/ld&#45;elf.so.hints</text>
</g>
<!-- bash&#45;&gt;/var/run/ld&#45;elf.so.hints -->
<g id="edge2" class="edge"><title>bash&#45;&gt;/var/run/ld&#45;elf.so.hints</title>
<path fill="none" stroke="black" d="M1129.6,-485.735C1127.06,-471.273 1126.27,-451.834 1135.71,-437.983 1139.6,-432.263 1144.35,-427.254 1149.66,-422.868"/>
<polygon fill="black" stroke="black" points="1151.83,-425.617 1157.82,-416.876 1147.69,-419.975 1151.83,-425.617"/>
<text text-anchor="middle" x="1180.71" y="-456.783" font-family="Times New Roman,serif" font-size="14.00">EVENT_OPEN</text>
<text text-anchor="middle" x="1180.71" y="-441.783" font-family="Times New Roman,serif" font-size="14.00">5574</text>
</g>
<!-- 128.55.12.10 -->
<g id="node8" class="node"><title>128.55.12.10</title>
<polygon fill="none" stroke="black" points="353.706,-189 179.706,-148 353.706,-107 527.706,-148 353.706,-189"/>
<text text-anchor="middle" x="353.706" y="-140.5" font-family="Times New Roman,serif" font-size="30.00">128.55.12.10</text>
</g>
<!-- bash&#45;&gt;128.55.12.10 -->
<g id="edge3" class="edge"><title>bash&#45;&gt;128.55.12.10</title>
<path fill="none" stroke="black" d="M1098.38,-505.131C964.428,-503.614 502.882,-496.357 443.706,-467.983 386.667,-440.633 398.301,-401.265 348.706,-362 335.607,-351.63 324.234,-358.366 315.706,-344 288.125,-297.539 308.528,-234.921 328.517,-193.318"/>
<polygon fill="black" stroke="black" points="331.705,-194.767 333.025,-184.255 325.438,-191.65 331.705,-194.767"/>
<text text-anchor="middle" x="375.706" y="-332.8" font-family="Times New Roman,serif" font-size="14.00">EVENT_CONNECT</text>
<text text-anchor="middle" x="375.706" y="-317.8" font-family="Times New Roman,serif" font-size="14.00">2</text>
</g>
<!-- /usr/home/user/eraseme -->
<g id="node11" class="node"><title>/usr/home/user/eraseme</title>
<ellipse fill="none" stroke="black" cx="1674.71" cy="-390.991" rx="210.936" ry="28.9828"/>
<text text-anchor="middle" x="1674.71" y="-383.491" font-family="Times New Roman,serif" font-size="30.00">/usr/home/user/eraseme</text>
</g>
<!-- bash&#45;&gt;/usr/home/user/eraseme -->
<g id="edge4" class="edge"><title>bash&#45;&gt;/usr/home/user/eraseme</title>
<path fill="none" stroke="black" d="M1170.91,-499.185C1211.4,-492.044 1278.88,-479.847 1336.71,-467.983 1411.8,-452.576 1495.9,-433.674 1561.43,-418.576"/>
<polygon fill="black" stroke="black" points="1562.41,-421.941 1571.37,-416.282 1560.84,-415.12 1562.41,-421.941"/>
<text text-anchor="middle" x="1521.71" y="-456.783" font-family="Times New Roman,serif" font-size="14.00">EVENT_OPEN</text>
<text text-anchor="middle" x="1521.71" y="-441.783" font-family="Times New Roman,serif" font-size="14.00">2</text>
</g>
<!-- /usr/home/user/eraseme/.* -->
<g id="node14" class="node"><title>/usr/home/user/eraseme/.*</title>
<ellipse fill="none" stroke="black" cx="2135.71" cy="-390.991" rx="231.862" ry="28.9828"/>
<text text-anchor="middle" x="2135.71" y="-383.491" font-family="Times New Roman,serif" font-size="30.00">/usr/home/user/eraseme/.*</text>
</g>
<!-- bash&#45;&gt;/usr/home/user/eraseme/.* -->
<g id="edge5" class="edge"><title>bash&#45;&gt;/usr/home/user/eraseme/.*</title>
<path fill="none" stroke="black" d="M1170.94,-502.956C1245.75,-497.61 1422.69,-484.292 1570.71,-467.983 1709.29,-452.712 1866.45,-431.236 1979.76,-415.009"/>
<polygon fill="black" stroke="black" points="1980.5,-418.439 1989.9,-413.554 1979.51,-411.51 1980.5,-418.439"/>
<text text-anchor="middle" x="1872.21" y="-456.783" font-family="Times New Roman,serif" font-size="14.00">EVENT_UNLINK</text>
<text text-anchor="middle" x="1872.21" y="-441.783" font-family="Times New Roman,serif" font-size="14.00">2</text>
</g>
<!-- /var/run/ld&#45;elf.so.hints&#45;&gt;bash -->
<g id="edge6" class="edge"><title>/var/run/ld&#45;elf.so.hints&#45;&gt;bash</title>
<path fill="none" stroke="black" d="M1245.51,-420.169C1242.94,-435.894 1237.44,-454.892 1225.71,-467.983 1213.99,-481.048 1197.03,-489.666 1180.92,-495.301"/>
<polygon fill="black" stroke="black" points="1179.53,-492.073 1171.06,-498.438 1181.65,-498.744 1179.53,-492.073"/>
<text text-anchor="middle" x="1287.21" y="-456.783" font-family="Times New Roman,serif" font-size="14.00">EVENT_READ</text>
<text text-anchor="middle" x="1287.21" y="-441.783" font-family="Times New Roman,serif" font-size="14.00">5573</text>
</g>
<!-- sh -->
<g id="node4" class="node"><title>sh</title>
<polygon fill="none" stroke="black" points="1387.71,-296 1333.71,-296 1333.71,-255 1387.71,-255 1387.71,-296"/>
<text text-anchor="middle" x="1360.71" y="-268" font-family="Times New Roman,serif" font-size="30.00">sh</text>
</g>
<!-- /var/run/ld&#45;elf.so.hints&#45;&gt;sh -->
<g id="edge7" class="edge"><title>/var/run/ld&#45;elf.so.hints&#45;&gt;sh</title>
<path fill="none" stroke="black" d="M1315.27,-363.708C1323.98,-358.187 1332.14,-351.659 1338.71,-344 1347.82,-333.37 1353.18,-318.878 1356.32,-306.048"/>
<polygon fill="black" stroke="black" points="1359.75,-306.726 1358.39,-296.219 1352.91,-305.282 1359.75,-306.726"/>
<text text-anchor="middle" x="1400.21" y="-332.8" font-family="Times New Roman,serif" font-size="14.00">EVENT_READ</text>
<text text-anchor="middle" x="1400.21" y="-317.8" font-family="Times New Roman,serif" font-size="14.00">294</text>
</g>
<!-- master -->
<g id="node5" class="node"><title>master</title>
<polygon fill="none" stroke="black" points="824.706,-296 728.706,-296 728.706,-255 824.706,-255 824.706,-296"/>
<text text-anchor="middle" x="776.706" y="-268" font-family="Times New Roman,serif" font-size="30.00">master</text>
</g>
<!-- /var/run/ld&#45;elf.so.hints&#45;&gt;master -->
<g id="edge9" class="edge"><title>/var/run/ld&#45;elf.so.hints&#45;&gt;master</title>
<path fill="none" stroke="black" d="M1051.94,-385.956C907.495,-380.89 732.13,-369.508 708.706,-344 699.687,-334.179 701.926,-325.481 708.706,-314 711.736,-308.869 715.747,-304.391 720.31,-300.495"/>
<polygon fill="black" stroke="black" points="722.484,-303.24 728.434,-294.474 718.316,-297.616 722.484,-303.24"/>
<text text-anchor="middle" x="754.206" y="-332.8" font-family="Times New Roman,serif" font-size="14.00">EVENT_READ</text>
<text text-anchor="middle" x="754.206" y="-317.8" font-family="Times New Roman,serif" font-size="14.00">11</text>
</g>
<!-- alpine -->
<g id="node7" class="node"><title>alpine</title>
<polygon fill="none" stroke="black" points="1320.21,-41 1231.21,-41 1231.21,-0 1320.21,-0 1320.21,-41"/>
<text text-anchor="middle" x="1275.71" y="-13" font-family="Times New Roman,serif" font-size="30.00">alpine</text>
</g>
<!-- /var/run/ld&#45;elf.so.hints&#45;&gt;alpine -->
<g id="edge10" class="edge"><title>/var/run/ld&#45;elf.so.hints&#45;&gt;alpine</title>
<path fill="none" stroke="black" d="M1237.6,-362.022C1235.75,-356.129 1234,-349.907 1232.71,-344 1219.58,-284.119 1259.05,-251.332 1216.71,-207 1182.49,-171.175 1138.78,-226.752 1106.71,-189 1083.11,-161.227 1087.62,-138.047 1106.71,-107 1131.55,-66.587 1182.07,-44.5694 1221.43,-33.0486"/>
<polygon fill="black" stroke="black" points="1222.48,-36.3905 1231.17,-30.3409 1220.6,-29.646 1222.48,-36.3905"/>
<text text-anchor="middle" x="1280.21" y="-225.8" font-family="Times New Roman,serif" font-size="14.00">EVENT_READ</text>
<text text-anchor="middle" x="1280.21" y="-210.8" font-family="Times New Roman,serif" font-size="14.00">2</text>
</g>
<!-- imapd -->
<g id="node9" class="node"><title>imapd</title>
<polygon fill="none" stroke="black" points="2605.71,-41 2513.71,-41 2513.71,-0 2605.71,-0 2605.71,-41"/>
<text text-anchor="middle" x="2559.71" y="-13" font-family="Times New Roman,serif" font-size="30.00">imapd</text>
</g>
<!-- /var/run/ld&#45;elf.so.hints&#45;&gt;imapd -->
<g id="edge8" class="edge"><title>/var/run/ld&#45;elf.so.hints&#45;&gt;imapd</title>
<path fill="none" stroke="black" d="M1386.2,-370.16C1409.06,-367.204 1432.53,-364.362 1454.71,-362 1692.54,-336.674 2351.36,-402.833 2523.71,-237 2574.17,-188.445 2570.57,-97.8446 2564.64,-51.0951"/>
<polygon fill="black" stroke="black" points="2568.08,-50.4313 2563.24,-41.0092 2561.15,-51.3963 2568.08,-50.4313"/>
<text text-anchor="middle" x="2590.21" y="-225.8" font-family="Times New Roman,serif" font-size="14.00">EVENT_READ</text>
<text text-anchor="middle" x="2590.21" y="-210.8" font-family="Times New Roman,serif" font-size="14.00">17</text>
</g>
<!-- sshd -->
<g id="node12" class="node"><title>sshd</title>
<polygon fill="none" stroke="black" points="1047.21,-41 976.206,-41 976.206,-0 1047.21,-0 1047.21,-41"/>
<text text-anchor="middle" x="1011.71" y="-13" font-family="Times New Roman,serif" font-size="30.00">sshd</text>
</g>
<!-- /var/run/ld&#45;elf.so.hints&#45;&gt;sshd -->
<g id="edge11" class="edge"><title>/var/run/ld&#45;elf.so.hints&#45;&gt;sshd</title>
<path fill="none" stroke="black" d="M1222.93,-362.074C1196.69,-332.03 1154.6,-282.427 1121.71,-237 1112.45,-224.217 1112.2,-219.606 1102.71,-207 1096.27,-198.451 1092.52,-197.989 1086.71,-189 1071.13,-164.898 1040.33,-91.7725 1023.45,-50.5542"/>
<polygon fill="black" stroke="black" points="1026.6,-48.9918 1019.58,-41.0547 1020.12,-51.6359 1026.6,-48.9918"/>
<text text-anchor="middle" x="1167.21" y="-225.8" font-family="Times New Roman,serif" font-size="14.00">EVENT_READ</text>
<text text-anchor="middle" x="1167.21" y="-210.8" font-family="Times New Roman,serif" font-size="14.00">4</text>
</g>
<!-- sudo -->
<g id="node15" class="node"><title>sudo</title>
<polygon fill="none" stroke="red" points="1015.21,-296 942.206,-296 942.206,-255 1015.21,-255 1015.21,-296"/>
<text text-anchor="middle" x="978.706" y="-268" font-family="Times New Roman,serif" font-size="30.00">sudo</text>
</g>
<!-- /var/run/ld&#45;elf.so.hints&#45;&gt;sudo -->
<g id="edge12" class="edge"><title>/var/run/ld&#45;elf.so.hints&#45;&gt;sudo</title>
<path fill="none" stroke="black" d="M1107.06,-370.401C1086.52,-363.943 1066.37,-355.371 1048.71,-344 1034.58,-334.907 1037.47,-325.994 1025.71,-314 1021.87,-310.087 1017.63,-306.203 1013.31,-302.499"/>
<polygon fill="black" stroke="black" points="1015.47,-299.738 1005.53,-296.06 1011,-305.131 1015.47,-299.738"/>
<text text-anchor="middle" x="1094.21" y="-332.8" font-family="Times New Roman,serif" font-size="14.00">EVENT_READ</text>
<text text-anchor="middle" x="1094.21" y="-317.8" font-family="Times New Roman,serif" font-size="14.00">1</text>
</g>
<!-- sh&#45;&gt;/var/run/ld&#45;elf.so.hints -->
<g id="edge13" class="edge"><title>sh&#45;&gt;/var/run/ld&#45;elf.so.hints</title>
<path fill="none" stroke="black" d="M1333.69,-276.724C1306.23,-278.576 1264.94,-286.19 1244.71,-314 1236.92,-324.698 1235.69,-338.665 1237.08,-351.703"/>
<polygon fill="black" stroke="black" points="1233.66,-352.542 1238.67,-361.879 1240.58,-351.457 1233.66,-352.542"/>
<text text-anchor="middle" x="1289.71" y="-332.8" font-family="Times New Roman,serif" font-size="14.00">EVENT_OPEN</text>
<text text-anchor="middle" x="1289.71" y="-317.8" font-family="Times New Roman,serif" font-size="14.00">294</text>
</g>
<!-- /var/run/resolv.conf.vtnet1 -->
<g id="node10" class="node"><title>/var/run/resolv.conf.vtnet1</title>
<ellipse fill="none" stroke="black" cx="1685.71" cy="-148" rx="232.776" ry="28.9828"/>
<text text-anchor="middle" x="1685.71" y="-140.5" font-family="Times New Roman,serif" font-size="30.00">/var/run/resolv.conf.vtnet1</text>
</g>
<!-- sh&#45;&gt;/var/run/resolv.conf.vtnet1 -->
<g id="edge15" class="edge"><title>sh&#45;&gt;/var/run/resolv.conf.vtnet1</title>
<path fill="none" stroke="black" d="M1387.79,-272.367C1442.09,-267.747 1562.23,-255.7 1598.71,-237 1622.41,-224.847 1643.57,-203.819 1659.08,-185.365"/>
<polygon fill="black" stroke="black" points="1662.2,-187.075 1665.8,-177.109 1656.77,-182.656 1662.2,-187.075"/>
<text text-anchor="middle" x="1681.71" y="-225.8" font-family="Times New Roman,serif" font-size="14.00">EVENT_OPEN</text>
<text text-anchor="middle" x="1681.71" y="-210.8" font-family="Times New Roman,serif" font-size="14.00">1</text>
</g>
<!-- /var/db/entropy/saved&#45;entropy.3 -->
<g id="node13" class="node"><title>/var/db/entropy/saved&#45;entropy.3</title>
<ellipse fill="none" stroke="black" cx="2214.71" cy="-148" rx="278.7" ry="28.9828"/>
<text text-anchor="middle" x="2214.71" y="-140.5" font-family="Times New Roman,serif" font-size="30.00">/var/db/entropy/saved&#45;entropy.3</text>
</g>
<!-- sh&#45;&gt;/var/db/entropy/saved&#45;entropy.3 -->
<g id="edge14" class="edge"><title>sh&#45;&gt;/var/db/entropy/saved&#45;entropy.3</title>
<path fill="none" stroke="black" d="M1387.72,-272.496C1448.94,-267.796 1602.85,-255.074 1730.71,-237 1850.17,-220.112 1985.18,-195.064 2082.19,-176.005"/>
<polygon fill="black" stroke="black" points="2082.92,-179.43 2092.05,-174.063 2081.56,-172.562 2082.92,-179.43"/>
<text text-anchor="middle" x="1953.71" y="-225.8" font-family="Times New Roman,serif" font-size="14.00">EVENT_WRITE</text>
<text text-anchor="middle" x="1953.71" y="-210.8" font-family="Times New Roman,serif" font-size="14.00">2</text>
</g>
<!-- master&#45;&gt;/var/run/ld&#45;elf.so.hints -->
<g id="edge16" class="edge"><title>master&#45;&gt;/var/run/ld&#45;elf.so.hints</title>
<path fill="none" stroke="black" d="M790.387,-296.093C803.267,-313.919 822.117,-338.293 832.706,-344 870.148,-364.179 960.47,-375.522 1047.32,-381.89"/>
<polygon fill="black" stroke="black" points="1047.12,-385.385 1057.35,-382.604 1047.62,-378.402 1047.12,-385.385"/>
<text text-anchor="middle" x="877.706" y="-332.8" font-family="Times New Roman,serif" font-size="14.00">EVENT_OPEN</text>
<text text-anchor="middle" x="877.706" y="-317.8" font-family="Times New Roman,serif" font-size="14.00">11</text>
</g>
<!-- /var/mail/*.lock.* -->
<g id="node6" class="node"><title>/var/mail/*.lock.*</title>
<ellipse fill="none" stroke="black" cx="1275.71" cy="-148" rx="159.612" ry="28.9828"/>
<text text-anchor="middle" x="1275.71" y="-140.5" font-family="Times New Roman,serif" font-size="30.00">/var/mail/*.lock.*</text>
</g>
<!-- master&#45;&gt;/var/mail/*.lock.* -->
<g id="edge17" class="edge"><title>master&#45;&gt;/var/mail/*.lock.*</title>
<path fill="none" stroke="black" d="M824.741,-267.497C855.535,-263.256 896.399,-258.085 932.706,-255 954.76,-253.126 1315.41,-253.001 1330.71,-237 1345.74,-221.273 1334.35,-200.804 1318.13,-183.565"/>
<polygon fill="black" stroke="black" points="1320.49,-180.981 1310.94,-176.398 1315.55,-185.938 1320.49,-180.981"/>
<text text-anchor="middle" x="1391.21" y="-225.8" font-family="Times New Roman,serif" font-size="14.00">EVENT_UNLINK</text>
<text text-anchor="middle" x="1391.21" y="-210.8" font-family="Times New Roman,serif" font-size="14.00">2</text>
</g>
<!-- master&#45;&gt;128.55.12.10 -->
<g id="edge18" class="edge"><title>master&#45;&gt;128.55.12.10</title>
<path fill="none" stroke="black" d="M728.572,-264.067C706.165,-258.043 679.672,-249.2 657.706,-237 639.795,-227.053 641.087,-216.049 622.706,-207 587.671,-189.752 574.892,-197.169 536.706,-189 509.091,-183.092 479.154,-176.59 451.648,-170.576"/>
<polygon fill="black" stroke="black" points="452.15,-167.103 441.633,-168.385 450.654,-173.942 452.15,-167.103"/>
<text text-anchor="middle" x="712.206" y="-225.8" font-family="Times New Roman,serif" font-size="14.00">EVENT_SENDTO</text>
<text text-anchor="middle" x="712.206" y="-210.8" font-family="Times New Roman,serif" font-size="14.00">2</text>
</g>
<!-- 121.235.120.115 -->
<g id="node17" class="node"><title>121.235.120.115</title>
<polygon fill="none" stroke="black" points="764.706,-189 545.706,-148 764.706,-107 983.706,-148 764.706,-189"/>
<text text-anchor="middle" x="764.706" y="-140.5" font-family="Times New Roman,serif" font-size="30.00">121.235.120.115</text>
</g>
<!-- master&#45;&gt;121.235.120.115 -->
<g id="edge19" class="edge"><title>master&#45;&gt;121.235.120.115</title>
<path fill="none" stroke="black" d="M774.831,-254.891C773.388,-239.803 771.329,-218.267 769.444,-198.551"/>
<polygon fill="black" stroke="black" points="772.914,-198.072 768.478,-188.451 765.946,-198.738 772.914,-198.072"/>
<text text-anchor="middle" x="822.706" y="-225.8" font-family="Times New Roman,serif" font-size="14.00">EVENT_WRITE</text>
<text text-anchor="middle" x="822.706" y="-210.8" font-family="Times New Roman,serif" font-size="14.00">1</text>
</g>
<!-- /var/mail/*.lock.*&#45;&gt;alpine -->
<g id="edge20" class="edge"><title>/var/mail/*.lock.*&#45;&gt;alpine</title>
<path fill="none" stroke="black" d="M1243.08,-119.605C1234.84,-110.776 1227.1,-100.318 1222.71,-89 1217.88,-76.5699 1216.58,-70.8419 1222.71,-59 1224.8,-54.9487 1227.56,-51.2412 1230.72,-47.87"/>
<polygon fill="black" stroke="black" points="1233.17,-50.3672 1238.17,-41.0241 1228.44,-45.2124 1233.17,-50.3672"/>
<text text-anchor="middle" x="1265.21" y="-77.8" font-family="Times New Roman,serif" font-size="14.00">EVENT_LINK</text>
<text text-anchor="middle" x="1265.21" y="-62.8" font-family="Times New Roman,serif" font-size="14.00">2</text>
</g>
<!-- /var/mail/*.lock.*&#45;&gt;imapd -->
<g id="edge21" class="edge"><title>/var/mail/*.lock.*&#45;&gt;imapd</title>
<path fill="none" stroke="black" d="M1362.38,-123.614C1388.37,-117.35 1417.05,-111.169 1443.71,-107 1846.67,-43.9934 2339.06,-26.829 2503.35,-22.6899"/>
<polygon fill="black" stroke="black" points="2503.79,-26.1805 2513.7,-22.4358 2503.61,-19.1826 2503.79,-26.1805"/>
<text text-anchor="middle" x="1884.21" y="-77.8" font-family="Times New Roman,serif" font-size="14.00">EVENT_LINK</text>
<text text-anchor="middle" x="1884.21" y="-62.8" font-family="Times New Roman,serif" font-size="14.00">17</text>
</g>
<!-- alpine&#45;&gt;/var/run/ld&#45;elf.so.hints -->
<g id="edge23" class="edge"><title>alpine&#45;&gt;/var/run/ld&#45;elf.so.hints</title>
<path fill="none" stroke="black" d="M1320.42,-24.2041C1539.82,-37.5224 2492.4,-95.9473 2502.71,-107 2527.56,-133.651 2526.35,-161.267 2502.71,-189 2484.76,-210.047 1724.74,-321.466 1396.33,-368.748"/>
<polygon fill="black" stroke="black" points="1395.66,-365.307 1386.26,-370.196 1396.66,-372.236 1395.66,-365.307"/>
<text text-anchor="middle" x="2474.71" y="-225.8" font-family="Times New Roman,serif" font-size="14.00">EVENT_OPEN</text>
<text text-anchor="middle" x="2474.71" y="-210.8" font-family="Times New Roman,serif" font-size="14.00">2</text>
</g>
<!-- alpine&#45;&gt;/var/mail/*.lock.* -->
<g id="edge22" class="edge"><title>alpine&#45;&gt;/var/mail/*.lock.*</title>
<path fill="none" stroke="black" d="M1296.93,-41.1932C1301.32,-46.5046 1305.34,-52.5758 1307.71,-59 1313.91,-75.8307 1308.82,-94.5016 1301.02,-110.299"/>
<polygon fill="black" stroke="black" points="1297.87,-108.774 1296.18,-119.233 1304.02,-112.108 1297.87,-108.774"/>
<text text-anchor="middle" x="1355.71" y="-77.8" font-family="Times New Roman,serif" font-size="14.00">EVENT_OPEN</text>
<text text-anchor="middle" x="1355.71" y="-62.8" font-family="Times New Roman,serif" font-size="14.00">2</text>
</g>
<!-- 128.55.12.10&#45;&gt;bash -->
<g id="edge24" class="edge"><title>128.55.12.10&#45;&gt;bash</title>
<path fill="none" stroke="black" d="M381.834,-182.718C419.871,-226.196 491.845,-301.281 568.706,-344 745.761,-442.408 987.997,-485.24 1088.3,-499.559"/>
<polygon fill="black" stroke="black" points="1088.02,-503.053 1098.41,-500.973 1088.99,-496.121 1088.02,-503.053"/>
<text text-anchor="middle" x="634.206" y="-332.8" font-family="Times New Roman,serif" font-size="14.00">EVENT_RECVFROM</text>
<text text-anchor="middle" x="634.206" y="-317.8" font-family="Times New Roman,serif" font-size="14.00">10</text>
</g>
<!-- 128.55.12.10&#45;&gt;master -->
<g id="edge26" class="edge"><title>128.55.12.10&#45;&gt;master</title>
<path fill="none" stroke="black" d="M418.151,-173.923C435.78,-182.671 454.048,-193.705 468.706,-207 480.396,-217.603 474.398,-228.515 487.706,-237 524.884,-260.706 645.41,-269.515 718.551,-272.723"/>
<polygon fill="black" stroke="black" points="718.406,-276.22 728.543,-273.14 718.698,-269.226 718.406,-276.22"/>
<text text-anchor="middle" x="553.206" y="-225.8" font-family="Times New Roman,serif" font-size="14.00">EVENT_RECVFROM</text>
<text text-anchor="middle" x="553.206" y="-210.8" font-family="Times New Roman,serif" font-size="14.00">1</text>
</g>
<!-- 128.55.12.10&#45;&gt;sshd -->
<g id="edge25" class="edge"><title>128.55.12.10&#45;&gt;sshd</title>
<path fill="none" stroke="black" d="M418.685,-122.187C474.386,-101.95 557.196,-74.2952 631.706,-59 750.698,-34.5734 894.034,-25.9022 965.9,-22.9463"/>
<polygon fill="black" stroke="black" points="966.119,-26.4405 975.973,-22.5505 965.844,-19.4459 966.119,-26.4405"/>
<text text-anchor="middle" x="697.206" y="-77.8" font-family="Times New Roman,serif" font-size="14.00">EVENT_RECVFROM</text>
<text text-anchor="middle" x="697.206" y="-62.8" font-family="Times New Roman,serif" font-size="14.00">2</text>
</g>
<!-- imapd&#45;&gt;/var/run/ld&#45;elf.so.hints -->
<g id="edge27" class="edge"><title>imapd&#45;&gt;/var/run/ld&#45;elf.so.hints</title>
<path fill="none" stroke="black" d="M2578.53,-41.2317C2614.29,-81.1739 2684.64,-173.217 2639.71,-237 2594.85,-300.669 2549.4,-273.935 2474.71,-296 2385.38,-322.389 2363.1,-332.242 2270.71,-344 2090.78,-366.896 1635.53,-347.825 1454.71,-362 1434.34,-363.596 1412.92,-365.846 1391.88,-368.383"/>
<polygon fill="black" stroke="black" points="1391.42,-364.913 1381.93,-369.609 1392.28,-371.861 1391.42,-364.913"/>
<text text-anchor="middle" x="2696.71" y="-225.8" font-family="Times New Roman,serif" font-size="14.00">EVENT_OPEN</text>
<text text-anchor="middle" x="2696.71" y="-210.8" font-family="Times New Roman,serif" font-size="14.00">17</text>
</g>
<!-- imapd&#45;&gt;/var/mail/*.lock.* -->
<g id="edge28" class="edge"><title>imapd&#45;&gt;/var/mail/*.lock.*</title>
<path fill="none" stroke="black" d="M2513.64,-27.5611C2409.82,-40.9761 2149.52,-73.2347 1930.71,-89 1714.67,-104.565 1658.32,-77.775 1443.71,-107 1419.79,-110.257 1394.3,-115.42 1370.6,-120.97"/>
<polygon fill="black" stroke="black" points="1369.47,-117.64 1360.56,-123.367 1371.1,-124.449 1369.47,-117.64"/>
<text text-anchor="middle" x="2284.71" y="-77.8" font-family="Times New Roman,serif" font-size="14.00">EVENT_OPEN</text>
<text text-anchor="middle" x="2284.71" y="-62.8" font-family="Times New Roman,serif" font-size="14.00">2</text>
</g>
<!-- /var/run/resolv.conf.vtnet1&#45;&gt;sh -->
<g id="edge29" class="edge"><title>/var/run/resolv.conf.vtnet1&#45;&gt;sh</title>
<path fill="none" stroke="black" d="M1587.15,-174.265C1559.46,-182.992 1529.8,-193.93 1503.71,-207 1483.2,-217.274 1481.97,-226.247 1461.71,-237 1441.45,-247.751 1417.42,-256.807 1397.89,-263.325"/>
<polygon fill="black" stroke="black" points="1396.55,-260.078 1388.12,-266.497 1398.72,-266.735 1396.55,-260.078"/>
<text text-anchor="middle" x="1549.21" y="-225.8" font-family="Times New Roman,serif" font-size="14.00">EVENT_READ</text>
<text text-anchor="middle" x="1549.21" y="-210.8" font-family="Times New Roman,serif" font-size="14.00">1</text>
</g>
<!-- sshd&#45;&gt;/var/run/ld&#45;elf.so.hints -->
<g id="edge31" class="edge"><title>sshd&#45;&gt;/var/run/ld&#45;elf.so.hints</title>
<path fill="none" stroke="black" d="M1008.95,-41.147C1002.78,-87.8447 989.845,-204.036 1008.71,-237 1025.48,-266.309 1111.71,-295.114 1139.71,-314 1157.83,-326.231 1160.93,-331.262 1178.71,-344 1184.58,-348.209 1190.8,-352.535 1197.01,-356.771"/>
<polygon fill="black" stroke="black" points="1195.19,-359.765 1205.43,-362.471 1199.11,-353.968 1195.19,-359.765"/>
<text text-anchor="middle" x="1053.71" y="-225.8" font-family="Times New Roman,serif" font-size="14.00">EVENT_OPEN</text>
<text text-anchor="middle" x="1053.71" y="-210.8" font-family="Times New Roman,serif" font-size="14.00">4</text>
</g>
<!-- sshd&#45;&gt;128.55.12.10 -->
<g id="edge30" class="edge"><title>sshd&#45;&gt;128.55.12.10</title>
<path fill="none" stroke="black" d="M975.775,-31.6367C912.013,-49.5658 783.777,-85.3374 762.706,-89 663.432,-106.256 636.376,-92.2077 536.706,-107 507.21,-111.377 475.368,-117.75 446.644,-124.128"/>
<polygon fill="black" stroke="black" points="445.611,-120.773 436.622,-126.381 447.147,-127.602 445.611,-120.773"/>
<text text-anchor="middle" x="936.706" y="-77.8" font-family="Times New Roman,serif" font-size="14.00">EVENT_CONNECT</text>
<text text-anchor="middle" x="936.706" y="-62.8" font-family="Times New Roman,serif" font-size="14.00">4</text>
</g>
<!-- /var/db/entropy/saved&#45;entropy.3&#45;&gt;sh -->
<g id="edge32" class="edge"><title>/var/db/entropy/saved&#45;entropy.3&#45;&gt;sh</title>
<path fill="none" stroke="black" d="M2163.38,-176.578C2122.27,-197.204 2062.46,-223.999 2006.71,-237 1889.75,-264.274 1517.58,-272.148 1398.05,-274.002"/>
<polygon fill="black" stroke="black" points="1397.88,-270.504 1387.93,-274.154 1397.98,-277.504 1397.88,-270.504"/>
<text text-anchor="middle" x="2141.21" y="-225.8" font-family="Times New Roman,serif" font-size="14.00">EVENT_READ</text>
<text text-anchor="middle" x="2141.21" y="-210.8" font-family="Times New Roman,serif" font-size="14.00">2</text>
</g>
<!-- sudo&#45;&gt;/var/run/ld&#45;elf.so.hints -->
<g id="edge33" class="edge"><title>sudo&#45;&gt;/var/run/ld&#45;elf.so.hints</title>
<path fill="none" stroke="black" d="M945.82,-296.274C940.11,-301.299 934.966,-307.228 931.706,-314 925.922,-326.014 922.983,-333.916 931.706,-344 948.572,-363.498 994.891,-374.9 1047.04,-381.513"/>
<polygon fill="black" stroke="black" points="1046.84,-385.015 1057.19,-382.733 1047.68,-378.065 1046.84,-385.015"/>
<text text-anchor="middle" x="976.706" y="-332.8" font-family="Times New Roman,serif" font-size="14.00">EVENT_OPEN</text>
<text text-anchor="middle" x="976.706" y="-317.8" font-family="Times New Roman,serif" font-size="14.00">1</text>
</g>
<!-- head -->
<g id="node16" class="node"><title>head</title>
<polygon fill="none" stroke="black" points="170.206,-526.983 97.2056,-526.983 97.2056,-485.983 170.206,-485.983 170.206,-526.983"/>
<text text-anchor="middle" x="133.706" y="-498.983" font-family="Times New Roman,serif" font-size="30.00">head</text>
</g>
<!-- head&#45;&gt;/usr/home/darpa/.* -->
<g id="edge34" class="edge"><title>head&#45;&gt;/usr/home/darpa/.*</title>
<path fill="none" stroke="black" d="M130.808,-485.721C129.548,-471.957 129.386,-453.38 134.706,-437.983 135.838,-434.706 137.301,-431.477 138.987,-428.341"/>
<polygon fill="black" stroke="black" points="141.986,-430.145 144.233,-419.791 136.02,-426.484 141.986,-430.145"/>
<text text-anchor="middle" x="183.706" y="-456.783" font-family="Times New Roman,serif" font-size="14.00">EVENT_WRITE</text>
<text text-anchor="middle" x="183.706" y="-441.783" font-family="Times New Roman,serif" font-size="14.00">1</text>
</g>
<!-- 121.235.120.115&#45;&gt;master -->
<g id="edge35" class="edge"><title>121.235.120.115&#45;&gt;master</title>
<path fill="none" stroke="black" d="M841.169,-174.729C854.922,-182.875 867.482,-193.424 875.706,-207 882.614,-218.404 883.282,-226.028 875.706,-237 866.106,-250.902 850.636,-259.655 834.749,-265.165"/>
<polygon fill="black" stroke="black" points="833.39,-261.921 824.852,-268.194 835.438,-268.614 833.39,-261.921"/>
<text text-anchor="middle" x="927.206" y="-225.8" font-family="Times New Roman,serif" font-size="14.00">EVENT_READ</text>
<text text-anchor="middle" x="927.206" y="-210.8" font-family="Times New Roman,serif" font-size="14.00">1</text>
</g>
</g>
</svg>
