<?xml version="1.0" encoding="UTF-8" standalone="no"?>
<!DOCTYPE svg PUBLIC "-//W3C//DTD SVG 1.1//EN"
 "http://www.w3.org/Graphics/SVG/1.1/DTD/svg11.dtd">
<!-- Generated by graphviz version 2.38.0 (20140413.2041)
 -->
<!-- Title: %3 Pages: 1 -->
<svg width="636pt" height="197pt"
 viewBox="0.00 0.00 636.00 197.00" xmlns="http://www.w3.org/2000/svg" xmlns:xlink="http://www.w3.org/1999/xlink">
<g id="graph0" class="graph" transform="scale(1 1) rotate(0) translate(4 193)">
<title>%3</title>
<polygon fill="white" stroke="none" points="-4,4 -4,-193 632,-193 632,4 -4,4"/>
<!-- 192.113.144.28 -->
<g id="node1" class="node"><title>192.113.144.28</title>
<polygon fill="none" stroke="red" points="204,-189 1.13687e-013,-148 204,-107 408,-148 204,-189"/>
<text text-anchor="middle" x="204" y="-140.5" font-family="Times New Roman,serif" font-size="30.00">192.113.144.28</text>
</g>
<!-- XIM -->
<g id="node2" class="node"><title>XIM</title>
<polygon fill="none" stroke="red" points="251.5,-41 176.5,-41 176.5,-0 251.5,-0 251.5,-41"/>
<text text-anchor="middle" x="214" y="-13" font-family="Times New Roman,serif" font-size="30.00">XIM</text>
</g>
<!-- 192.113.144.28&#45;&gt;XIM -->
<g id="edge1" class="edge"><title>192.113.144.28&#45;&gt;XIM</title>
<path fill="none" stroke="black" d="M114.741,-124.846C73.441,-110.185 38.0593,-88.2424 61,-59 73.9665,-42.4717 126.47,-32.2761 166.388,-26.7649"/>
<polygon fill="black" stroke="black" points="167.036,-30.2098 176.492,-25.4311 166.12,-23.27 167.036,-30.2098"/>
<text text-anchor="middle" x="126.5" y="-77.8" font-family="Times New Roman,serif" font-size="14.00">EVENT_RECVFROM</text>
<text text-anchor="middle" x="126.5" y="-62.8" font-family="Times New Roman,serif" font-size="14.00">1</text>
</g>
<!-- XIM&#45;&gt;192.113.144.28 -->
<g id="edge2" class="edge"><title>XIM&#45;&gt;192.113.144.28</title>
<path fill="none" stroke="black" d="M212.421,-41.3166C211.224,-56.3449 209.523,-77.6852 207.963,-97.259"/>
<polygon fill="black" stroke="black" points="204.47,-97.0446 207.164,-107.291 211.447,-97.6006 204.47,-97.0446"/>
<text text-anchor="middle" x="265.5" y="-77.8" font-family="Times New Roman,serif" font-size="14.00">EVENT_SENDTO</text>
<text text-anchor="middle" x="265.5" y="-62.8" font-family="Times New Roman,serif" font-size="14.00">2</text>
</g>
<!-- /tmp/test -->
<g id="node3" class="node"><title>/tmp/test</title>
<ellipse fill="none" stroke="red" cx="512" cy="-148" rx="85.6199" ry="28.9828"/>
<text text-anchor="middle" x="512" y="-140.5" font-family="Times New Roman,serif" font-size="30.00">/tmp/test</text>
</g>
<!-- /tmp/test&#45;&gt;XIM -->
<g id="edge3" class="edge"><title>/tmp/test&#45;&gt;XIM</title>
<path fill="none" stroke="black" d="M464.23,-123.912C417.91,-101.657 350.823,-69.8122 324,-59 303.669,-50.8047 280.783,-42.8113 261.172,-36.3246"/>
<polygon fill="black" stroke="black" points="262.133,-32.9566 251.54,-33.1721 259.956,-39.6093 262.133,-32.9566"/>
<text text-anchor="middle" x="447" y="-77.8" font-family="Times New Roman,serif" font-size="14.00">EVENT_EXECUTE</text>
<text text-anchor="middle" x="447" y="-62.8" font-family="Times New Roman,serif" font-size="14.00">1</text>
</g>
<!-- sshd -->
<g id="node4" class="node"><title>sshd</title>
<polygon fill="none" stroke="black" points="547.5,-41 476.5,-41 476.5,-0 547.5,-0 547.5,-41"/>
<text text-anchor="middle" x="512" y="-13" font-family="Times New Roman,serif" font-size="30.00">sshd</text>
</g>
<!-- /tmp/test&#45;&gt;sshd -->
<g id="edge4" class="edge"><title>/tmp/test&#45;&gt;sshd</title>
<path fill="none" stroke="black" d="M512,-118.835C512,-98.7729 512,-71.851 512,-51.4063"/>
<polygon fill="black" stroke="black" points="515.5,-51.3761 512,-41.3761 508.5,-51.3761 515.5,-51.3761"/>
<text text-anchor="middle" x="570" y="-77.8" font-family="Times New Roman,serif" font-size="14.00">EVENT_EXECUTE</text>
<text text-anchor="middle" x="570" y="-62.8" font-family="Times New Roman,serif" font-size="14.00">3</text>
</g>
</g>
</svg>
