<?xml version="1.0" encoding="UTF-8" standalone="no"?>
<!DOCTYPE svg PUBLIC "-//W3C//DTD SVG 1.1//EN"
 "http://www.w3.org/Graphics/SVG/1.1/DTD/svg11.dtd">
<!-- Generated by graphviz version 2.38.0 (20140413.2041)
 -->
<!-- Title: %3 Pages: 1 -->
<svg width="2635pt" height="345pt"
 viewBox="0.00 0.00 2635.00 345.00" xmlns="http://www.w3.org/2000/svg" xmlns:xlink="http://www.w3.org/1999/xlink">
<g id="graph0" class="graph" transform="scale(1 1) rotate(0) translate(4 341)">
<title>%3</title>
<polygon fill="white" stroke="none" points="-4,4 -4,-341 2631,-341 2631,4 -4,4"/>
<!-- 128.55.12.122 -->
<g id="node1" class="node"><title>128.55.12.122</title>
<polygon fill="none" stroke="black" points="250,-337 61,-296 250,-255 439,-296 250,-337"/>
<text text-anchor="middle" x="250" y="-288.5" font-family="Times New Roman,serif" font-size="30.00">128.55.12.122</text>
</g>
<!-- nginx -->
<g id="node2" class="node"><title>nginx</title>
<polygon fill="none" stroke="black" points="292,-189 208,-189 208,-148 292,-148 292,-189"/>
<text text-anchor="middle" x="250" y="-161" font-family="Times New Roman,serif" font-size="30.00">nginx</text>
</g>
<!-- 128.55.12.122&#45;&gt;nginx -->
<g id="edge1" class="edge"><title>128.55.12.122&#45;&gt;nginx</title>
<path fill="none" stroke="black" d="M199.678,-265.894C178.202,-249.569 160.784,-228.258 174,-207 179.888,-197.529 188.952,-190.379 198.795,-185.006"/>
<polygon fill="black" stroke="black" points="200.51,-188.064 207.984,-180.555 197.459,-181.764 200.51,-188.064"/>
<text text-anchor="middle" x="239.5" y="-225.8" font-family="Times New Roman,serif" font-size="14.00">EVENT_RECVFROM</text>
<text text-anchor="middle" x="239.5" y="-210.8" font-family="Times New Roman,serif" font-size="14.00">23</text>
</g>
<!-- nginx&#45;&gt;128.55.12.122 -->
<g id="edge9" class="edge"><title>nginx&#45;&gt;128.55.12.122</title>
<path fill="none" stroke="black" d="M289.203,-189.01C295.561,-193.976 301.274,-199.95 305,-207 311.23,-218.788 309.939,-224.615 305,-237 302.445,-243.409 298.807,-249.516 294.604,-255.197"/>
<polygon fill="black" stroke="black" points="291.691,-253.232 288.103,-263.2 297.125,-257.646 291.691,-253.232"/>
<text text-anchor="middle" x="359" y="-225.8" font-family="Times New Roman,serif" font-size="14.00">EVENT_WRITE</text>
<text text-anchor="middle" x="359" y="-210.8" font-family="Times New Roman,serif" font-size="14.00">23</text>
</g>
<!-- 127.0.0.1 -->
<g id="node3" class="node"><title>127.0.0.1</title>
<polygon fill="none" stroke="black" points="129,-82 2.84217e-014,-41 129,-7.10543e-015 258,-41 129,-82"/>
<text text-anchor="middle" x="129" y="-33.5" font-family="Times New Roman,serif" font-size="30.00">127.0.0.1</text>
</g>
<!-- nginx&#45;&gt;127.0.0.1 -->
<g id="edge6" class="edge"><title>nginx&#45;&gt;127.0.0.1</title>
<path fill="none" stroke="black" d="M207.888,-166.276C180.961,-163.044 147.849,-153.991 130,-130 121.487,-118.558 119.049,-103.76 119.388,-89.575"/>
<polygon fill="black" stroke="black" points="122.893,-89.6254 120.078,-79.4112 115.909,-89.1511 122.893,-89.6254"/>
<text text-anchor="middle" x="179" y="-118.8" font-family="Times New Roman,serif" font-size="14.00">EVENT_WRITE</text>
<text text-anchor="middle" x="179" y="-103.8" font-family="Times New Roman,serif" font-size="14.00">24</text>
</g>
<!-- 155.162.39.48 -->
<g id="node4" class="node"><title>155.162.39.48</title>
<polygon fill="none" stroke="red" points="465,-82 276,-41 465,-7.10543e-015 654,-41 465,-82"/>
<text text-anchor="middle" x="465" y="-33.5" font-family="Times New Roman,serif" font-size="30.00">155.162.39.48</text>
</g>
<!-- nginx&#45;&gt;155.162.39.48 -->
<g id="edge4" class="edge"><title>nginx&#45;&gt;155.162.39.48</title>
<path fill="none" stroke="black" d="M292.198,-161.205C318.4,-155.879 351.931,-146.398 378,-130 393.184,-120.449 392.544,-112.908 405,-100 410.785,-94.0054 416.998,-87.7776 423.155,-81.7238"/>
<polygon fill="black" stroke="black" points="425.617,-84.2114 430.328,-74.7215 420.728,-79.2022 425.617,-84.2114"/>
<text text-anchor="middle" x="459.5" y="-118.8" font-family="Times New Roman,serif" font-size="14.00">EVENT_SENDTO</text>
<text text-anchor="middle" x="459.5" y="-103.8" font-family="Times New Roman,serif" font-size="14.00">2</text>
</g>
<!-- /tmp/pEja72mA -->
<g id="node5" class="node"><title>/tmp/pEja72mA</title>
<ellipse fill="none" stroke="red" cx="820" cy="-41" rx="147.571" ry="28.9828"/>
<text text-anchor="middle" x="820" y="-33.5" font-family="Times New Roman,serif" font-size="30.00">/tmp/pEja72mA</text>
</g>
<!-- nginx&#45;&gt;/tmp/pEja72mA -->
<g id="edge2" class="edge"><title>nginx&#45;&gt;/tmp/pEja72mA</title>
<path fill="none" stroke="black" d="M292.064,-165.738C381.679,-161.64 588.725,-150.244 656,-130 697.434,-117.532 740.395,-94.0291 771.947,-74.4473"/>
<polygon fill="black" stroke="black" points="773.936,-77.3309 780.534,-69.0406 770.206,-71.4074 773.936,-77.3309"/>
<text text-anchor="middle" x="772" y="-118.8" font-family="Times New Roman,serif" font-size="14.00">EVENT_OPEN</text>
<text text-anchor="middle" x="772" y="-103.8" font-family="Times New Roman,serif" font-size="14.00">2</text>
</g>
<!-- /var/log/nginx&#45;error.log -->
<g id="node6" class="node"><title>/var/log/nginx&#45;error.log</title>
<ellipse fill="none" stroke="black" cx="1194" cy="-41" rx="208.693" ry="28.9828"/>
<text text-anchor="middle" x="1194" y="-33.5" font-family="Times New Roman,serif" font-size="30.00">/var/log/nginx&#45;error.log</text>
</g>
<!-- nginx&#45;&gt;/var/log/nginx&#45;error.log -->
<g id="edge3" class="edge"><title>nginx&#45;&gt;/var/log/nginx&#45;error.log</title>
<path fill="none" stroke="black" d="M292.163,-167.121C387.115,-165.745 624.745,-159.387 821,-130 915.303,-115.879 1020.92,-89.9891 1095.63,-69.9328"/>
<polygon fill="black" stroke="black" points="1096.76,-73.2533 1105.5,-67.2682 1094.93,-66.4951 1096.76,-73.2533"/>
<text text-anchor="middle" x="1015" y="-118.8" font-family="Times New Roman,serif" font-size="14.00">EVENT_WRITE</text>
<text text-anchor="middle" x="1015" y="-103.8" font-family="Times New Roman,serif" font-size="14.00">2</text>
</g>
<!-- 25.159.96.207 -->
<g id="node7" class="node"><title>25.159.96.207</title>
<polygon fill="none" stroke="black" points="1610,-82 1421,-41 1610,-7.10543e-015 1799,-41 1610,-82"/>
<text text-anchor="middle" x="1610" y="-33.5" font-family="Times New Roman,serif" font-size="30.00">25.159.96.207</text>
</g>
<!-- nginx&#45;&gt;25.159.96.207 -->
<g id="edge5" class="edge"><title>nginx&#45;&gt;25.159.96.207</title>
<path fill="none" stroke="black" d="M292.24,-166.946C413.295,-165.06 771.788,-157.396 1068,-130 1221.71,-115.783 1259.83,-107.963 1412,-82 1443.04,-76.7044 1476.66,-70.2033 1507.23,-63.9936"/>
<polygon fill="black" stroke="black" points="1507.95,-67.4198 1517.05,-61.9895 1506.55,-60.5614 1507.95,-67.4198"/>
<text text-anchor="middle" x="1355" y="-118.8" font-family="Times New Roman,serif" font-size="14.00">EVENT_WRITE</text>
<text text-anchor="middle" x="1355" y="-103.8" font-family="Times New Roman,serif" font-size="14.00">1</text>
</g>
<!-- /var/log/nginx&#45;access.log -->
<g id="node8" class="node"><title>/var/log/nginx&#45;access.log</title>
<ellipse fill="none" stroke="black" cx="2039" cy="-41" rx="222.063" ry="28.9828"/>
<text text-anchor="middle" x="2039" y="-33.5" font-family="Times New Roman,serif" font-size="30.00">/var/log/nginx&#45;access.log</text>
</g>
<!-- nginx&#45;&gt;/var/log/nginx&#45;access.log -->
<g id="edge7" class="edge"><title>nginx&#45;&gt;/var/log/nginx&#45;access.log</title>
<path fill="none" stroke="black" d="M292.305,-167.4C494.169,-166.76 1360.74,-162.158 1629,-130 1734.41,-117.364 1852.76,-90.5707 1935.11,-69.8483"/>
<polygon fill="black" stroke="black" points="1936.14,-73.1992 1944.97,-67.3526 1934.42,-66.4132 1936.14,-73.1992"/>
<text text-anchor="middle" x="1848" y="-118.8" font-family="Times New Roman,serif" font-size="14.00">EVENT_WRITE</text>
<text text-anchor="middle" x="1848" y="-103.8" font-family="Times New Roman,serif" font-size="14.00">2</text>
</g>
<!-- 76.56.184.25 -->
<g id="node9" class="node"><title>76.56.184.25</title>
<polygon fill="none" stroke="red" points="2453,-82 2279,-41 2453,-7.10543e-015 2627,-41 2453,-82"/>
<text text-anchor="middle" x="2453" y="-33.5" font-family="Times New Roman,serif" font-size="30.00">76.56.184.25</text>
</g>
<!-- nginx&#45;&gt;76.56.184.25 -->
<g id="edge8" class="edge"><title>nginx&#45;&gt;76.56.184.25</title>
<path fill="none" stroke="black" d="M292.123,-167.153C516.642,-165.21 1574.56,-154.868 1901,-130 2065.9,-117.438 2107.07,-110.35 2270,-82 2298.8,-76.9882 2329.95,-70.5635 2358.23,-64.3363"/>
<polygon fill="black" stroke="black" points="2359.1,-67.7278 2368.11,-62.1446 2357.59,-60.894 2359.1,-67.7278"/>
<text text-anchor="middle" x="2223" y="-118.8" font-family="Times New Roman,serif" font-size="14.00">EVENT_CONNECT</text>
<text text-anchor="middle" x="2223" y="-103.8" font-family="Times New Roman,serif" font-size="14.00">2</text>
</g>
<!-- 127.0.0.1&#45;&gt;nginx -->
<g id="edge10" class="edge"><title>127.0.0.1&#45;&gt;nginx</title>
<path fill="none" stroke="black" d="M183.65,-64.7625C199.788,-73.7223 216.256,-85.4161 228,-100 236.784,-110.908 242.104,-125.43 245.305,-138.21"/>
<polygon fill="black" stroke="black" points="241.887,-138.962 247.444,-147.983 248.725,-137.466 241.887,-138.962"/>
<text text-anchor="middle" x="308.5" y="-118.8" font-family="Times New Roman,serif" font-size="14.00">EVENT_RECVFROM</text>
<text text-anchor="middle" x="308.5" y="-103.8" font-family="Times New Roman,serif" font-size="14.00">24</text>
</g>
<!-- 155.162.39.48&#45;&gt;nginx -->
<g id="edge11" class="edge"><title>155.162.39.48&#45;&gt;nginx</title>
<path fill="none" stroke="black" d="M501.247,-74.1587C516.798,-91.783 528.443,-113.361 514,-130 487.157,-160.926 371.329,-167.017 302.329,-167.829"/>
<polygon fill="black" stroke="black" points="302.062,-164.331 292.092,-167.915 302.121,-171.331 302.062,-164.331"/>
<text text-anchor="middle" x="586.5" y="-118.8" font-family="Times New Roman,serif" font-size="14.00">EVENT_RECVFROM</text>
<text text-anchor="middle" x="586.5" y="-103.8" font-family="Times New Roman,serif" font-size="14.00">1</text>
</g>
<!-- 25.159.96.207&#45;&gt;nginx -->
<g id="edge12" class="edge"><title>25.159.96.207&#45;&gt;nginx</title>
<path fill="none" stroke="black" d="M1558.28,-71.0566C1518.54,-91.7448 1461.55,-117.934 1408,-130 1299.51,-154.443 514.344,-164.639 302.53,-166.963"/>
<polygon fill="black" stroke="black" points="302.26,-163.466 292.299,-167.074 302.336,-170.465 302.26,-163.466"/>
<text text-anchor="middle" x="1559.5" y="-118.8" font-family="Times New Roman,serif" font-size="14.00">EVENT_RECVFROM</text>
<text text-anchor="middle" x="1559.5" y="-103.8" font-family="Times New Roman,serif" font-size="14.00">1</text>
</g>
<!-- 76.56.184.25&#45;&gt;nginx -->
<g id="edge13" class="edge"><title>76.56.184.25&#45;&gt;nginx</title>
<path fill="none" stroke="black" d="M2409.9,-72.1333C2377.69,-92.7828 2331.69,-118.45 2287,-130 2188.17,-155.544 610.784,-165.515 302.145,-167.225"/>
<polygon fill="black" stroke="black" points="302.104,-163.726 292.124,-167.281 302.143,-170.725 302.104,-163.726"/>
<text text-anchor="middle" x="2423.5" y="-118.8" font-family="Times New Roman,serif" font-size="14.00">EVENT_RECVFROM</text>
<text text-anchor="middle" x="2423.5" y="-103.8" font-family="Times New Roman,serif" font-size="14.00">1</text>
</g>
</g>
</svg>
