<?xml version="1.0" encoding="UTF-8" standalone="no"?>
<!DOCTYPE svg PUBLIC "-//W3C//DTD SVG 1.1//EN"
 "http://www.w3.org/Graphics/SVG/1.1/DTD/svg11.dtd">
<!-- Generated by graphviz version 2.38.0 (20140413.2041)
 -->
<!-- Title: %3 Pages: 1 -->
<svg width="1542pt" height="321pt"
 viewBox="0.00 0.00 1541.90 320.98" xmlns="http://www.w3.org/2000/svg" xmlns:xlink="http://www.w3.org/1999/xlink">
<g id="graph0" class="graph" transform="scale(1 1) rotate(0) translate(4 316.983)">
<title>%3</title>
<polygon fill="white" stroke="none" points="-4,4 -4,-316.983 1537.9,-316.983 1537.9,4 -4,4"/>
<!-- python2.7 -->
<g id="node1" class="node"><title>python2.7</title>
<polygon fill="none" stroke="black" points="206.8,-189 71.8,-189 71.8,-148 206.8,-148 206.8,-189"/>
<text text-anchor="middle" x="139.3" y="-161" font-family="Times New Roman,serif" font-size="30.00">python2.7</text>
</g>
<!-- /var/cache/.* -->
<g id="node2" class="node"><title>/var/cache/.*</title>
<ellipse fill="none" stroke="black" cx="414.3" cy="-41" rx="118.174" ry="28.9828"/>
<text text-anchor="middle" x="414.3" y="-33.5" font-family="Times New Roman,serif" font-size="30.00">/var/cache/.*</text>
</g>
<!-- python2.7&#45;&gt;/var/cache/.* -->
<g id="edge1" class="edge"><title>python2.7&#45;&gt;/var/cache/.*</title>
<path fill="none" stroke="black" d="M207.197,-164.44C245.602,-160.287 293.376,-150.903 331.3,-130 354.108,-117.428 374.295,-96.3873 389.049,-78.0319"/>
<polygon fill="black" stroke="black" points="392.055,-79.8684 395.435,-69.8273 386.531,-75.5687 392.055,-79.8684"/>
<text text-anchor="middle" x="413.3" y="-118.8" font-family="Times New Roman,serif" font-size="14.00">EVENT_OPEN</text>
<text text-anchor="middle" x="413.3" y="-103.8" font-family="Times New Roman,serif" font-size="14.00">5</text>
</g>
<!-- /usr/local/lib/.* -->
<g id="node3" class="node"><title>/usr/local/lib/.*</title>
<ellipse fill="none" stroke="black" cx="139.3" cy="-41" rx="139.1" ry="28.9828"/>
<text text-anchor="middle" x="139.3" y="-33.5" font-family="Times New Roman,serif" font-size="30.00">/usr/local/lib/.*</text>
</g>
<!-- python2.7&#45;&gt;/usr/local/lib/.* -->
<g id="edge2" class="edge"><title>python2.7&#45;&gt;/usr/local/lib/.*</title>
<path fill="none" stroke="black" d="M139.3,-147.891C139.3,-129.917 139.3,-102.792 139.3,-80.4957"/>
<polygon fill="black" stroke="black" points="142.8,-80.3211 139.3,-70.3211 135.8,-80.3212 142.8,-80.3211"/>
<text text-anchor="middle" x="184.3" y="-118.8" font-family="Times New Roman,serif" font-size="14.00">EVENT_OPEN</text>
<text text-anchor="middle" x="184.3" y="-103.8" font-family="Times New Roman,serif" font-size="14.00">497</text>
</g>
<!-- /usr/local/lib/.*&#45;&gt;python2.7 -->
<g id="edge3" class="edge"><title>/usr/local/lib/.*&#45;&gt;python2.7</title>
<path fill="none" stroke="black" d="M195.285,-67.715C222.48,-83.9369 246.195,-106.259 230.3,-130 226.404,-135.819 221.423,-140.737 215.804,-144.891"/>
<polygon fill="black" stroke="black" points="213.683,-142.094 207.168,-150.449 217.472,-147.981 213.683,-142.094"/>
<text text-anchor="middle" x="281.8" y="-118.8" font-family="Times New Roman,serif" font-size="14.00">EVENT_READ</text>
<text text-anchor="middle" x="281.8" y="-103.8" font-family="Times New Roman,serif" font-size="14.00">142</text>
</g>
<!-- sh -->
<g id="node4" class="node"><title>sh</title>
<polygon fill="none" stroke="black" points="620.3,-189 566.3,-189 566.3,-148 620.3,-148 620.3,-189"/>
<text text-anchor="middle" x="593.3" y="-161" font-family="Times New Roman,serif" font-size="30.00">sh</text>
</g>
<!-- /dev/random -->
<g id="node5" class="node"><title>/dev/random</title>
<ellipse fill="none" stroke="black" cx="480.3" cy="-283.991" rx="117.26" ry="28.9828"/>
<text text-anchor="middle" x="480.3" y="-276.491" font-family="Times New Roman,serif" font-size="30.00">/dev/random</text>
</g>
<!-- sh&#45;&gt;/dev/random -->
<g id="edge4" class="edge"><title>sh&#45;&gt;/dev/random</title>
<path fill="none" stroke="black" d="M566.022,-170.185C539.555,-172.475 500.641,-180.498 481.3,-207 473.506,-217.68 471.66,-231.643 472.301,-244.683"/>
<polygon fill="black" stroke="black" points="468.839,-245.243 473.281,-254.861 475.806,-244.572 468.839,-245.243"/>
<text text-anchor="middle" x="526.3" y="-225.8" font-family="Times New Roman,serif" font-size="14.00">EVENT_OPEN</text>
<text text-anchor="middle" x="526.3" y="-210.8" font-family="Times New Roman,serif" font-size="14.00">332</text>
</g>
<!-- /var/db/entropy/saved&#45;entropy.1 -->
<g id="node6" class="node"><title>/var/db/entropy/saved&#45;entropy.1</title>
<ellipse fill="none" stroke="black" cx="1255.3" cy="-41" rx="278.7" ry="28.9828"/>
<text text-anchor="middle" x="1255.3" y="-33.5" font-family="Times New Roman,serif" font-size="30.00">/var/db/entropy/saved&#45;entropy.1</text>
</g>
<!-- sh&#45;&gt;/var/db/entropy/saved&#45;entropy.1 -->
<g id="edge5" class="edge"><title>sh&#45;&gt;/var/db/entropy/saved&#45;entropy.1</title>
<path fill="none" stroke="black" d="M620.485,-162.346C703.001,-146.703 954.741,-98.9791 1115.31,-68.5389"/>
<polygon fill="black" stroke="black" points="1116.1,-71.9515 1125.27,-66.6501 1114.8,-65.074 1116.1,-71.9515"/>
<text text-anchor="middle" x="988.3" y="-118.8" font-family="Times New Roman,serif" font-size="14.00">EVENT_OPEN</text>
<text text-anchor="middle" x="988.3" y="-103.8" font-family="Times New Roman,serif" font-size="14.00">6</text>
</g>
<!-- /dev/random&#45;&gt;python2.7 -->
<g id="edge7" class="edge"><title>/dev/random&#45;&gt;python2.7</title>
<path fill="none" stroke="black" d="M363.225,-280.809C281.213,-276.726 181.149,-265.764 151.3,-237 141.359,-227.42 137.962,-212.664 137.221,-199.389"/>
<polygon fill="black" stroke="black" points="140.719,-199.153 137.122,-189.188 133.72,-199.221 140.719,-199.153"/>
<text text-anchor="middle" x="196.8" y="-225.8" font-family="Times New Roman,serif" font-size="14.00">EVENT_READ</text>
<text text-anchor="middle" x="196.8" y="-210.8" font-family="Times New Roman,serif" font-size="14.00">198</text>
</g>
<!-- /dev/random&#45;&gt;sh -->
<g id="edge6" class="edge"><title>/dev/random&#45;&gt;sh</title>
<path fill="none" stroke="black" d="M543.704,-259.249C553.961,-253.22 563.694,-245.868 571.3,-237 580.418,-226.37 585.776,-211.878 588.915,-199.048"/>
<polygon fill="black" stroke="black" points="592.349,-199.726 590.987,-189.219 585.5,-198.282 592.349,-199.726"/>
<text text-anchor="middle" x="632.8" y="-225.8" font-family="Times New Roman,serif" font-size="14.00">EVENT_READ</text>
<text text-anchor="middle" x="632.8" y="-210.8" font-family="Times New Roman,serif" font-size="14.00">331</text>
</g>
<!-- inetd -->
<g id="node7" class="node"><title>inetd</title>
<polygon fill="none" stroke="black" points="477.3,-189 401.3,-189 401.3,-148 477.3,-148 477.3,-189"/>
<text text-anchor="middle" x="439.3" y="-161" font-family="Times New Roman,serif" font-size="30.00">inetd</text>
</g>
<!-- /dev/random&#45;&gt;inetd -->
<g id="edge8" class="edge"><title>/dev/random&#45;&gt;inetd</title>
<path fill="none" stroke="black" d="M370.517,-273.72C320.742,-267.013 269.595,-255.721 254.3,-237 215.185,-189.124 323.631,-175.205 390.693,-171.158"/>
<polygon fill="black" stroke="black" points="391.278,-174.631 401.072,-170.59 390.896,-167.642 391.278,-174.631"/>
<text text-anchor="middle" x="299.8" y="-225.8" font-family="Times New Roman,serif" font-size="14.00">EVENT_READ</text>
<text text-anchor="middle" x="299.8" y="-210.8" font-family="Times New Roman,serif" font-size="14.00">1</text>
</g>
<!-- inetd&#45;&gt;/dev/random -->
<g id="edge10" class="edge"><title>inetd&#45;&gt;/dev/random</title>
<path fill="none" stroke="black" d="M401.101,-180.664C388.403,-186.395 375.64,-194.822 368.3,-207 361.417,-218.419 360.875,-225.925 368.3,-237 373.918,-245.381 381.367,-252.235 389.763,-257.842"/>
<polygon fill="black" stroke="black" points="388.064,-260.904 398.441,-263.043 391.663,-254.9 388.064,-260.904"/>
<text text-anchor="middle" x="413.3" y="-225.8" font-family="Times New Roman,serif" font-size="14.00">EVENT_OPEN</text>
<text text-anchor="middle" x="413.3" y="-210.8" font-family="Times New Roman,serif" font-size="14.00">1</text>
</g>
<!-- 53.158.101.118 -->
<g id="node8" class="node"><title>53.158.101.118</title>
<polygon fill="none" stroke="red" points="754.3,-82 550.3,-41 754.3,-7.10543e-015 958.3,-41 754.3,-82"/>
<text text-anchor="middle" x="754.3" y="-33.5" font-family="Times New Roman,serif" font-size="30.00">53.158.101.118</text>
</g>
<!-- inetd&#45;&gt;53.158.101.118 -->
<g id="edge9" class="edge"><title>inetd&#45;&gt;53.158.101.118</title>
<path fill="none" stroke="black" d="M477.61,-152.237C527.126,-132.509 614.492,-97.7013 677.83,-72.4665"/>
<polygon fill="black" stroke="black" points="679.392,-75.612 687.386,-68.6593 676.801,-69.1091 679.392,-75.612"/>
<text text-anchor="middle" x="660.8" y="-118.8" font-family="Times New Roman,serif" font-size="14.00">EVENT_SENDTO</text>
<text text-anchor="middle" x="660.8" y="-103.8" font-family="Times New Roman,serif" font-size="14.00">2</text>
</g>
<!-- /bin/dd -->
<g id="node9" class="node"><title>/bin/dd</title>
<ellipse fill="none" stroke="black" cx="707.3" cy="-283.991" rx="71.3357" ry="28.9828"/>
<text text-anchor="middle" x="707.3" y="-276.491" font-family="Times New Roman,serif" font-size="30.00">/bin/dd</text>
</g>
<!-- /bin/dd&#45;&gt;sh -->
<g id="edge11" class="edge"><title>/bin/dd&#45;&gt;sh</title>
<path fill="none" stroke="black" d="M703.839,-254.797C700.602,-239.067 694.352,-220.069 682.3,-207 668.712,-192.266 648.409,-183.115 630.623,-177.546"/>
<polygon fill="black" stroke="black" points="631.089,-174.04 620.513,-174.666 629.171,-180.772 631.089,-174.04"/>
<text text-anchor="middle" x="757.3" y="-225.8" font-family="Times New Roman,serif" font-size="14.00">EVENT_EXECUTE</text>
<text text-anchor="middle" x="757.3" y="-210.8" font-family="Times New Roman,serif" font-size="14.00">332</text>
</g>
</g>
</svg>
