<?xml version="1.0" encoding="UTF-8" standalone="no"?>
<!DOCTYPE svg PUBLIC "-//W3C//DTD SVG 1.1//EN"
 "http://www.w3.org/Graphics/SVG/1.1/DTD/svg11.dtd">
<!-- Generated by graphviz version 2.38.0 (20140413.2041)
 -->
<!-- Title: %3 Pages: 1 -->
<svg width="2766pt" height="345pt"
 viewBox="0.00 0.00 2765.60 345.00" xmlns="http://www.w3.org/2000/svg" xmlns:xlink="http://www.w3.org/1999/xlink">
<g id="graph0" class="graph" transform="scale(1 1) rotate(0) translate(4 341)">
<title>%3</title>
<polygon fill="white" stroke="none" points="-4,4 -4,-341 2761.6,-341 2761.6,4 -4,4"/>
<!-- 127.0.0.1 -->
<g id="node1" class="node"><title>127.0.0.1</title>
<polygon fill="none" stroke="black" points="310,-337 181,-296 310,-255 439,-296 310,-337"/>
<text text-anchor="middle" x="310" y="-288.5" font-family="Times New Roman,serif" font-size="30.00">127.0.0.1</text>
</g>
<!-- nginx -->
<g id="node2" class="node"><title>nginx</title>
<polygon fill="none" stroke="black" points="352,-189 268,-189 268,-148 352,-148 352,-189"/>
<text text-anchor="middle" x="310" y="-161" font-family="Times New Roman,serif" font-size="30.00">nginx</text>
</g>
<!-- 127.0.0.1&#45;&gt;nginx -->
<g id="edge1" class="edge"><title>127.0.0.1&#45;&gt;nginx</title>
<path fill="none" stroke="black" d="M264.408,-269.368C240.892,-252.663 219.825,-229.801 234,-207 239.888,-197.529 248.952,-190.379 258.795,-185.006"/>
<polygon fill="black" stroke="black" points="260.51,-188.064 267.984,-180.555 257.459,-181.764 260.51,-188.064"/>
<text text-anchor="middle" x="299.5" y="-225.8" font-family="Times New Roman,serif" font-size="14.00">EVENT_RECVFROM</text>
<text text-anchor="middle" x="299.5" y="-210.8" font-family="Times New Roman,serif" font-size="14.00">52</text>
</g>
<!-- nginx&#45;&gt;127.0.0.1 -->
<g id="edge3" class="edge"><title>nginx&#45;&gt;127.0.0.1</title>
<path fill="none" stroke="black" d="M349.203,-189.01C355.561,-193.976 361.274,-199.95 365,-207 371.23,-218.788 369.939,-224.615 365,-237 362,-244.523 357.51,-251.629 352.365,-258.119"/>
<polygon fill="black" stroke="black" points="349.45,-256.14 345.56,-265.995 354.746,-260.716 349.45,-256.14"/>
<text text-anchor="middle" x="419" y="-225.8" font-family="Times New Roman,serif" font-size="14.00">EVENT_WRITE</text>
<text text-anchor="middle" x="419" y="-210.8" font-family="Times New Roman,serif" font-size="14.00">52</text>
</g>
<!-- 128.55.12.122 -->
<g id="node3" class="node"><title>128.55.12.122</title>
<polygon fill="none" stroke="black" points="189,-82 2.84217e-014,-41 189,-7.10543e-015 378,-41 189,-82"/>
<text text-anchor="middle" x="189" y="-33.5" font-family="Times New Roman,serif" font-size="30.00">128.55.12.122</text>
</g>
<!-- nginx&#45;&gt;128.55.12.122 -->
<g id="edge2" class="edge"><title>nginx&#45;&gt;128.55.12.122</title>
<path fill="none" stroke="black" d="M267.888,-166.276C240.961,-163.044 207.849,-153.991 190,-130 181.634,-118.755 179.135,-104.269 179.373,-90.3092"/>
<polygon fill="black" stroke="black" points="182.869,-90.4859 179.985,-80.291 175.882,-90.0589 182.869,-90.4859"/>
<text text-anchor="middle" x="239" y="-118.8" font-family="Times New Roman,serif" font-size="14.00">EVENT_WRITE</text>
<text text-anchor="middle" x="239" y="-103.8" font-family="Times New Roman,serif" font-size="14.00">50</text>
</g>
<!-- 81.49.200.166 -->
<g id="node4" class="node"><title>81.49.200.166</title>
<polygon fill="none" stroke="black" points="585,-82 396,-41 585,-7.10543e-015 774,-41 585,-82"/>
<text text-anchor="middle" x="585" y="-33.5" font-family="Times New Roman,serif" font-size="30.00">81.49.200.166</text>
</g>
<!-- nginx&#45;&gt;81.49.200.166 -->
<g id="edge4" class="edge"><title>nginx&#45;&gt;81.49.200.166</title>
<path fill="none" stroke="black" d="M352.198,-161.205C378.4,-155.879 411.931,-146.398 438,-130 453.184,-120.449 450.656,-110.772 465,-100 478.843,-89.6045 494.844,-80.3314 510.56,-72.4125"/>
<polygon fill="black" stroke="black" points="512.319,-75.4485 519.761,-67.9082 509.241,-69.1613 512.319,-75.4485"/>
<text text-anchor="middle" x="514" y="-118.8" font-family="Times New Roman,serif" font-size="14.00">EVENT_WRITE</text>
<text text-anchor="middle" x="514" y="-103.8" font-family="Times New Roman,serif" font-size="14.00">2</text>
</g>
<!-- 78.205.235.65 -->
<g id="node5" class="node"><title>78.205.235.65</title>
<polygon fill="none" stroke="red" points="981,-82 792,-41 981,-7.10543e-015 1170,-41 981,-82"/>
<text text-anchor="middle" x="981" y="-33.5" font-family="Times New Roman,serif" font-size="30.00">78.205.235.65</text>
</g>
<!-- nginx&#45;&gt;78.205.235.65 -->
<g id="edge9" class="edge"><title>nginx&#45;&gt;78.205.235.65</title>
<path fill="none" stroke="black" d="M352.16,-167.637C426.662,-166.992 586.005,-161.623 716,-130 750.483,-121.611 756.543,-111.835 790,-100 822.569,-88.4796 858.736,-77.1365 890.759,-67.5796"/>
<polygon fill="black" stroke="black" points="891.964,-70.8728 900.556,-64.6727 889.973,-64.1619 891.964,-70.8728"/>
<text text-anchor="middle" x="850" y="-118.8" font-family="Times New Roman,serif" font-size="14.00">EVENT_CONNECT</text>
<text text-anchor="middle" x="850" y="-103.8" font-family="Times New Roman,serif" font-size="14.00">2</text>
</g>
<!-- 200.36.109.214 -->
<g id="node6" class="node"><title>200.36.109.214</title>
<polygon fill="none" stroke="red" points="1392,-82 1188,-41 1392,-7.10543e-015 1596,-41 1392,-82"/>
<text text-anchor="middle" x="1392" y="-33.5" font-family="Times New Roman,serif" font-size="30.00">200.36.109.214</text>
</g>
<!-- nginx&#45;&gt;200.36.109.214 -->
<g id="edge5" class="edge"><title>nginx&#45;&gt;200.36.109.214</title>
<path fill="none" stroke="black" d="M352.088,-166.911C491.788,-164.726 939.272,-155.837 1081,-130 1123.73,-122.211 1132.33,-112.254 1174,-100 1213.06,-88.5123 1256.35,-76.7898 1293.99,-66.9178"/>
<polygon fill="black" stroke="black" points="1295.14,-70.2326 1303.93,-64.317 1293.37,-63.4602 1295.14,-70.2326"/>
<text text-anchor="middle" x="1228.5" y="-118.8" font-family="Times New Roman,serif" font-size="14.00">EVENT_SENDTO</text>
<text text-anchor="middle" x="1228.5" y="-103.8" font-family="Times New Roman,serif" font-size="14.00">2</text>
</g>
<!-- /tmp/vUgefal -->
<g id="node7" class="node"><title>/tmp/vUgefal</title>
<ellipse fill="none" stroke="red" cx="1737" cy="-41" rx="123.073" ry="28.9828"/>
<text text-anchor="middle" x="1737" y="-33.5" font-family="Times New Roman,serif" font-size="30.00">/tmp/vUgefal</text>
</g>
<!-- nginx&#45;&gt;/tmp/vUgefal -->
<g id="edge6" class="edge"><title>nginx&#45;&gt;/tmp/vUgefal</title>
<path fill="none" stroke="black" d="M352.059,-167.731C533.16,-168.481 1247.24,-168.865 1468,-130 1538.3,-117.623 1615.44,-90.9535 1669.02,-70.1994"/>
<polygon fill="black" stroke="black" points="1670.37,-73.4299 1678.41,-66.5295 1667.82,-66.9103 1670.37,-73.4299"/>
<text text-anchor="middle" x="1633.5" y="-118.8" font-family="Times New Roman,serif" font-size="14.00">EVENT_UNLINK</text>
<text text-anchor="middle" x="1633.5" y="-103.8" font-family="Times New Roman,serif" font-size="14.00">3</text>
</g>
<!-- /var/log/nginx&#45;access.log -->
<g id="node8" class="node"><title>/var/log/nginx&#45;access.log</title>
<ellipse fill="none" stroke="black" cx="2100" cy="-41" rx="222.063" ry="28.9828"/>
<text text-anchor="middle" x="2100" y="-33.5" font-family="Times New Roman,serif" font-size="30.00">/var/log/nginx&#45;access.log</text>
</g>
<!-- nginx&#45;&gt;/var/log/nginx&#45;access.log -->
<g id="edge7" class="edge"><title>nginx&#45;&gt;/var/log/nginx&#45;access.log</title>
<path fill="none" stroke="black" d="M352.001,-167.402C553.385,-166.77 1421.39,-162.197 1690,-130 1795.41,-117.365 1913.76,-90.5716 1996.11,-69.8489"/>
<polygon fill="black" stroke="black" points="1997.14,-73.1998 2005.97,-67.3532 1995.42,-66.4138 1997.14,-73.1998"/>
<text text-anchor="middle" x="1909" y="-118.8" font-family="Times New Roman,serif" font-size="14.00">EVENT_WRITE</text>
<text text-anchor="middle" x="1909" y="-103.8" font-family="Times New Roman,serif" font-size="14.00">1</text>
</g>
<!-- /var/log/nginx&#45;error.log -->
<g id="node9" class="node"><title>/var/log/nginx&#45;error.log</title>
<ellipse fill="none" stroke="black" cx="2549" cy="-41" rx="208.693" ry="28.9828"/>
<text text-anchor="middle" x="2549" y="-33.5" font-family="Times New Roman,serif" font-size="30.00">/var/log/nginx&#45;error.log</text>
</g>
<!-- nginx&#45;&gt;/var/log/nginx&#45;error.log -->
<g id="edge8" class="edge"><title>nginx&#45;&gt;/var/log/nginx&#45;error.log</title>
<path fill="none" stroke="black" d="M352.148,-167.153C576.804,-165.213 1635.37,-154.88 1962,-130 2121.03,-117.886 2302.33,-88.254 2420.84,-66.714"/>
<polygon fill="black" stroke="black" points="2421.47,-70.156 2430.68,-64.9171 2420.22,-63.2697 2421.47,-70.156"/>
<text text-anchor="middle" x="2253" y="-118.8" font-family="Times New Roman,serif" font-size="14.00">EVENT_WRITE</text>
<text text-anchor="middle" x="2253" y="-103.8" font-family="Times New Roman,serif" font-size="14.00">1</text>
</g>
<!-- 128.55.12.122&#45;&gt;nginx -->
<g id="edge10" class="edge"><title>128.55.12.122&#45;&gt;nginx</title>
<path fill="none" stroke="black" d="M250.609,-68.7925C264.421,-77.1408 277.942,-87.5106 288,-100 296.784,-110.908 302.104,-125.43 305.305,-138.21"/>
<polygon fill="black" stroke="black" points="301.887,-138.962 307.444,-147.983 308.725,-137.466 301.887,-138.962"/>
<text text-anchor="middle" x="368.5" y="-118.8" font-family="Times New Roman,serif" font-size="14.00">EVENT_RECVFROM</text>
<text text-anchor="middle" x="368.5" y="-103.8" font-family="Times New Roman,serif" font-size="14.00">50</text>
</g>
<!-- 81.49.200.166&#45;&gt;nginx -->
<g id="edge11" class="edge"><title>81.49.200.166&#45;&gt;nginx</title>
<path fill="none" stroke="black" d="M584.479,-82.0595C582.117,-99.1718 576.3,-117.941 563,-130 534.351,-155.975 427.563,-163.964 362.231,-166.417"/>
<polygon fill="black" stroke="black" points="361.993,-162.923 352.119,-166.765 362.234,-169.919 361.993,-162.923"/>
<text text-anchor="middle" x="646.5" y="-118.8" font-family="Times New Roman,serif" font-size="14.00">EVENT_RECVFROM</text>
<text text-anchor="middle" x="646.5" y="-103.8" font-family="Times New Roman,serif" font-size="14.00">2</text>
</g>
<!-- 78.205.235.65&#45;&gt;nginx -->
<g id="edge12" class="edge"><title>78.205.235.65&#45;&gt;nginx</title>
<path fill="none" stroke="black" d="M961.666,-78.2432C949.514,-97.1451 931.971,-118.64 910,-130 862.054,-154.789 499.826,-164.002 362.534,-166.625"/>
<polygon fill="black" stroke="black" points="362.204,-163.131 352.271,-166.817 362.335,-170.13 362.204,-163.131"/>
<text text-anchor="middle" x="1011.5" y="-118.8" font-family="Times New Roman,serif" font-size="14.00">EVENT_RECVFROM</text>
<text text-anchor="middle" x="1011.5" y="-103.8" font-family="Times New Roman,serif" font-size="14.00">2</text>
</g>
<!-- 200.36.109.214&#45;&gt;nginx -->
<g id="edge13" class="edge"><title>200.36.109.214&#45;&gt;nginx</title>
<path fill="none" stroke="black" d="M1361.21,-76.0021C1341.1,-95.6808 1313.06,-118.725 1283,-130 1196.78,-162.34 552.516,-166.795 362.561,-167.404"/>
<polygon fill="black" stroke="black" points="362.271,-163.905 352.281,-167.435 362.292,-170.905 362.271,-163.905"/>
<text text-anchor="middle" x="1398.5" y="-118.8" font-family="Times New Roman,serif" font-size="14.00">EVENT_RECVFROM</text>
<text text-anchor="middle" x="1398.5" y="-103.8" font-family="Times New Roman,serif" font-size="14.00">1</text>
</g>
</g>
</svg>
