<?xml version="1.0" encoding="UTF-8" standalone="no"?>
<!DOCTYPE svg PUBLIC "-//W3C//DTD SVG 1.1//EN"
 "http://www.w3.org/Graphics/SVG/1.1/DTD/svg11.dtd">
<!-- Generated by graphviz version 2.38.0 (20140413.2041)
 -->
<!-- Title: %3 Pages: 1 -->
<svg width="2034pt" height="635pt"
 viewBox="0.00 0.00 2033.94 634.95" xmlns="http://www.w3.org/2000/svg" xmlns:xlink="http://www.w3.org/1999/xlink">
<g id="graph0" class="graph" transform="scale(1 1) rotate(0) translate(4 630.948)">
<title>%3</title>
<polygon fill="white" stroke="none" points="-4,4 -4,-630.948 2029.94,-630.948 2029.94,4 -4,4"/>
<!-- sh -->
<g id="node1" class="node"><title>sh</title>
<polygon fill="none" stroke="black" points="1522.43,-626.948 1468.43,-626.948 1468.43,-585.948 1522.43,-585.948 1522.43,-626.948"/>
<text text-anchor="middle" x="1495.43" y="-598.948" font-family="Times New Roman,serif" font-size="30.00">sh</text>
</g>
<!-- /dev/ttyv0 -->
<g id="node2" class="node"><title>/dev/ttyv0</title>
<ellipse fill="none" stroke="black" cx="1495.43" cy="-490.957" rx="94.5053" ry="28.9828"/>
<text text-anchor="middle" x="1495.43" y="-483.457" font-family="Times New Roman,serif" font-size="30.00">/dev/ttyv0</text>
</g>
<!-- sh&#45;&gt;/dev/ttyv0 -->
<g id="edge1" class="edge"><title>sh&#45;&gt;/dev/ttyv0</title>
<path fill="none" stroke="black" d="M1468.29,-605.574C1439.92,-604.067 1396.64,-596.789 1375.43,-567.948 1358.02,-544.26 1382.85,-526.153 1414.36,-513.567"/>
<polygon fill="black" stroke="black" points="1415.73,-516.794 1423.86,-510.001 1413.26,-510.242 1415.73,-516.794"/>
<text text-anchor="middle" x="1424.43" y="-556.748" font-family="Times New Roman,serif" font-size="14.00">EVENT_WRITE</text>
<text text-anchor="middle" x="1424.43" y="-541.748" font-family="Times New Roman,serif" font-size="14.00">1</text>
</g>
<!-- /dev/ttyv0&#45;&gt;sh -->
<g id="edge2" class="edge"><title>/dev/ttyv0&#45;&gt;sh</title>
<path fill="none" stroke="black" d="M1495.43,-520.131C1495.43,-537.092 1495.43,-558.661 1495.43,-575.868"/>
<polygon fill="black" stroke="black" points="1491.93,-575.938 1495.43,-585.938 1498.93,-575.938 1491.93,-575.938"/>
<text text-anchor="middle" x="1540.93" y="-556.748" font-family="Times New Roman,serif" font-size="14.00">EVENT_READ</text>
<text text-anchor="middle" x="1540.93" y="-541.748" font-family="Times New Roman,serif" font-size="14.00">2</text>
</g>
<!-- login -->
<g id="node8" class="node"><title>login</title>
<polygon fill="none" stroke="red" points="1533.93,-395.966 1456.93,-395.966 1456.93,-354.966 1533.93,-354.966 1533.93,-395.966"/>
<text text-anchor="middle" x="1495.43" y="-367.966" font-family="Times New Roman,serif" font-size="30.00">login</text>
</g>
<!-- /dev/ttyv0&#45;&gt;login -->
<g id="edge3" class="edge"><title>/dev/ttyv0&#45;&gt;login</title>
<path fill="none" stroke="black" d="M1419.43,-473.396C1404.85,-466.677 1391.36,-457.234 1382.43,-443.966 1374.99,-432.902 1374.63,-424.777 1382.43,-413.966 1397.08,-393.672 1423.15,-384.186 1446.56,-379.824"/>
<polygon fill="black" stroke="black" points="1447.41,-383.233 1456.74,-378.206 1446.31,-376.32 1447.41,-383.233"/>
<text text-anchor="middle" x="1427.93" y="-432.766" font-family="Times New Roman,serif" font-size="14.00">EVENT_READ</text>
<text text-anchor="middle" x="1427.93" y="-417.766" font-family="Times New Roman,serif" font-size="14.00">1</text>
</g>
<!-- sshd -->
<g id="node3" class="node"><title>sshd</title>
<polygon fill="none" stroke="black" points="1197.93,-164.983 1126.93,-164.983 1126.93,-123.983 1197.93,-123.983 1197.93,-164.983"/>
<text text-anchor="middle" x="1162.43" y="-136.983" font-family="Times New Roman,serif" font-size="30.00">sshd</text>
</g>
<!-- /home/darpa/.shrc -->
<g id="node4" class="node"><title>/home/darpa/.shrc</title>
<ellipse fill="none" stroke="black" cx="1276.43" cy="-259.974" rx="162.769" ry="28.9828"/>
<text text-anchor="middle" x="1276.43" y="-252.474" font-family="Times New Roman,serif" font-size="30.00">/home/darpa/.shrc</text>
</g>
<!-- sshd&#45;&gt;/home/darpa/.shrc -->
<g id="edge4" class="edge"><title>sshd&#45;&gt;/home/darpa/.shrc</title>
<path fill="none" stroke="black" d="M1198.26,-152.175C1217.38,-157.492 1239.9,-166.828 1254.43,-182.983 1263.8,-193.396 1269.2,-207.575 1272.3,-220.866"/>
<polygon fill="black" stroke="black" points="1268.89,-221.644 1274.25,-230.779 1275.76,-220.292 1268.89,-221.644"/>
<text text-anchor="middle" x="1315.43" y="-201.783" font-family="Times New Roman,serif" font-size="14.00">EVENT_OPEN</text>
<text text-anchor="middle" x="1315.43" y="-186.783" font-family="Times New Roman,serif" font-size="14.00">2</text>
</g>
<!-- /home/darpa/.profile -->
<g id="node5" class="node"><title>/home/darpa/.profile</title>
<ellipse fill="none" stroke="black" cx="182.434" cy="-28.9914" rx="182.367" ry="28.9828"/>
<text text-anchor="middle" x="182.434" y="-21.4914" font-family="Times New Roman,serif" font-size="30.00">/home/darpa/.profile</text>
</g>
<!-- sshd&#45;&gt;/home/darpa/.profile -->
<g id="edge5" class="edge"><title>sshd&#45;&gt;/home/darpa/.profile</title>
<path fill="none" stroke="black" d="M1126.85,-141.109C1051.67,-135.953 871.209,-122.825 720.434,-105.983 566.143,-88.7477 528.137,-79.848 374.434,-57.9828 357.916,-55.633 340.602,-53.1446 323.42,-50.6593"/>
<polygon fill="black" stroke="black" points="323.723,-47.1669 313.325,-49.1975 322.72,-54.0946 323.723,-47.1669"/>
<text text-anchor="middle" x="765.434" y="-94.7828" font-family="Times New Roman,serif" font-size="14.00">EVENT_OPEN</text>
<text text-anchor="middle" x="765.434" y="-79.7828" font-family="Times New Roman,serif" font-size="14.00">2</text>
</g>
<!-- /home/darpa/.login_conf -->
<g id="node6" class="node"><title>/home/darpa/.login_conf</title>
<ellipse fill="none" stroke="black" cx="1609.43" cy="-28.9914" rx="217.578" ry="28.9828"/>
<text text-anchor="middle" x="1609.43" y="-21.4914" font-family="Times New Roman,serif" font-size="30.00">/home/darpa/.login_conf</text>
</g>
<!-- sshd&#45;&gt;/home/darpa/.login_conf -->
<g id="edge6" class="edge"><title>sshd&#45;&gt;/home/darpa/.login_conf</title>
<path fill="none" stroke="black" d="M1184.43,-123.754C1203.22,-108.084 1231.7,-87.0305 1260.43,-75.9828 1265.12,-74.1826 1356.82,-62.1283 1445.04,-50.8131"/>
<polygon fill="black" stroke="black" points="1445.75,-54.2514 1455.22,-49.5087 1444.86,-47.3082 1445.75,-54.2514"/>
<text text-anchor="middle" x="1308.43" y="-94.7828" font-family="Times New Roman,serif" font-size="14.00">EVENT_OPEN</text>
<text text-anchor="middle" x="1308.43" y="-79.7828" font-family="Times New Roman,serif" font-size="14.00">3</text>
</g>
<!-- /etc/motd -->
<g id="node7" class="node"><title>/etc/motd</title>
<ellipse fill="none" stroke="black" cx="1935.43" cy="-28.9914" rx="90.5193" ry="28.9828"/>
<text text-anchor="middle" x="1935.43" y="-21.4914" font-family="Times New Roman,serif" font-size="30.00">/etc/motd</text>
</g>
<!-- sshd&#45;&gt;/etc/motd -->
<g id="edge7" class="edge"><title>sshd&#45;&gt;/etc/motd</title>
<path fill="none" stroke="black" d="M1198.1,-137.401C1274.79,-124.5 1461.21,-94.0905 1618.43,-75.9828 1715.01,-64.8591 1740.77,-75.2888 1836.43,-57.9828 1844.93,-56.4465 1853.74,-54.4931 1862.45,-52.3347"/>
<polygon fill="black" stroke="black" points="1863.4,-55.7029 1872.22,-49.8219 1861.66,-48.9236 1863.4,-55.7029"/>
<text text-anchor="middle" x="1669.43" y="-94.7828" font-family="Times New Roman,serif" font-size="14.00">EVENT_OPEN</text>
<text text-anchor="middle" x="1669.43" y="-79.7828" font-family="Times New Roman,serif" font-size="14.00">2</text>
</g>
<!-- /tmp/ssh&#45;eatE02ke1c/agent.36875 -->
<g id="node10" class="node"><title>/tmp/ssh&#45;eatE02ke1c/agent.36875</title>
<ellipse fill="none" stroke="black" cx="1075.43" cy="-28.9914" rx="298.298" ry="28.9828"/>
<text text-anchor="middle" x="1075.43" y="-21.4914" font-family="Times New Roman,serif" font-size="30.00">/tmp/ssh&#45;eatE02ke1c/agent.36875</text>
</g>
<!-- sshd&#45;&gt;/tmp/ssh&#45;eatE02ke1c/agent.36875 -->
<g id="edge8" class="edge"><title>sshd&#45;&gt;/tmp/ssh&#45;eatE02ke1c/agent.36875</title>
<path fill="none" stroke="black" d="M1126.86,-130.243C1115.36,-124.389 1103.51,-116.417 1095.43,-105.983 1087.06,-95.1739 1082.18,-81.183 1079.34,-68.1574"/>
<polygon fill="black" stroke="black" points="1082.72,-67.1989 1077.47,-57.9974 1075.84,-68.4657 1082.72,-67.1989"/>
<text text-anchor="middle" x="1147.93" y="-94.7828" font-family="Times New Roman,serif" font-size="14.00">EVENT_UNLINK</text>
<text text-anchor="middle" x="1147.93" y="-79.7828" font-family="Times New Roman,serif" font-size="14.00">1</text>
</g>
<!-- /tmp/ssh&#45;eatE02ke1c -->
<g id="node11" class="node"><title>/tmp/ssh&#45;eatE02ke1c</title>
<ellipse fill="none" stroke="black" cx="571.434" cy="-28.9914" rx="188.181" ry="28.9828"/>
<text text-anchor="middle" x="571.434" y="-21.4914" font-family="Times New Roman,serif" font-size="30.00">/tmp/ssh&#45;eatE02ke1c</text>
</g>
<!-- sshd&#45;&gt;/tmp/ssh&#45;eatE02ke1c -->
<g id="edge9" class="edge"><title>sshd&#45;&gt;/tmp/ssh&#45;eatE02ke1c</title>
<path fill="none" stroke="black" d="M1126.79,-136.639C1043.53,-120.649 832.944,-80.2101 696.338,-53.9772"/>
<polygon fill="black" stroke="black" points="696.705,-50.4838 686.225,-52.0351 695.385,-57.3582 696.705,-50.4838"/>
<text text-anchor="middle" x="1006.93" y="-94.7828" font-family="Times New Roman,serif" font-size="14.00">EVENT_UNLINK</text>
<text text-anchor="middle" x="1006.93" y="-79.7828" font-family="Times New Roman,serif" font-size="14.00">1</text>
</g>
<!-- /home/darpa/.shrc&#45;&gt;sshd -->
<g id="edge10" class="edge"><title>/home/darpa/.shrc&#45;&gt;sshd</title>
<path fill="none" stroke="black" d="M1184.41,-235.943C1174.61,-229.971 1165.89,-222.452 1159.43,-212.983 1152.05,-202.153 1151.69,-187.92 1153.62,-175.317"/>
<polygon fill="black" stroke="black" points="1157.11,-175.722 1155.67,-165.225 1150.25,-174.324 1157.11,-175.722"/>
<text text-anchor="middle" x="1204.93" y="-201.783" font-family="Times New Roman,serif" font-size="14.00">EVENT_READ</text>
<text text-anchor="middle" x="1204.93" y="-186.783" font-family="Times New Roman,serif" font-size="14.00">2</text>
</g>
<!-- /home/darpa/.shrc&#45;&gt;login -->
<g id="edge11" class="edge"><title>/home/darpa/.shrc&#45;&gt;login</title>
<path fill="none" stroke="black" d="M1268.77,-288.968C1266.21,-304.828 1266.38,-324.022 1277.43,-336.966 1298.74,-361.915 1388.72,-370.265 1446.21,-373.06"/>
<polygon fill="black" stroke="black" points="1446.4,-376.571 1456.54,-373.52 1446.71,-369.578 1446.4,-376.571"/>
<text text-anchor="middle" x="1322.93" y="-325.766" font-family="Times New Roman,serif" font-size="14.00">EVENT_READ</text>
<text text-anchor="middle" x="1322.93" y="-310.766" font-family="Times New Roman,serif" font-size="14.00">1</text>
</g>
<!-- /home/darpa/.profile&#45;&gt;sshd -->
<g id="edge13" class="edge"><title>/home/darpa/.profile&#45;&gt;sshd</title>
<path fill="none" stroke="black" d="M258.811,-55.3925C278.291,-61.9882 299.168,-69.1591 318.434,-75.9828 354.621,-88.7998 361.824,-98.2841 399.434,-105.983 537.759,-134.297 973.805,-141.453 1116.64,-143.06"/>
<polygon fill="black" stroke="black" points="1116.76,-146.561 1126.8,-143.17 1116.84,-139.562 1116.76,-146.561"/>
<text text-anchor="middle" x="444.934" y="-94.7828" font-family="Times New Roman,serif" font-size="14.00">EVENT_READ</text>
<text text-anchor="middle" x="444.934" y="-79.7828" font-family="Times New Roman,serif" font-size="14.00">2</text>
</g>
<!-- /home/darpa/.profile&#45;&gt;login -->
<g id="edge12" class="edge"><title>/home/darpa/.profile&#45;&gt;login</title>
<path fill="none" stroke="black" d="M224.457,-57.3807C250.618,-73.4262 285.458,-93.0212 318.434,-105.983 721.231,-264.308 840.283,-250.894 1264.43,-336.966 1326.99,-349.661 1399.77,-360.898 1446.67,-367.685"/>
<polygon fill="black" stroke="black" points="1446.45,-371.19 1456.85,-369.148 1447.44,-364.261 1446.45,-371.19"/>
<text text-anchor="middle" x="672.934" y="-201.783" font-family="Times New Roman,serif" font-size="14.00">EVENT_READ</text>
<text text-anchor="middle" x="672.934" y="-186.783" font-family="Times New Roman,serif" font-size="14.00">1</text>
</g>
<!-- /home/darpa/.login_conf&#45;&gt;login -->
<g id="edge14" class="edge"><title>/home/darpa/.login_conf&#45;&gt;login</title>
<path fill="none" stroke="black" d="M1580.19,-57.7805C1552.57,-86.2065 1512.98,-133.157 1496.43,-182.983 1478.23,-237.775 1484.27,-306.351 1490.03,-344.792"/>
<polygon fill="black" stroke="black" points="1486.6,-345.476 1491.63,-354.799 1493.51,-344.372 1486.6,-345.476"/>
<text text-anchor="middle" x="1541.93" y="-201.783" font-family="Times New Roman,serif" font-size="14.00">EVENT_READ</text>
<text text-anchor="middle" x="1541.93" y="-186.783" font-family="Times New Roman,serif" font-size="14.00">1</text>
</g>
<!-- /etc/motd&#45;&gt;login -->
<g id="edge15" class="edge"><title>/etc/motd&#45;&gt;login</title>
<path fill="none" stroke="black" d="M1926.17,-58.1796C1904.22,-120.122 1842.77,-268.057 1736.43,-336.966 1705.53,-356.993 1605.36,-367.117 1544.32,-371.55"/>
<polygon fill="black" stroke="black" points="1543.87,-368.072 1534.14,-372.263 1544.36,-375.055 1543.87,-368.072"/>
<text text-anchor="middle" x="1914.93" y="-201.783" font-family="Times New Roman,serif" font-size="14.00">EVENT_READ</text>
<text text-anchor="middle" x="1914.93" y="-186.783" font-family="Times New Roman,serif" font-size="14.00">1</text>
</g>
<!-- login&#45;&gt;/dev/ttyv0 -->
<g id="edge16" class="edge"><title>login&#45;&gt;/dev/ttyv0</title>
<path fill="none" stroke="black" d="M1495.43,-396.016C1495.43,-411.339 1495.43,-433.13 1495.43,-451.868"/>
<polygon fill="black" stroke="black" points="1491.93,-451.903 1495.43,-461.903 1498.93,-451.903 1491.93,-451.903"/>
<text text-anchor="middle" x="1540.43" y="-432.766" font-family="Times New Roman,serif" font-size="14.00">EVENT_OPEN</text>
<text text-anchor="middle" x="1540.43" y="-417.766" font-family="Times New Roman,serif" font-size="14.00">2</text>
</g>
<!-- login&#45;&gt;/home/darpa/.shrc -->
<g id="edge19" class="edge"><title>login&#45;&gt;/home/darpa/.shrc</title>
<path fill="none" stroke="black" d="M1456.82,-366.181C1436.05,-360.4 1410.8,-351.127 1391.43,-336.966 1377.87,-327.048 1381.39,-317.662 1368.43,-306.966 1361.9,-301.573 1354.63,-296.599 1347.12,-292.075"/>
<polygon fill="black" stroke="black" points="1348.64,-288.911 1338.22,-286.972 1345.16,-294.983 1348.64,-288.911"/>
<text text-anchor="middle" x="1436.43" y="-325.766" font-family="Times New Roman,serif" font-size="14.00">EVENT_OPEN</text>
<text text-anchor="middle" x="1436.43" y="-310.766" font-family="Times New Roman,serif" font-size="14.00">1</text>
</g>
<!-- login&#45;&gt;/home/darpa/.profile -->
<g id="edge17" class="edge"><title>login&#45;&gt;/home/darpa/.profile</title>
<path fill="none" stroke="black" d="M1456.72,-371.107C1385.93,-364.895 1230.91,-350.966 1100.43,-336.966 802.37,-304.983 713.292,-330.314 437.434,-212.983 349.673,-175.655 325.721,-165.788 251.434,-105.983 236.813,-94.2126 222.543,-79.2639 210.81,-65.7447"/>
<polygon fill="black" stroke="black" points="213.356,-63.3357 204.211,-57.9848 208.023,-67.8703 213.356,-63.3357"/>
<text text-anchor="middle" x="482.434" y="-201.783" font-family="Times New Roman,serif" font-size="14.00">EVENT_OPEN</text>
<text text-anchor="middle" x="482.434" y="-186.783" font-family="Times New Roman,serif" font-size="14.00">1</text>
</g>
<!-- login&#45;&gt;/home/darpa/.login_conf -->
<g id="edge18" class="edge"><title>login&#45;&gt;/home/darpa/.login_conf</title>
<path fill="none" stroke="black" d="M1510.13,-354.802C1531.14,-325.564 1569.23,-268.136 1587.43,-212.983 1603.38,-164.654 1608.01,-105.745 1609.22,-68.0556"/>
<polygon fill="black" stroke="black" points="1612.72,-68.1013 1609.48,-58.0144 1605.72,-67.921 1612.72,-68.1013"/>
<text text-anchor="middle" x="1641.43" y="-201.783" font-family="Times New Roman,serif" font-size="14.00">EVENT_OPEN</text>
<text text-anchor="middle" x="1641.43" y="-186.783" font-family="Times New Roman,serif" font-size="14.00">1</text>
</g>
<!-- login&#45;&gt;/etc/motd -->
<g id="edge21" class="edge"><title>login&#45;&gt;/etc/motd</title>
<path fill="none" stroke="black" d="M1522.56,-354.785C1530.31,-349.089 1538.74,-342.827 1546.43,-336.966 1674.99,-239.02 1824.35,-119.515 1894.75,-62.8387"/>
<polygon fill="black" stroke="black" points="1897.35,-65.2428 1902.94,-56.2441 1892.96,-59.7913 1897.35,-65.2428"/>
<text text-anchor="middle" x="1789.43" y="-201.783" font-family="Times New Roman,serif" font-size="14.00">EVENT_OPEN</text>
<text text-anchor="middle" x="1789.43" y="-186.783" font-family="Times New Roman,serif" font-size="14.00">1</text>
</g>
<!-- /var/. -->
<g id="node9" class="node"><title>/var/.</title>
<ellipse fill="none" stroke="black" cx="1918.43" cy="-259.974" rx="55.3091" ry="28.9828"/>
<text text-anchor="middle" x="1918.43" y="-252.474" font-family="Times New Roman,serif" font-size="30.00">/var/.</text>
</g>
<!-- login&#45;&gt;/var/. -->
<g id="edge20" class="edge"><title>login&#45;&gt;/var/.</title>
<path fill="none" stroke="black" d="M1534.22,-373.805C1614.32,-371.888 1795.08,-364.546 1849.43,-336.966 1867.8,-327.645 1883.65,-311.248 1895.51,-296.065"/>
<polygon fill="black" stroke="black" points="1898.5,-297.914 1901.68,-287.808 1892.89,-293.725 1898.5,-297.914"/>
<text text-anchor="middle" x="1931.43" y="-325.766" font-family="Times New Roman,serif" font-size="14.00">EVENT_OPEN</text>
<text text-anchor="middle" x="1931.43" y="-310.766" font-family="Times New Roman,serif" font-size="14.00">1</text>
</g>
</g>
</svg>
