<?xml version="1.0" encoding="UTF-8" standalone="no"?>
<!DOCTYPE svg PUBLIC "-//W3C//DTD SVG 1.1//EN"
 "http://www.w3.org/Graphics/SVG/1.1/DTD/svg11.dtd">
<!-- Generated by graphviz version 2.38.0 (20140413.2041)
 -->
<!-- Title: %3 Pages: 1 -->
<svg width="334pt" height="173pt"
 viewBox="0.00 0.00 334.49 172.98" xmlns="http://www.w3.org/2000/svg" xmlns:xlink="http://www.w3.org/1999/xlink">
<g id="graph0" class="graph" transform="scale(1 1) rotate(0) translate(4 168.983)">
<title>%3</title>
<polygon fill="white" stroke="none" points="-4,4 -4,-168.983 330.492,-168.983 330.492,4 -4,4"/>
<!-- /tmp/tmux&#45;1002 -->
<g id="node1" class="node"><title>/tmp/tmux&#45;1002</title>
<ellipse fill="none" stroke="red" cx="148.492" cy="-135.991" rx="148.485" ry="28.9828"/>
<text text-anchor="middle" x="148.492" y="-128.491" font-family="Times New Roman,serif" font-size="30.00">/tmp/tmux&#45;1002</text>
</g>
<!-- sshd -->
<g id="node2" class="node"><title>sshd</title>
<polygon fill="none" stroke="black" points="114.992,-41 43.9924,-41 43.9924,-0 114.992,-0 114.992,-41"/>
<text text-anchor="middle" x="79.4924" y="-13" font-family="Times New Roman,serif" font-size="30.00">sshd</text>
</g>
<!-- /tmp/tmux&#45;1002&#45;&gt;sshd -->
<g id="edge1" class="edge"><title>/tmp/tmux&#45;1002&#45;&gt;sshd</title>
<path fill="none" stroke="black" d="M97.0972,-108.624C90.4533,-103.046 84.5581,-96.523 80.4924,-89 74.3726,-77.676 73.3197,-63.6447 74.1125,-51.3132"/>
<polygon fill="black" stroke="black" points="77.6294,-51.3382 75.2035,-41.0248 70.6685,-50.6 77.6294,-51.3382"/>
<text text-anchor="middle" x="138.492" y="-77.8" font-family="Times New Roman,serif" font-size="14.00">EVENT_EXECUTE</text>
<text text-anchor="middle" x="138.492" y="-62.8" font-family="Times New Roman,serif" font-size="14.00">1</text>
</g>
<!-- master -->
<g id="node3" class="node"><title>master</title>
<polygon fill="none" stroke="black" points="266.492,-41 170.492,-41 170.492,-0 266.492,-0 266.492,-41"/>
<text text-anchor="middle" x="218.492" y="-13" font-family="Times New Roman,serif" font-size="30.00">master</text>
</g>
<!-- /tmp/tmux&#45;1002&#45;&gt;master -->
<g id="edge2" class="edge"><title>/tmp/tmux&#45;1002&#45;&gt;master</title>
<path fill="none" stroke="black" d="M181.624,-107.508C187.131,-101.818 192.379,-95.5477 196.492,-89 203.715,-77.5032 208.795,-63.4025 212.24,-51.0674"/>
<polygon fill="black" stroke="black" points="215.672,-51.7726 214.759,-41.2172 208.89,-50.0379 215.672,-51.7726"/>
<text text-anchor="middle" x="268.492" y="-77.8" font-family="Times New Roman,serif" font-size="14.00">EVENT_EXECUTE</text>
<text text-anchor="middle" x="268.492" y="-62.8" font-family="Times New Roman,serif" font-size="14.00">1</text>
</g>
</g>
</svg>
