<?xml version="1.0" encoding="UTF-8" standalone="no"?>
<!DOCTYPE svg PUBLIC "-//W3C//DTD SVG 1.1//EN"
 "http://www.w3.org/Graphics/SVG/1.1/DTD/svg11.dtd">
<!-- Generated by graphviz version 2.38.0 (20140413.2041)
 -->
<!-- Title: %3 Pages: 1 -->
<svg width="6315pt" height="452pt"
 viewBox="0.00 0.00 6314.52 452.00" xmlns="http://www.w3.org/2000/svg" xmlns:xlink="http://www.w3.org/1999/xlink">
<g id="graph0" class="graph" transform="scale(1 1) rotate(0) translate(4 448)">
<title>%3</title>
<polygon fill="white" stroke="none" points="-4,4 -4,-448 6310.52,-448 6310.52,4 -4,4"/>
<!-- inetd -->
<g id="node1" class="node"><title>inetd</title>
<polygon fill="none" stroke="black" points="1051.71,-444 975.714,-444 975.714,-403 1051.71,-403 1051.71,-444"/>
<text text-anchor="middle" x="1013.71" y="-416" font-family="Times New Roman,serif" font-size="30.00">inetd</text>
</g>
<!-- /var/mail/bob -->
<g id="node2" class="node"><title>/var/mail/bob</title>
<ellipse fill="none" stroke="red" cx="5806.71" cy="-296" rx="124.402" ry="28.9828"/>
<text text-anchor="middle" x="5806.71" y="-288.5" font-family="Times New Roman,serif" font-size="30.00">/var/mail/bob</text>
</g>
<!-- inetd&#45;&gt;/var/mail/bob -->
<g id="edge1" class="edge"><title>inetd&#45;&gt;/var/mail/bob</title>
<path fill="none" stroke="black" d="M1051.76,-422.568C1332.63,-422.976 3113.85,-423.89 4561.71,-385 4565.58,-384.896 5669.9,-337.645 5673.71,-337 5692.35,-333.845 5712.05,-328.871 5730.41,-323.487"/>
<polygon fill="black" stroke="black" points="5731.6,-326.785 5740.17,-320.553 5729.58,-320.082 5731.6,-326.785"/>
<text text-anchor="middle" x="5293.71" y="-373.8" font-family="Times New Roman,serif" font-size="14.00">EVENT_OPEN</text>
<text text-anchor="middle" x="5293.71" y="-358.8" font-family="Times New Roman,serif" font-size="14.00">10</text>
</g>
<!-- 128.55.12.166 -->
<g id="node3" class="node"><title>128.55.12.166</title>
<polygon fill="none" stroke="black" points="3221.71,-337 3032.71,-296 3221.71,-255 3410.71,-296 3221.71,-337"/>
<text text-anchor="middle" x="3221.71" y="-288.5" font-family="Times New Roman,serif" font-size="30.00">128.55.12.166</text>
</g>
<!-- inetd&#45;&gt;128.55.12.166 -->
<g id="edge2" class="edge"><title>inetd&#45;&gt;128.55.12.166</title>
<path fill="none" stroke="black" d="M1051.88,-422.453C1276.45,-422.06 2418.1,-418.421 2483.71,-385 2498.68,-377.374 2491.78,-362.695 2506.71,-355 2557.81,-328.674 2966.63,-343.714 3023.71,-337 3056.4,-333.156 3091.73,-326.755 3123.37,-320.188"/>
<polygon fill="black" stroke="black" points="3124.44,-323.54 3133.51,-318.054 3123,-316.69 3124.44,-323.54"/>
<text text-anchor="middle" x="2555.71" y="-373.8" font-family="Times New Roman,serif" font-size="14.00">EVENT_WRITE</text>
<text text-anchor="middle" x="2555.71" y="-358.8" font-family="Times New Roman,serif" font-size="14.00">107</text>
</g>
<!-- /usr/local/etc/.* -->
<g id="node4" class="node"><title>/usr/local/etc/.*</title>
<ellipse fill="none" stroke="black" cx="140.714" cy="-296" rx="140.929" ry="28.9828"/>
<text text-anchor="middle" x="140.714" y="-288.5" font-family="Times New Roman,serif" font-size="30.00">/usr/local/etc/.*</text>
</g>
<!-- inetd&#45;&gt;/usr/local/etc/.* -->
<g id="edge3" class="edge"><title>inetd&#45;&gt;/usr/local/etc/.*</title>
<path fill="none" stroke="black" d="M975.588,-422.725C823.986,-423.353 268.798,-423.015 200.714,-385 180.688,-373.818 165.982,-352.812 156.142,-334.127"/>
<polygon fill="black" stroke="black" points="159.15,-332.315 151.569,-324.914 152.88,-335.427 159.15,-332.315"/>
<text text-anchor="middle" x="245.714" y="-373.8" font-family="Times New Roman,serif" font-size="14.00">EVENT_OPEN</text>
<text text-anchor="middle" x="245.714" y="-358.8" font-family="Times New Roman,serif" font-size="14.00">150</text>
</g>
<!-- /etc/pam.d/imap -->
<g id="node5" class="node"><title>/etc/pam.d/imap</title>
<ellipse fill="none" stroke="black" cx="446.714" cy="-296" rx="147.571" ry="28.9828"/>
<text text-anchor="middle" x="446.714" y="-288.5" font-family="Times New Roman,serif" font-size="30.00">/etc/pam.d/imap</text>
</g>
<!-- inetd&#45;&gt;/etc/pam.d/imap -->
<g id="edge4" class="edge"><title>inetd&#45;&gt;/etc/pam.d/imap</title>
<path fill="none" stroke="black" d="M975.311,-422.168C859.497,-420.843 519.191,-414.458 479.714,-385 464.009,-373.281 455.777,-353.19 451.462,-335.161"/>
<polygon fill="black" stroke="black" points="454.844,-334.232 449.396,-325.145 447.988,-335.645 454.844,-334.232"/>
<text text-anchor="middle" x="524.714" y="-373.8" font-family="Times New Roman,serif" font-size="14.00">EVENT_OPEN</text>
<text text-anchor="middle" x="524.714" y="-358.8" font-family="Times New Roman,serif" font-size="14.00">147</text>
</g>
<!-- 128.55.12.10 -->
<g id="node6" class="node"><title>128.55.12.10</title>
<polygon fill="none" stroke="black" points="786.714,-337 612.714,-296 786.714,-255 960.714,-296 786.714,-337"/>
<text text-anchor="middle" x="786.714" y="-288.5" font-family="Times New Roman,serif" font-size="30.00">128.55.12.10</text>
</g>
<!-- inetd&#45;&gt;128.55.12.10 -->
<g id="edge5" class="edge"><title>inetd&#45;&gt;128.55.12.10</title>
<path fill="none" stroke="black" d="M975.614,-420.441C899.511,-415.938 734.518,-404.066 717.714,-385 703.113,-368.432 715.11,-349.214 732.952,-332.971"/>
<polygon fill="black" stroke="black" points="735.55,-335.356 740.895,-326.208 731.012,-330.026 735.55,-335.356"/>
<text text-anchor="middle" x="777.714" y="-373.8" font-family="Times New Roman,serif" font-size="14.00">EVENT_CONNECT</text>
<text text-anchor="middle" x="777.714" y="-358.8" font-family="Times New Roman,serif" font-size="14.00">2</text>
</g>
<!-- /etc/pam.d/other -->
<g id="node7" class="node"><title>/etc/pam.d/other</title>
<ellipse fill="none" stroke="black" cx="1126.71" cy="-296" rx="147.571" ry="28.9828"/>
<text text-anchor="middle" x="1126.71" y="-288.5" font-family="Times New Roman,serif" font-size="30.00">/etc/pam.d/other</text>
</g>
<!-- inetd&#45;&gt;/etc/pam.d/other -->
<g id="edge6" class="edge"><title>inetd&#45;&gt;/etc/pam.d/other</title>
<path fill="none" stroke="black" d="M1008.97,-402.987C1006.62,-388.645 1005.9,-369.254 1014.71,-355 1021.9,-343.386 1032.23,-333.989 1043.74,-326.417"/>
<polygon fill="black" stroke="black" points="1045.58,-329.399 1052.31,-321.221 1041.95,-323.414 1045.58,-329.399"/>
<text text-anchor="middle" x="1059.71" y="-373.8" font-family="Times New Roman,serif" font-size="14.00">EVENT_OPEN</text>
<text text-anchor="middle" x="1059.71" y="-358.8" font-family="Times New Roman,serif" font-size="14.00">147</text>
</g>
<!-- /etc/hosts.allow -->
<g id="node8" class="node"><title>/etc/hosts.allow</title>
<ellipse fill="none" stroke="black" cx="1435.71" cy="-296" rx="142.671" ry="28.9828"/>
<text text-anchor="middle" x="1435.71" y="-288.5" font-family="Times New Roman,serif" font-size="30.00">/etc/hosts.allow</text>
</g>
<!-- inetd&#45;&gt;/etc/hosts.allow -->
<g id="edge7" class="edge"><title>inetd&#45;&gt;/etc/hosts.allow</title>
<path fill="none" stroke="black" d="M1051.72,-422.544C1094.06,-421.038 1163.32,-413.829 1214.71,-385 1230.36,-376.224 1226.56,-364.593 1241.71,-355 1258.38,-344.45 1297.73,-332.002 1336.66,-321.348"/>
<polygon fill="black" stroke="black" points="1337.79,-324.668 1346.53,-318.681 1335.97,-317.91 1337.79,-324.668"/>
<text text-anchor="middle" x="1286.71" y="-373.8" font-family="Times New Roman,serif" font-size="14.00">EVENT_OPEN</text>
<text text-anchor="middle" x="1286.71" y="-358.8" font-family="Times New Roman,serif" font-size="14.00">148</text>
</g>
<!-- /tmp/.31.* -->
<g id="node9" class="node"><title>/tmp/.31.*</title>
<ellipse fill="none" stroke="black" cx="1694.71" cy="-296" rx="98.0761" ry="28.9828"/>
<text text-anchor="middle" x="1694.71" y="-288.5" font-family="Times New Roman,serif" font-size="30.00">/tmp/.31.*</text>
</g>
<!-- inetd&#45;&gt;/tmp/.31.* -->
<g id="edge8" class="edge"><title>inetd&#45;&gt;/tmp/.31.*</title>
<path fill="none" stroke="black" d="M1051.95,-423.06C1144.61,-423.809 1378.47,-421.88 1445.71,-385 1460.45,-376.921 1454.25,-363.543 1468.71,-355 1514.77,-327.801 1535.94,-350.438 1587.71,-337 1601.67,-333.377 1616.34,-328.585 1630.18,-323.58"/>
<polygon fill="black" stroke="black" points="1631.44,-326.844 1639.61,-320.093 1629.01,-320.278 1631.44,-326.844"/>
<text text-anchor="middle" x="1513.71" y="-373.8" font-family="Times New Roman,serif" font-size="14.00">EVENT_OPEN</text>
<text text-anchor="middle" x="1513.71" y="-358.8" font-family="Times New Roman,serif" font-size="14.00">4</text>
</g>
<!-- 128.55.12.167 -->
<g id="node10" class="node"><title>128.55.12.167</title>
<polygon fill="none" stroke="black" points="1999.71,-337 1810.71,-296 1999.71,-255 2188.71,-296 1999.71,-337"/>
<text text-anchor="middle" x="1999.71" y="-288.5" font-family="Times New Roman,serif" font-size="30.00">128.55.12.167</text>
</g>
<!-- inetd&#45;&gt;128.55.12.167 -->
<g id="edge9" class="edge"><title>inetd&#45;&gt;128.55.12.167</title>
<path fill="none" stroke="black" d="M1052.02,-422.169C1184.47,-420.774 1617.89,-414.014 1672.71,-385 1687.56,-377.141 1681.33,-363.673 1695.71,-355 1736.64,-330.331 1754.73,-345.732 1801.71,-337 1832.23,-331.329 1865.3,-324.798 1895.53,-318.681"/>
<polygon fill="black" stroke="black" points="1896.56,-322.043 1905.66,-316.624 1895.16,-315.183 1896.56,-322.043"/>
<text text-anchor="middle" x="1744.71" y="-373.8" font-family="Times New Roman,serif" font-size="14.00">EVENT_WRITE</text>
<text text-anchor="middle" x="1744.71" y="-358.8" font-family="Times New Roman,serif" font-size="14.00">25</text>
</g>
<!-- /home/bob/.mailboxlist -->
<g id="node11" class="node"><title>/home/bob/.mailboxlist</title>
<ellipse fill="none" stroke="black" cx="2412.71" cy="-296" rx="206.45" ry="28.9828"/>
<text text-anchor="middle" x="2412.71" y="-288.5" font-family="Times New Roman,serif" font-size="30.00">/home/bob/.mailboxlist</text>
</g>
<!-- inetd&#45;&gt;/home/bob/.mailboxlist -->
<g id="edge18" class="edge"><title>inetd&#45;&gt;/home/bob/.mailboxlist</title>
<path fill="none" stroke="black" d="M1051.97,-422.79C1213.01,-423.758 1831.08,-424.828 1907.71,-385 1922.62,-377.252 1915.91,-362.937 1930.71,-355 1983.13,-326.907 2138.71,-344.451 2197.71,-337 2227.92,-333.185 2260.29,-327.836 2290.52,-322.288"/>
<polygon fill="black" stroke="black" points="2291.49,-325.668 2300.68,-320.4 2290.21,-318.785 2291.49,-325.668"/>
<text text-anchor="middle" x="1975.71" y="-373.8" font-family="Times New Roman,serif" font-size="14.00">EVENT_OPEN</text>
<text text-anchor="middle" x="1975.71" y="-358.8" font-family="Times New Roman,serif" font-size="14.00">1</text>
</g>
<!-- 128.55.12.118 -->
<g id="node12" class="node"><title>128.55.12.118</title>
<polygon fill="none" stroke="black" points="2825.71,-337 2636.71,-296 2825.71,-255 3014.71,-296 2825.71,-337"/>
<text text-anchor="middle" x="2825.71" y="-288.5" font-family="Times New Roman,serif" font-size="30.00">128.55.12.118</text>
</g>
<!-- inetd&#45;&gt;128.55.12.118 -->
<g id="edge10" class="edge"><title>inetd&#45;&gt;128.55.12.118</title>
<path fill="none" stroke="black" d="M1051.72,-422.138C1242.17,-420.211 2085.58,-410.273 2134.71,-385 2149.65,-377.315 2142.79,-362.721 2157.71,-355 2204.13,-330.983 2575.82,-343.194 2627.71,-337 2660.39,-333.099 2695.72,-326.683 2727.36,-320.12"/>
<polygon fill="black" stroke="black" points="2728.43,-323.471 2737.5,-317.987 2726.99,-316.621 2728.43,-323.471"/>
<text text-anchor="middle" x="2206.71" y="-373.8" font-family="Times New Roman,serif" font-size="14.00">EVENT_WRITE</text>
<text text-anchor="middle" x="2206.71" y="-358.8" font-family="Times New Roman,serif" font-size="14.00">5</text>
</g>
<!-- /home/henry/.* -->
<g id="node13" class="node"><title>/home/henry/.*</title>
<ellipse fill="none" stroke="black" cx="3565.71" cy="-296" rx="137.358" ry="28.9828"/>
<text text-anchor="middle" x="3565.71" y="-288.5" font-family="Times New Roman,serif" font-size="30.00">/home/henry/.*</text>
</g>
<!-- inetd&#45;&gt;/home/henry/.* -->
<g id="edge15" class="edge"><title>inetd&#45;&gt;/home/henry/.*</title>
<path fill="none" stroke="black" d="M1051.92,-422.53C1287.34,-422.601 2533.36,-421.258 2604.71,-385 2619.69,-377.389 2612.73,-362.605 2627.71,-355 2666.96,-335.079 3376.17,-343.362 3419.71,-337 3440.5,-333.964 3462.53,-328.924 3483.02,-323.429"/>
<polygon fill="black" stroke="black" points="3484.22,-326.728 3492.93,-320.701 3482.36,-319.979 3484.22,-326.728"/>
<text text-anchor="middle" x="2680.21" y="-373.8" font-family="Times New Roman,serif" font-size="14.00">EVENT_UNLINK</text>
<text text-anchor="middle" x="2680.21" y="-358.8" font-family="Times New Roman,serif" font-size="14.00">4</text>
</g>
<!-- 128.55.12.110 -->
<g id="node14" class="node"><title>128.55.12.110</title>
<polygon fill="none" stroke="black" points="3909.71,-337 3720.71,-296 3909.71,-255 4098.71,-296 3909.71,-337"/>
<text text-anchor="middle" x="3909.71" y="-288.5" font-family="Times New Roman,serif" font-size="30.00">128.55.12.110</text>
</g>
<!-- inetd&#45;&gt;128.55.12.110 -->
<g id="edge16" class="edge"><title>inetd&#45;&gt;128.55.12.110</title>
<path fill="none" stroke="black" d="M1052.07,-422.653C1307.79,-423.553 2758.14,-426.8 2840.71,-385 2855.7,-377.412 2848.73,-362.593 2863.71,-355 2905.75,-333.703 3664.88,-342.186 3711.71,-337 3744.88,-333.327 3780.75,-326.858 3812.73,-320.179"/>
<polygon fill="black" stroke="black" points="3813.46,-323.601 3822.52,-318.103 3812.01,-316.754 3813.46,-323.601"/>
<text text-anchor="middle" x="2912.71" y="-373.8" font-family="Times New Roman,serif" font-size="14.00">EVENT_WRITE</text>
<text text-anchor="middle" x="2912.71" y="-358.8" font-family="Times New Roman,serif" font-size="14.00">4</text>
</g>
<!-- 128.55.12.55 -->
<g id="node15" class="node"><title>128.55.12.55</title>
<polygon fill="none" stroke="black" points="4290.71,-337 4116.71,-296 4290.71,-255 4464.71,-296 4290.71,-337"/>
<text text-anchor="middle" x="4290.71" y="-288.5" font-family="Times New Roman,serif" font-size="30.00">128.55.12.55</text>
</g>
<!-- inetd&#45;&gt;128.55.12.55 -->
<g id="edge11" class="edge"><title>inetd&#45;&gt;128.55.12.55</title>
<path fill="none" stroke="black" d="M1052.11,-422.253C1330.39,-420.408 3028.53,-408.21 3075.71,-385 3091.04,-377.464 3084.39,-362.534 3099.71,-355 3149.98,-330.288 4052.09,-343.512 4107.71,-337 4138.19,-333.433 4171.05,-327.063 4200.4,-320.441"/>
<polygon fill="black" stroke="black" points="4201.25,-323.837 4210.22,-318.189 4199.69,-317.015 4201.25,-323.837"/>
<text text-anchor="middle" x="3148.71" y="-373.8" font-family="Times New Roman,serif" font-size="14.00">EVENT_WRITE</text>
<text text-anchor="middle" x="3148.71" y="-358.8" font-family="Times New Roman,serif" font-size="14.00">4</text>
</g>
<!-- /home/charles/.* -->
<g id="node18" class="node"><title>/home/charles/.*</title>
<ellipse fill="none" stroke="black" cx="4632.71" cy="-296" rx="149.813" ry="28.9828"/>
<text text-anchor="middle" x="4632.71" y="-288.5" font-family="Times New Roman,serif" font-size="30.00">/home/charles/.*</text>
</g>
<!-- inetd&#45;&gt;/home/charles/.* -->
<g id="edge12" class="edge"><title>inetd&#45;&gt;/home/charles/.*</title>
<path fill="none" stroke="black" d="M1052.17,-422.317C1348.58,-420.851 3259.57,-410.422 3312.71,-385 3328.37,-377.51 3322.06,-362.486 3337.71,-355 3394.66,-327.776 4411.14,-345.254 4473.71,-337 4496.7,-333.968 4521.15,-328.817 4543.81,-323.201"/>
<polygon fill="black" stroke="black" points="4544.91,-326.533 4553.75,-320.683 4543.19,-319.748 4544.91,-326.533"/>
<text text-anchor="middle" x="3390.21" y="-373.8" font-family="Times New Roman,serif" font-size="14.00">EVENT_UNLINK</text>
<text text-anchor="middle" x="3390.21" y="-358.8" font-family="Times New Roman,serif" font-size="14.00">2</text>
</g>
<!-- 128.55.12.67 -->
<g id="node19" class="node"><title>128.55.12.67</title>
<polygon fill="none" stroke="black" points="4974.71,-337 4800.71,-296 4974.71,-255 5148.71,-296 4974.71,-337"/>
<text text-anchor="middle" x="4974.71" y="-288.5" font-family="Times New Roman,serif" font-size="30.00">128.55.12.67</text>
</g>
<!-- inetd&#45;&gt;128.55.12.67 -->
<g id="edge13" class="edge"><title>inetd&#45;&gt;128.55.12.67</title>
<path fill="none" stroke="black" d="M1052.14,-422.31C1365.77,-420.719 3494.88,-409.037 3555.71,-385 3574.15,-377.716 3570.28,-362.286 3588.71,-355 3650.88,-330.432 4725.32,-344.675 4791.71,-337 4822.19,-333.477 4855.06,-327.119 4884.41,-320.494"/>
<polygon fill="black" stroke="black" points="4885.26,-323.89 4894.22,-318.24 4883.69,-317.067 4885.26,-323.89"/>
<text text-anchor="middle" x="3637.71" y="-373.8" font-family="Times New Roman,serif" font-size="14.00">EVENT_WRITE</text>
<text text-anchor="middle" x="3637.71" y="-358.8" font-family="Times New Roman,serif" font-size="14.00">3</text>
</g>
<!-- /home/frank/.* -->
<g id="node22" class="node"><title>/home/frank/.*</title>
<ellipse fill="none" stroke="black" cx="5301.71" cy="-296" rx="135.115" ry="28.9828"/>
<text text-anchor="middle" x="5301.71" y="-288.5" font-family="Times New Roman,serif" font-size="30.00">/home/frank/.*</text>
</g>
<!-- inetd&#45;&gt;/home/frank/.* -->
<g id="edge17" class="edge"><title>inetd&#45;&gt;/home/frank/.*</title>
<path fill="none" stroke="black" d="M1051.81,-422.457C1377.13,-422.034 3679.58,-417.881 3820.71,-385 3850.92,-377.963 3853.51,-362.048 3883.71,-355 4021.58,-322.825 5017.58,-357.111 5157.71,-337 5178.35,-334.038 5200.22,-328.995 5220.51,-323.469"/>
<polygon fill="black" stroke="black" points="5221.65,-326.786 5230.34,-320.724 5219.76,-320.044 5221.65,-326.786"/>
<text text-anchor="middle" x="3936.21" y="-373.8" font-family="Times New Roman,serif" font-size="14.00">EVENT_UNLINK</text>
<text text-anchor="middle" x="3936.21" y="-358.8" font-family="Times New Roman,serif" font-size="14.00">2</text>
</g>
<!-- /tmp/tmp.* -->
<g id="node23" class="node"><title>/tmp/tmp.*</title>
<ellipse fill="none" stroke="black" cx="5559.71" cy="-296" rx="104.804" ry="28.9828"/>
<text text-anchor="middle" x="5559.71" y="-288.5" font-family="Times New Roman,serif" font-size="30.00">/tmp/tmp.*</text>
</g>
<!-- inetd&#45;&gt;/tmp/tmp.* -->
<g id="edge14" class="edge"><title>inetd&#45;&gt;/tmp/tmp.*</title>
<path fill="none" stroke="black" d="M1051.71,-422.401C1387.95,-421.48 3849.73,-413.779 4175.71,-385 4256.94,-377.829 4275.51,-362.361 4356.71,-355 4477.24,-344.076 5326.59,-358.307 5445.71,-337 5461.79,-334.125 5478.63,-329.3 5494.28,-323.977"/>
<polygon fill="black" stroke="black" points="5495.58,-327.229 5503.85,-320.611 5493.26,-320.625 5495.58,-327.229"/>
<text text-anchor="middle" x="4401.71" y="-373.8" font-family="Times New Roman,serif" font-size="14.00">EVENT_OPEN</text>
<text text-anchor="middle" x="4401.71" y="-358.8" font-family="Times New Roman,serif" font-size="14.00">3</text>
</g>
<!-- /var/mail/bob&#45;&gt;inetd -->
<g id="edge19" class="edge"><title>/var/mail/bob&#45;&gt;inetd</title>
<path fill="none" stroke="black" d="M5736.82,-320.139C5716.62,-326.248 5694.43,-332.409 5673.71,-337 5528.59,-369.161 5490.93,-373.664 5342.71,-385 4894.84,-419.256 1508.45,-422.235 1062.2,-422.479"/>
<polygon fill="black" stroke="black" points="1061.91,-418.979 1051.91,-422.485 1061.91,-425.979 1061.91,-418.979"/>
<text text-anchor="middle" x="5630.21" y="-373.8" font-family="Times New Roman,serif" font-size="14.00">EVENT_READ</text>
<text text-anchor="middle" x="5630.21" y="-358.8" font-family="Times New Roman,serif" font-size="14.00">80</text>
</g>
<!-- 128.55.12.166&#45;&gt;inetd -->
<g id="edge20" class="edge"><title>128.55.12.166&#45;&gt;inetd</title>
<path fill="none" stroke="black" d="M3134.01,-318.072C3099.8,-325.408 3060.12,-332.837 3023.71,-337 2988.65,-341.009 2419.39,-337.547 2388.71,-355 2375,-362.805 2383.43,-377.2 2369.71,-385 2311.84,-417.902 1298.01,-421.938 1062.36,-422.431"/>
<polygon fill="black" stroke="black" points="1062.05,-418.932 1052.06,-422.452 1062.06,-425.932 1062.05,-418.932"/>
<text text-anchor="middle" x="2434.21" y="-373.8" font-family="Times New Roman,serif" font-size="14.00">EVENT_READ</text>
<text text-anchor="middle" x="2434.21" y="-358.8" font-family="Times New Roman,serif" font-size="14.00">106</text>
</g>
<!-- /usr/local/etc/.*&#45;&gt;inetd -->
<g id="edge21" class="edge"><title>/usr/local/etc/.*&#45;&gt;inetd</title>
<path fill="none" stroke="black" d="M205.407,-321.752C231.889,-331.952 262.808,-343.949 290.714,-355 323.71,-368.067 330.092,-377.206 364.714,-385 479.153,-410.763 835.653,-419.412 965.656,-421.754"/>
<polygon fill="black" stroke="black" points="965.65,-425.254 975.71,-421.93 965.773,-418.255 965.65,-425.254"/>
<text text-anchor="middle" x="410.214" y="-373.8" font-family="Times New Roman,serif" font-size="14.00">EVENT_READ</text>
<text text-anchor="middle" x="410.214" y="-358.8" font-family="Times New Roman,serif" font-size="14.00">149</text>
</g>
<!-- /etc/pam.d/imap&#45;&gt;inetd -->
<g id="edge22" class="edge"><title>/etc/pam.d/imap&#45;&gt;inetd</title>
<path fill="none" stroke="black" d="M505.046,-322.654C525.755,-332.245 549.045,-343.591 569.714,-355 591.41,-366.976 593.279,-376.943 616.714,-385 679.99,-406.754 874.057,-417.037 965.323,-420.768"/>
<polygon fill="black" stroke="black" points="965.272,-424.269 975.404,-421.171 965.551,-417.275 965.272,-424.269"/>
<text text-anchor="middle" x="662.214" y="-373.8" font-family="Times New Roman,serif" font-size="14.00">EVENT_READ</text>
<text text-anchor="middle" x="662.214" y="-358.8" font-family="Times New Roman,serif" font-size="14.00">147</text>
</g>
<!-- 128.55.12.10&#45;&gt;inetd -->
<g id="edge23" class="edge"><title>128.55.12.10&#45;&gt;inetd</title>
<path fill="none" stroke="black" d="M815.731,-330.187C835.291,-351.849 859.8,-377.461 872.714,-385 901.159,-401.606 937.085,-411.017 965.554,-416.258"/>
<polygon fill="black" stroke="black" points="965.228,-419.754 975.678,-418.006 966.419,-412.856 965.228,-419.754"/>
<text text-anchor="middle" x="938.214" y="-373.8" font-family="Times New Roman,serif" font-size="14.00">EVENT_RECVFROM</text>
<text text-anchor="middle" x="938.214" y="-358.8" font-family="Times New Roman,serif" font-size="14.00">285</text>
</g>
<!-- /etc/pam.d/other&#45;&gt;inetd -->
<g id="edge24" class="edge"><title>/etc/pam.d/other&#45;&gt;inetd</title>
<path fill="none" stroke="black" d="M1126.06,-325.372C1124.2,-344.267 1118.92,-368.554 1104.71,-385 1093.61,-397.85 1077.42,-406.375 1061.76,-411.996"/>
<polygon fill="black" stroke="black" points="1060.55,-408.708 1052.13,-415.133 1062.72,-415.364 1060.55,-408.708"/>
<text text-anchor="middle" x="1165.21" y="-373.8" font-family="Times New Roman,serif" font-size="14.00">EVENT_READ</text>
<text text-anchor="middle" x="1165.21" y="-358.8" font-family="Times New Roman,serif" font-size="14.00">147</text>
</g>
<!-- /etc/hosts.allow&#45;&gt;inetd -->
<g id="edge25" class="edge"><title>/etc/hosts.allow&#45;&gt;inetd</title>
<path fill="none" stroke="black" d="M1393.49,-323.699C1380.42,-332.87 1366.4,-343.693 1354.71,-355 1342.64,-366.684 1346.32,-376.695 1331.71,-385 1286.83,-410.523 1139.64,-418.751 1062.26,-421.344"/>
<polygon fill="black" stroke="black" points="1061.7,-417.86 1051.82,-421.674 1061.92,-424.856 1061.7,-417.86"/>
<text text-anchor="middle" x="1400.21" y="-373.8" font-family="Times New Roman,serif" font-size="14.00">EVENT_READ</text>
<text text-anchor="middle" x="1400.21" y="-358.8" font-family="Times New Roman,serif" font-size="14.00">148</text>
</g>
<!-- sendmail -->
<g id="node16" class="node"><title>sendmail</title>
<polygon fill="none" stroke="black" points="1611.21,-189 1486.21,-189 1486.21,-148 1611.21,-148 1611.21,-189"/>
<text text-anchor="middle" x="1548.71" y="-161" font-family="Times New Roman,serif" font-size="30.00">sendmail</text>
</g>
<!-- /etc/hosts.allow&#45;&gt;sendmail -->
<g id="edge26" class="edge"><title>/etc/hosts.allow&#45;&gt;sendmail</title>
<path fill="none" stroke="black" d="M1489.75,-269.088C1503.34,-260.461 1516.85,-249.736 1526.71,-237 1535.15,-226.115 1540.41,-211.876 1543.66,-199.282"/>
<polygon fill="black" stroke="black" points="1547.15,-199.727 1545.95,-189.201 1540.32,-198.18 1547.15,-199.727"/>
<text text-anchor="middle" x="1587.21" y="-225.8" font-family="Times New Roman,serif" font-size="14.00">EVENT_READ</text>
<text text-anchor="middle" x="1587.21" y="-210.8" font-family="Times New Roman,serif" font-size="14.00">2</text>
</g>
<!-- /tmp/.31.*&#45;&gt;inetd -->
<g id="edge27" class="edge"><title>/tmp/.31.*&#45;&gt;inetd</title>
<path fill="none" stroke="black" d="M1638.25,-319.904C1619.17,-329.169 1598.48,-341.012 1581.71,-355 1568.82,-365.765 1573.52,-377.053 1558.71,-385 1515.54,-408.181 1186.81,-418.375 1061.78,-421.442"/>
<polygon fill="black" stroke="black" points="1061.64,-417.944 1051.73,-421.684 1061.81,-424.942 1061.64,-417.944"/>
<text text-anchor="middle" x="1627.21" y="-373.8" font-family="Times New Roman,serif" font-size="14.00">EVENT_READ</text>
<text text-anchor="middle" x="1627.21" y="-358.8" font-family="Times New Roman,serif" font-size="14.00">10</text>
</g>
<!-- 128.55.12.167&#45;&gt;inetd -->
<g id="edge28" class="edge"><title>128.55.12.167&#45;&gt;inetd</title>
<path fill="none" stroke="black" d="M1902.48,-315.946C1873.18,-324.675 1842.09,-337.198 1816.71,-355 1802.96,-364.65 1808.6,-377.206 1793.71,-385 1729.08,-418.847 1221.58,-422.287 1061.75,-422.525"/>
<polygon fill="black" stroke="black" points="1061.73,-419.025 1051.73,-422.536 1061.74,-426.025 1061.73,-419.025"/>
<text text-anchor="middle" x="1862.21" y="-373.8" font-family="Times New Roman,serif" font-size="14.00">EVENT_READ</text>
<text text-anchor="middle" x="1862.21" y="-358.8" font-family="Times New Roman,serif" font-size="14.00">25</text>
</g>
<!-- /home/bob/.mailboxlist&#45;&gt;inetd -->
<g id="edge29" class="edge"><title>/home/bob/.mailboxlist&#45;&gt;inetd</title>
<path fill="none" stroke="black" d="M2296.91,-320.029C2264.86,-325.999 2230,-332.116 2197.71,-337 2163.65,-342.154 2073.67,-337.984 2043.71,-355 2029.11,-363.297 2035.64,-377.287 2020.71,-385 1977.74,-407.205 1257.33,-419.033 1062.15,-421.84"/>
<polygon fill="black" stroke="black" points="1061.87,-418.343 1051.92,-421.986 1061.97,-425.343 1061.87,-418.343"/>
<text text-anchor="middle" x="2089.21" y="-373.8" font-family="Times New Roman,serif" font-size="14.00">EVENT_READ</text>
<text text-anchor="middle" x="2089.21" y="-358.8" font-family="Times New Roman,serif" font-size="14.00">1</text>
</g>
<!-- 128.55.12.118&#45;&gt;inetd -->
<g id="edge30" class="edge"><title>128.55.12.118&#45;&gt;inetd</title>
<path fill="none" stroke="black" d="M2736.98,-317.838C2702.98,-325.052 2663.73,-332.459 2627.71,-337 2589.19,-341.858 2313.08,-336.928 2278.71,-355 2263.84,-362.82 2270.67,-377.339 2255.71,-385 2201.73,-412.655 1283.8,-420.663 1061.77,-422.199"/>
<polygon fill="black" stroke="black" points="1061.71,-418.699 1051.73,-422.267 1061.76,-425.699 1061.71,-418.699"/>
<text text-anchor="middle" x="2324.21" y="-373.8" font-family="Times New Roman,serif" font-size="14.00">EVENT_READ</text>
<text text-anchor="middle" x="2324.21" y="-358.8" font-family="Times New Roman,serif" font-size="14.00">5</text>
</g>
<!-- /home/henry/.*&#45;&gt;inetd -->
<g id="edge31" class="edge"><title>/home/henry/.*&#45;&gt;inetd</title>
<path fill="none" stroke="black" d="M3492.92,-320.637C3469.77,-327.154 3443.89,-333.414 3419.71,-337 3346.71,-347.829 2821.45,-321.449 2755.71,-355 2740.75,-362.637 2747.7,-377.402 2732.71,-385 2656.28,-423.757 1333.28,-423.155 1062.06,-422.621"/>
<polygon fill="black" stroke="black" points="1061.77,-419.121 1051.76,-422.6 1061.75,-426.121 1061.77,-419.121"/>
<text text-anchor="middle" x="2798.21" y="-373.8" font-family="Times New Roman,serif" font-size="14.00">EVENT_LINK</text>
<text text-anchor="middle" x="2798.21" y="-358.8" font-family="Times New Roman,serif" font-size="14.00">10</text>
</g>
<!-- 128.55.12.110&#45;&gt;inetd -->
<g id="edge32" class="edge"><title>128.55.12.110&#45;&gt;inetd</title>
<path fill="none" stroke="black" d="M3822.02,-318.141C3787.81,-325.485 3748.13,-332.902 3711.71,-337 3671.57,-341.517 3020.72,-336.676 2984.71,-355 2969.74,-362.62 2976.71,-377.421 2961.71,-385 2918.01,-407.089 1358.64,-419.906 1062.13,-422.146"/>
<polygon fill="black" stroke="black" points="1062.09,-418.646 1052.12,-422.221 1062.15,-425.646 1062.09,-418.646"/>
<text text-anchor="middle" x="3030.21" y="-373.8" font-family="Times New Roman,serif" font-size="14.00">EVENT_READ</text>
<text text-anchor="middle" x="3030.21" y="-358.8" font-family="Times New Roman,serif" font-size="14.00">4</text>
</g>
<!-- 128.55.12.55&#45;&gt;inetd -->
<g id="edge33" class="edge"><title>128.55.12.55&#45;&gt;inetd</title>
<path fill="none" stroke="black" d="M4210.21,-318.145C4178.5,-325.538 4141.62,-332.988 4107.71,-337 4058.82,-342.784 3265.87,-333.224 3221.71,-355 3206.4,-362.553 3213.04,-377.471 3197.71,-385 3148.15,-409.347 1379.94,-420.438 1062.32,-422.235"/>
<polygon fill="black" stroke="black" points="1062.04,-418.737 1052.06,-422.293 1062.08,-425.737 1062.04,-418.737"/>
<text text-anchor="middle" x="3267.21" y="-373.8" font-family="Times New Roman,serif" font-size="14.00">EVENT_READ</text>
<text text-anchor="middle" x="3267.21" y="-358.8" font-family="Times New Roman,serif" font-size="14.00">4</text>
</g>
<!-- sendmail&#45;&gt;/etc/hosts.allow -->
<g id="edge34" class="edge"><title>sendmail&#45;&gt;/etc/hosts.allow</title>
<path fill="none" stroke="black" d="M1486.16,-175.162C1465.8,-180.326 1445.23,-189.801 1432.71,-207 1422.44,-221.126 1421.93,-240.177 1424.52,-256.94"/>
<polygon fill="black" stroke="black" points="1421.14,-257.867 1426.48,-267.018 1428.01,-256.535 1421.14,-257.867"/>
<text text-anchor="middle" x="1477.71" y="-225.8" font-family="Times New Roman,serif" font-size="14.00">EVENT_OPEN</text>
<text text-anchor="middle" x="1477.71" y="-210.8" font-family="Times New Roman,serif" font-size="14.00">2</text>
</g>
<!-- 127.0.0.1 -->
<g id="node17" class="node"><title>127.0.0.1</title>
<polygon fill="none" stroke="black" points="1662.71,-82 1533.71,-41 1662.71,-7.10543e-015 1791.71,-41 1662.71,-82"/>
<text text-anchor="middle" x="1662.71" y="-33.5" font-family="Times New Roman,serif" font-size="30.00">127.0.0.1</text>
</g>
<!-- sendmail&#45;&gt;127.0.0.1 -->
<g id="edge35" class="edge"><title>sendmail&#45;&gt;127.0.0.1</title>
<path fill="none" stroke="black" d="M1611.31,-151.324C1622.34,-146.059 1632.8,-139.122 1640.71,-130 1650.01,-119.277 1655.49,-105.198 1658.69,-91.4537"/>
<polygon fill="black" stroke="black" points="1662.14,-92.0456 1660.63,-81.5582 1655.27,-90.6954 1662.14,-92.0456"/>
<text text-anchor="middle" x="1704.71" y="-118.8" font-family="Times New Roman,serif" font-size="14.00">EVENT_WRITE</text>
<text text-anchor="middle" x="1704.71" y="-103.8" font-family="Times New Roman,serif" font-size="14.00">2</text>
</g>
<!-- 127.0.0.1&#45;&gt;sendmail -->
<g id="edge36" class="edge"><title>127.0.0.1&#45;&gt;sendmail</title>
<path fill="none" stroke="black" d="M1594.95,-60.5275C1575.71,-69.2607 1556.95,-81.8909 1545.71,-100 1538.81,-111.136 1538.5,-125.408 1540.35,-137.957"/>
<polygon fill="black" stroke="black" points="1536.95,-138.845 1542.31,-147.987 1543.82,-137.501 1536.95,-138.845"/>
<text text-anchor="middle" x="1591.21" y="-118.8" font-family="Times New Roman,serif" font-size="14.00">EVENT_READ</text>
<text text-anchor="middle" x="1591.21" y="-103.8" font-family="Times New Roman,serif" font-size="14.00">2</text>
</g>
<!-- /home/charles/.*&#45;&gt;inetd -->
<g id="edge37" class="edge"><title>/home/charles/.*&#45;&gt;inetd</title>
<path fill="none" stroke="black" d="M4553.74,-320.65C4528.42,-327.21 4500.1,-333.492 4473.71,-337 4418.47,-344.346 3521.63,-332.331 3470.71,-355 3454.05,-362.419 3459.39,-377.602 3442.71,-385 3386.29,-410.041 1400.06,-420.65 1062.3,-422.275"/>
<polygon fill="black" stroke="black" points="1061.87,-418.777 1051.88,-422.325 1061.9,-425.777 1061.87,-418.777"/>
<text text-anchor="middle" x="3513.21" y="-373.8" font-family="Times New Roman,serif" font-size="14.00">EVENT_LINK</text>
<text text-anchor="middle" x="3513.21" y="-358.8" font-family="Times New Roman,serif" font-size="14.00">6</text>
</g>
<!-- 128.55.12.67&#45;&gt;inetd -->
<g id="edge38" class="edge"><title>128.55.12.67&#45;&gt;inetd</title>
<path fill="none" stroke="black" d="M4894.22,-318.205C4862.51,-325.606 4825.63,-333.045 4791.71,-337 4733.1,-343.834 3785.85,-336.827 3729.71,-355 3707.54,-362.176 3708.89,-377.856 3686.71,-385 3556.91,-426.807 1411.87,-423.455 1061.83,-422.627"/>
<polygon fill="black" stroke="black" points="1061.78,-419.127 1051.77,-422.603 1061.76,-426.127 1061.78,-419.127"/>
<text text-anchor="middle" x="3775.21" y="-373.8" font-family="Times New Roman,serif" font-size="14.00">EVENT_READ</text>
<text text-anchor="middle" x="3775.21" y="-358.8" font-family="Times New Roman,serif" font-size="14.00">3</text>
</g>
<!-- master -->
<g id="node20" class="node"><title>master</title>
<polygon fill="none" stroke="black" points="6006.71,-444 5910.71,-444 5910.71,-403 6006.71,-403 6006.71,-444"/>
<text text-anchor="middle" x="5958.71" y="-416" font-family="Times New Roman,serif" font-size="30.00">master</text>
</g>
<!-- master&#45;&gt;/var/mail/bob -->
<g id="edge40" class="edge"><title>master&#45;&gt;/var/mail/bob</title>
<path fill="none" stroke="black" d="M5910.67,-412.998C5891.61,-407.356 5870.52,-398.555 5854.71,-385 5839.11,-371.62 5827.68,-351.851 5819.91,-334.438"/>
<polygon fill="black" stroke="black" points="5823.06,-332.919 5815.96,-325.063 5816.61,-335.637 5823.06,-332.919"/>
<text text-anchor="middle" x="5899.71" y="-373.8" font-family="Times New Roman,serif" font-size="14.00">EVENT_OPEN</text>
<text text-anchor="middle" x="5899.71" y="-358.8" font-family="Times New Roman,serif" font-size="14.00">2</text>
</g>
<!-- master&#45;&gt;127.0.0.1 -->
<g id="edge41" class="edge"><title>master&#45;&gt;127.0.0.1</title>
<path fill="none" stroke="black" d="M5963.54,-402.988C5970.99,-367.668 5980.47,-293.258 5939.71,-255 5784.81,-109.583 2495.3,-54.0171 1793.63,-43.7971"/>
<polygon fill="black" stroke="black" points="1793.54,-40.2955 1783.49,-43.65 1793.44,-47.2948 1793.54,-40.2955"/>
<text text-anchor="middle" x="5957.21" y="-225.8" font-family="Times New Roman,serif" font-size="14.00">EVENT_SENDTO</text>
<text text-anchor="middle" x="5957.21" y="-210.8" font-family="Times New Roman,serif" font-size="14.00">1</text>
</g>
<!-- /var/mail/*.lock.* -->
<g id="node21" class="node"><title>/var/mail/*.lock.*</title>
<ellipse fill="none" stroke="black" cx="6146.71" cy="-296" rx="159.613" ry="28.9828"/>
<text text-anchor="middle" x="6146.71" y="-288.5" font-family="Times New Roman,serif" font-size="30.00">/var/mail/*.lock.*</text>
</g>
<!-- master&#45;&gt;/var/mail/*.lock.* -->
<g id="edge39" class="edge"><title>master&#45;&gt;/var/mail/*.lock.*</title>
<path fill="none" stroke="black" d="M5988.09,-402.891C6017.32,-383.38 6062.7,-353.084 6097.45,-329.888"/>
<polygon fill="black" stroke="black" points="6099.66,-332.617 6106.04,-324.154 6095.78,-326.795 6099.66,-332.617"/>
<text text-anchor="middle" x="6102.71" y="-373.8" font-family="Times New Roman,serif" font-size="14.00">EVENT_OPEN</text>
<text text-anchor="middle" x="6102.71" y="-358.8" font-family="Times New Roman,serif" font-size="14.00">2</text>
</g>
<!-- /home/frank/.*&#45;&gt;inetd -->
<g id="edge42" class="edge"><title>/home/frank/.*&#45;&gt;inetd</title>
<path fill="none" stroke="black" d="M5230.33,-320.685C5207.4,-327.247 5181.72,-333.521 5157.71,-337 4923.02,-371.009 4325.14,-319.219 4090.71,-355 4044,-362.13 4035.44,-377.97 3988.71,-385 3837.97,-407.68 1434.71,-420.423 1062.09,-422.267"/>
<polygon fill="black" stroke="black" points="1061.9,-418.768 1051.91,-422.317 1061.93,-425.767 1061.9,-418.768"/>
<text text-anchor="middle" x="4133.21" y="-373.8" font-family="Times New Roman,serif" font-size="14.00">EVENT_LINK</text>
<text text-anchor="middle" x="4133.21" y="-358.8" font-family="Times New Roman,serif" font-size="14.00">2</text>
</g>
<!-- /tmp/tmp.*&#45;&gt;inetd -->
<g id="edge43" class="edge"><title>/tmp/tmp.*&#45;&gt;inetd</title>
<path fill="none" stroke="black" d="M5503.85,-320.588C5485.64,-327.19 5465.12,-333.51 5445.71,-337 5392.39,-346.59 4519.32,-331.082 4470.71,-355 4455.39,-362.538 4462.06,-377.519 4446.71,-385 4367.07,-423.814 1472.55,-422.876 1061.96,-422.547"/>
<polygon fill="black" stroke="black" points="1061.91,-419.047 1051.9,-422.538 1061.9,-426.047 1061.91,-419.047"/>
<text text-anchor="middle" x="4516.21" y="-373.8" font-family="Times New Roman,serif" font-size="14.00">EVENT_READ</text>
<text text-anchor="middle" x="4516.21" y="-358.8" font-family="Times New Roman,serif" font-size="14.00">1</text>
</g>
</g>
</svg>
