<?xml version="1.0" encoding="UTF-8" standalone="no"?>
<!DOCTYPE svg PUBLIC "-//W3C//DTD SVG 1.1//EN"
 "http://www.w3.org/Graphics/SVG/1.1/DTD/svg11.dtd">
<!-- Generated by graphviz version 2.38.0 (20140413.2041)
 -->
<!-- Title: %3 Pages: 1 -->
<svg width="3392pt" height="683pt"
 viewBox="0.00 0.00 3392.37 682.98" xmlns="http://www.w3.org/2000/svg" xmlns:xlink="http://www.w3.org/1999/xlink">
<g id="graph0" class="graph" transform="scale(1 1) rotate(0) translate(4 678.983)">
<title>%3</title>
<polygon fill="white" stroke="none" points="-4,4 -4,-678.983 3388.37,-678.983 3388.37,4 -4,4"/>
<!-- bash -->
<g id="node1" class="node"><title>bash</title>
<polygon fill="none" stroke="black" points="1661.37,-674.983 1589.37,-674.983 1589.37,-633.983 1661.37,-633.983 1661.37,-674.983"/>
<text text-anchor="middle" x="1625.37" y="-646.983" font-family="Times New Roman,serif" font-size="30.00">bash</text>
</g>
<!-- /lib/libc.so.7 -->
<g id="node2" class="node"><title>/lib/libc.so.7</title>
<ellipse fill="none" stroke="black" cx="1625.37" cy="-538.991" rx="116.845" ry="28.9828"/>
<text text-anchor="middle" x="1625.37" y="-531.491" font-family="Times New Roman,serif" font-size="30.00">/lib/libc.so.7</text>
</g>
<!-- bash&#45;&gt;/lib/libc.so.7 -->
<g id="edge1" class="edge"><title>bash&#45;&gt;/lib/libc.so.7</title>
<path fill="none" stroke="black" d="M1625.37,-633.973C1625.37,-618.679 1625.37,-596.925 1625.37,-578.198"/>
<polygon fill="black" stroke="black" points="1628.87,-578.165 1625.37,-568.165 1621.87,-578.165 1628.87,-578.165"/>
<text text-anchor="middle" x="1670.37" y="-604.783" font-family="Times New Roman,serif" font-size="14.00">EVENT_OPEN</text>
<text text-anchor="middle" x="1670.37" y="-589.783" font-family="Times New Roman,serif" font-size="14.00">1149</text>
</g>
<!-- sshd -->
<g id="node5" class="node"><title>sshd</title>
<polygon fill="none" stroke="black" points="1717.87,-444 1646.87,-444 1646.87,-403 1717.87,-403 1717.87,-444"/>
<text text-anchor="middle" x="1682.37" y="-416" font-family="Times New Roman,serif" font-size="30.00">sshd</text>
</g>
<!-- /lib/libc.so.7&#45;&gt;sshd -->
<g id="edge2" class="edge"><title>/lib/libc.so.7&#45;&gt;sshd</title>
<path fill="none" stroke="black" d="M1584.21,-511.735C1578.2,-505.997 1572.87,-499.393 1569.37,-492 1563.67,-479.946 1561.57,-472.811 1569.37,-462 1584.67,-440.809 1612.42,-431.402 1636.59,-427.309"/>
<polygon fill="black" stroke="black" points="1637.28,-430.746 1646.68,-425.862 1636.29,-423.817 1637.28,-430.746"/>
<text text-anchor="middle" x="1614.87" y="-480.8" font-family="Times New Roman,serif" font-size="14.00">EVENT_READ</text>
<text text-anchor="middle" x="1614.87" y="-465.8" font-family="Times New Roman,serif" font-size="14.00">1</text>
</g>
<!-- sh -->
<g id="node3" class="node"><title>sh</title>
<polygon fill="none" stroke="black" points="1765.37,-674.983 1711.37,-674.983 1711.37,-633.983 1765.37,-633.983 1765.37,-674.983"/>
<text text-anchor="middle" x="1738.37" y="-646.983" font-family="Times New Roman,serif" font-size="30.00">sh</text>
</g>
<!-- sh&#45;&gt;/lib/libc.so.7 -->
<g id="edge3" class="edge"><title>sh&#45;&gt;/lib/libc.so.7</title>
<path fill="none" stroke="black" d="M1736.06,-633.764C1733.44,-619.128 1727.93,-599.455 1716.37,-585.983 1710.82,-579.512 1704.14,-573.849 1696.95,-568.917"/>
<polygon fill="black" stroke="black" points="1698.63,-565.842 1688.31,-563.46 1694.89,-571.76 1698.63,-565.842"/>
<text text-anchor="middle" x="1777.37" y="-604.783" font-family="Times New Roman,serif" font-size="14.00">EVENT_OPEN</text>
<text text-anchor="middle" x="1777.37" y="-589.783" font-family="Times New Roman,serif" font-size="14.00">59</text>
</g>
<!-- /tmp/eWq10bVcx -->
<g id="node4" class="node"><title>/tmp/eWq10bVcx</title>
<ellipse fill="none" stroke="red" cx="2202.37" cy="-296" rx="162.769" ry="28.9828"/>
<text text-anchor="middle" x="2202.37" y="-288.5" font-family="Times New Roman,serif" font-size="30.00">/tmp/eWq10bVcx</text>
</g>
<!-- /tmp/eWq10bVcx&#45;&gt;sshd -->
<g id="edge4" class="edge"><title>/tmp/eWq10bVcx&#45;&gt;sshd</title>
<path fill="none" stroke="black" d="M2128.23,-321.808C2068.77,-341.032 1982.89,-367.291 1906.37,-385 1845.25,-399.145 1773.58,-410.193 1728.08,-416.529"/>
<polygon fill="black" stroke="black" points="1727.37,-413.094 1717.94,-417.924 1728.33,-420.029 1727.37,-413.094"/>
<text text-anchor="middle" x="2058.87" y="-373.8" font-family="Times New Roman,serif" font-size="14.00">EVENT_READ</text>
<text text-anchor="middle" x="2058.87" y="-358.8" font-family="Times New Roman,serif" font-size="14.00">1</text>
</g>
<!-- sshd&#45;&gt;/lib/libc.so.7 -->
<g id="edge12" class="edge"><title>sshd&#45;&gt;/lib/libc.so.7</title>
<path fill="none" stroke="black" d="M1677.85,-444.104C1674.21,-457.962 1668.38,-476.717 1660.37,-492 1658.64,-495.305 1656.67,-498.62 1654.57,-501.873"/>
<polygon fill="black" stroke="black" points="1651.57,-500.064 1648.79,-510.287 1657.34,-504.03 1651.57,-500.064"/>
<text text-anchor="middle" x="1717.37" y="-480.8" font-family="Times New Roman,serif" font-size="14.00">EVENT_OPEN</text>
<text text-anchor="middle" x="1717.37" y="-465.8" font-family="Times New Roman,serif" font-size="14.00">2</text>
</g>
<!-- sshd&#45;&gt;/tmp/eWq10bVcx -->
<g id="edge14" class="edge"><title>sshd&#45;&gt;/tmp/eWq10bVcx</title>
<path fill="none" stroke="black" d="M1718.08,-422.324C1807.51,-421.414 2038.89,-416.039 2108.37,-385 2134.38,-373.38 2157.79,-351.521 2174.74,-332.497"/>
<polygon fill="black" stroke="black" points="2177.48,-334.683 2181.37,-324.829 2172.18,-330.105 2177.48,-334.683"/>
<text text-anchor="middle" x="2197.37" y="-373.8" font-family="Times New Roman,serif" font-size="14.00">EVENT_OPEN</text>
<text text-anchor="middle" x="2197.37" y="-358.8" font-family="Times New Roman,serif" font-size="14.00">1</text>
</g>
<!-- /var/log/. -->
<g id="node6" class="node"><title>/var/log/.</title>
<ellipse fill="none" stroke="black" cx="2960.37" cy="-41" rx="87.8629" ry="28.9828"/>
<text text-anchor="middle" x="2960.37" y="-33.5" font-family="Times New Roman,serif" font-size="30.00">/var/log/.</text>
</g>
<!-- sshd&#45;&gt;/var/log/. -->
<g id="edge5" class="edge"><title>sshd&#45;&gt;/var/log/.</title>
<path fill="none" stroke="black" d="M1717.9,-422.241C1900.79,-420.791 2732.01,-412.71 2843.37,-385 2890.44,-373.289 2914.4,-377.305 2941.37,-337 2968.8,-296.027 2965.76,-150.383 2962.53,-80.267"/>
<polygon fill="black" stroke="black" points="2966.02,-79.9089 2962.04,-70.0903 2959.03,-80.2481 2966.02,-79.9089"/>
<text text-anchor="middle" x="3009.37" y="-225.8" font-family="Times New Roman,serif" font-size="14.00">EVENT_OPEN</text>
<text text-anchor="middle" x="3009.37" y="-210.8" font-family="Times New Roman,serif" font-size="14.00">2</text>
</g>
<!-- /etc/passwd -->
<g id="node7" class="node"><title>/etc/passwd</title>
<ellipse fill="none" stroke="red" cx="1568.37" cy="-296" rx="110.118" ry="28.9828"/>
<text text-anchor="middle" x="1568.37" y="-288.5" font-family="Times New Roman,serif" font-size="30.00">/etc/passwd</text>
</g>
<!-- sshd&#45;&gt;/etc/passwd -->
<g id="edge6" class="edge"><title>sshd&#45;&gt;/etc/passwd</title>
<path fill="none" stroke="black" d="M1679.63,-402.784C1676.8,-388.338 1671.2,-368.906 1660.37,-355 1651.97,-344.212 1640.96,-334.885 1629.49,-327.058"/>
<polygon fill="black" stroke="black" points="1631.38,-324.114 1621.08,-321.623 1627.58,-329.992 1631.38,-324.114"/>
<text text-anchor="middle" x="1720.37" y="-373.8" font-family="Times New Roman,serif" font-size="14.00">EVENT_OPEN</text>
<text text-anchor="middle" x="1720.37" y="-358.8" font-family="Times New Roman,serif" font-size="14.00">3</text>
</g>
<!-- /tmp/. -->
<g id="node8" class="node"><title>/tmp/.</title>
<ellipse fill="none" stroke="red" cx="2444.37" cy="-296" rx="61.5366" ry="28.9828"/>
<text text-anchor="middle" x="2444.37" y="-288.5" font-family="Times New Roman,serif" font-size="30.00">/tmp/.</text>
</g>
<!-- sshd&#45;&gt;/tmp/. -->
<g id="edge7" class="edge"><title>sshd&#45;&gt;/tmp/.</title>
<path fill="none" stroke="black" d="M1718,-421.491C1825.39,-418.235 2144.81,-406.921 2246.37,-385 2305.76,-372.181 2319.37,-362.822 2374.37,-337 2382.38,-333.24 2390.7,-328.898 2398.69,-324.491"/>
<polygon fill="black" stroke="black" points="2400.54,-327.467 2407.54,-319.514 2397.11,-321.366 2400.54,-327.467"/>
<text text-anchor="middle" x="2381.37" y="-373.8" font-family="Times New Roman,serif" font-size="14.00">EVENT_OPEN</text>
<text text-anchor="middle" x="2381.37" y="-358.8" font-family="Times New Roman,serif" font-size="14.00">3</text>
</g>
<!-- 53.158.101.118 -->
<g id="node9" class="node"><title>53.158.101.118</title>
<polygon fill="none" stroke="red" points="2728.37,-337 2524.37,-296 2728.37,-255 2932.37,-296 2728.37,-337"/>
<text text-anchor="middle" x="2728.37" y="-288.5" font-family="Times New Roman,serif" font-size="30.00">53.158.101.118</text>
</g>
<!-- sshd&#45;&gt;53.158.101.118 -->
<g id="edge8" class="edge"><title>sshd&#45;&gt;53.158.101.118</title>
<path fill="none" stroke="black" d="M1718.1,-422.3C1893.55,-421.176 2657.16,-414.595 2697.37,-385 2710,-375.706 2717.51,-360.859 2721.97,-345.987"/>
<polygon fill="black" stroke="black" points="2725.36,-346.826 2724.48,-336.268 2718.59,-345.075 2725.36,-346.826"/>
<text text-anchor="middle" x="2779.37" y="-373.8" font-family="Times New Roman,serif" font-size="14.00">EVENT_CONNECT</text>
<text text-anchor="middle" x="2779.37" y="-358.8" font-family="Times New Roman,serif" font-size="14.00">2</text>
</g>
<!-- /var/log/netlog -->
<g id="node10" class="node"><title>/var/log/netlog</title>
<ellipse fill="none" stroke="red" cx="3122.37" cy="-296" rx="134.201" ry="28.9828"/>
<text text-anchor="middle" x="3122.37" y="-288.5" font-family="Times New Roman,serif" font-size="30.00">/var/log/netlog</text>
</g>
<!-- sshd&#45;&gt;/var/log/netlog -->
<g id="edge9" class="edge"><title>sshd&#45;&gt;/var/log/netlog</title>
<path fill="none" stroke="black" d="M1718.02,-422.533C1913.49,-422.569 2850.94,-420.859 2974.37,-385 3012.87,-373.815 3051.66,-350.194 3079.86,-330.239"/>
<polygon fill="black" stroke="black" points="3082.19,-332.869 3088.26,-324.181 3078.1,-327.191 3082.19,-332.869"/>
<text text-anchor="middle" x="3084.37" y="-373.8" font-family="Times New Roman,serif" font-size="14.00">EVENT_OPEN</text>
<text text-anchor="middle" x="3084.37" y="-358.8" font-family="Times New Roman,serif" font-size="14.00">3</text>
</g>
<!-- /lib/libthr.so.3 -->
<g id="node11" class="node"><title>/lib/libthr.so.3</title>
<ellipse fill="none" stroke="black" cx="3240.37" cy="-41" rx="130.63" ry="28.9828"/>
<text text-anchor="middle" x="3240.37" y="-33.5" font-family="Times New Roman,serif" font-size="30.00">/lib/libthr.so.3</text>
</g>
<!-- sshd&#45;&gt;/lib/libthr.so.3 -->
<g id="edge10" class="edge"><title>sshd&#45;&gt;/lib/libthr.so.3</title>
<path fill="none" stroke="black" d="M1718.11,-422.265C1927.47,-420.798 2990.62,-412.055 3133.37,-385 3194.7,-373.376 3229.56,-388.13 3265.37,-337 3319.98,-259.036 3282.5,-139.495 3257.59,-79.3292"/>
<polygon fill="black" stroke="black" points="3260.69,-77.6864 3253.56,-69.8504 3254.25,-80.4229 3260.69,-77.6864"/>
<text text-anchor="middle" x="3339.37" y="-225.8" font-family="Times New Roman,serif" font-size="14.00">EVENT_OPEN</text>
<text text-anchor="middle" x="3339.37" y="-210.8" font-family="Times New Roman,serif" font-size="14.00">2</text>
</g>
<!-- /tmp/XIM -->
<g id="node12" class="node"><title>/tmp/XIM</title>
<ellipse fill="none" stroke="red" cx="130.372" cy="-296" rx="97.6615" ry="28.9828"/>
<text text-anchor="middle" x="130.372" y="-288.5" font-family="Times New Roman,serif" font-size="30.00">/tmp/XIM</text>
</g>
<!-- sshd&#45;&gt;/tmp/XIM -->
<g id="edge11" class="edge"><title>sshd&#45;&gt;/tmp/XIM</title>
<path fill="none" stroke="black" d="M1646.63,-422.796C1464.77,-424.102 640.975,-427.526 389.372,-385 319.942,-373.265 244.055,-345.603 192.481,-324.401"/>
<polygon fill="black" stroke="black" points="193.718,-321.125 183.14,-320.522 191.034,-327.59 193.718,-321.125"/>
<text text-anchor="middle" x="441.872" y="-373.8" font-family="Times New Roman,serif" font-size="14.00">EVENT_UNLINK</text>
<text text-anchor="middle" x="441.872" y="-358.8" font-family="Times New Roman,serif" font-size="14.00">1</text>
</g>
<!-- /tmp/eraseme -->
<g id="node17" class="node"><title>/tmp/eraseme</title>
<ellipse fill="none" stroke="red" cx="370.372" cy="-296" rx="124.402" ry="28.9828"/>
<text text-anchor="middle" x="370.372" y="-288.5" font-family="Times New Roman,serif" font-size="30.00">/tmp/eraseme</text>
</g>
<!-- sshd&#45;&gt;/tmp/eraseme -->
<g id="edge16" class="edge"><title>sshd&#45;&gt;/tmp/eraseme</title>
<path fill="none" stroke="black" d="M1646.71,-422.232C1482.01,-420.845 799.164,-413.413 708.372,-385 684.721,-377.599 684.728,-363.282 661.372,-355 594.759,-331.379 572.6,-351.234 503.372,-337 485.536,-333.333 466.65,-328.349 448.885,-323.143"/>
<polygon fill="black" stroke="black" points="449.728,-319.742 439.145,-320.236 447.726,-326.45 449.728,-319.742"/>
<text text-anchor="middle" x="757.372" y="-373.8" font-family="Times New Roman,serif" font-size="14.00">EVENT_WRITE</text>
<text text-anchor="middle" x="757.372" y="-358.8" font-family="Times New Roman,serif" font-size="14.00">2</text>
</g>
<!-- /libexec/ld&#45;elf.so.1 -->
<g id="node18" class="node"><title>/libexec/ld&#45;elf.so.1</title>
<ellipse fill="none" stroke="black" cx="679.372" cy="-296" rx="166.754" ry="28.9828"/>
<text text-anchor="middle" x="679.372" y="-288.5" font-family="Times New Roman,serif" font-size="30.00">/libexec/ld&#45;elf.so.1</text>
</g>
<!-- sshd&#45;&gt;/libexec/ld&#45;elf.so.1 -->
<g id="edge18" class="edge"><title>sshd&#45;&gt;/libexec/ld&#45;elf.so.1</title>
<path fill="none" stroke="black" d="M1646.63,-422.19C1510.41,-420.797 1028.28,-413.853 966.372,-385 949.84,-377.296 954.229,-364.01 938.372,-355 905.553,-336.352 892.22,-345.183 855.372,-337 833.388,-332.118 809.878,-326.825 787.43,-321.736"/>
<polygon fill="black" stroke="black" points="788.069,-318.292 777.542,-319.493 786.519,-325.119 788.069,-318.292"/>
<text text-anchor="middle" x="1011.37" y="-373.8" font-family="Times New Roman,serif" font-size="14.00">EVENT_OPEN</text>
<text text-anchor="middle" x="1011.37" y="-358.8" font-family="Times New Roman,serif" font-size="14.00">1</text>
</g>
<!-- /tmp/memhelp.so -->
<g id="node22" class="node"><title>/tmp/memhelp.so</title>
<ellipse fill="none" stroke="red" cx="1022.37" cy="-296" rx="158.284" ry="28.9828"/>
<text text-anchor="middle" x="1022.37" y="-288.5" font-family="Times New Roman,serif" font-size="30.00">/tmp/memhelp.so</text>
</g>
<!-- sshd&#45;&gt;/tmp/memhelp.so -->
<g id="edge13" class="edge"><title>sshd&#45;&gt;/tmp/memhelp.so</title>
<path fill="none" stroke="black" d="M1646.79,-421.531C1578.55,-419.121 1424.83,-411.03 1298.37,-385 1229.25,-370.772 1152.98,-345.701 1098.16,-325.95"/>
<polygon fill="black" stroke="black" points="1099.12,-322.574 1088.53,-322.453 1096.73,-329.154 1099.12,-322.574"/>
<text text-anchor="middle" x="1347.37" y="-373.8" font-family="Times New Roman,serif" font-size="14.00">EVENT_WRITE</text>
<text text-anchor="middle" x="1347.37" y="-358.8" font-family="Times New Roman,serif" font-size="14.00">2</text>
</g>
<!-- /tmp/done.so -->
<g id="node23" class="node"><title>/tmp/done.so</title>
<ellipse fill="none" stroke="red" cx="1319.37" cy="-296" rx="120.417" ry="28.9828"/>
<text text-anchor="middle" x="1319.37" y="-288.5" font-family="Times New Roman,serif" font-size="30.00">/tmp/done.so</text>
</g>
<!-- sshd&#45;&gt;/tmp/done.so -->
<g id="edge15" class="edge"><title>sshd&#45;&gt;/tmp/done.so</title>
<path fill="none" stroke="black" d="M1646.81,-421.175C1600.92,-418.461 1519.25,-410.191 1454.37,-385 1420.25,-371.751 1385.74,-349.058 1360.16,-330.035"/>
<polygon fill="black" stroke="black" points="1362.26,-327.241 1352.17,-324.005 1358.04,-332.826 1362.26,-327.241"/>
<text text-anchor="middle" x="1503.37" y="-373.8" font-family="Times New Roman,serif" font-size="14.00">EVENT_WRITE</text>
<text text-anchor="middle" x="1503.37" y="-358.8" font-family="Times New Roman,serif" font-size="14.00">2</text>
</g>
<!-- /tmp/injectLog.txt -->
<g id="node24" class="node"><title>/tmp/injectLog.txt</title>
<ellipse fill="none" stroke="red" cx="1859.37" cy="-296" rx="162.769" ry="28.9828"/>
<text text-anchor="middle" x="1859.37" y="-288.5" font-family="Times New Roman,serif" font-size="30.00">/tmp/injectLog.txt</text>
</g>
<!-- sshd&#45;&gt;/tmp/injectLog.txt -->
<g id="edge17" class="edge"><title>sshd&#45;&gt;/tmp/injectLog.txt</title>
<path fill="none" stroke="black" d="M1718.18,-410.489C1734.51,-404.169 1753.66,-395.532 1769.37,-385 1791.25,-370.332 1812.48,-349.967 1828.82,-332.522"/>
<polygon fill="black" stroke="black" points="1831.78,-334.475 1835.97,-324.743 1826.62,-329.738 1831.78,-334.475"/>
<text text-anchor="middle" x="1853.37" y="-373.8" font-family="Times New Roman,serif" font-size="14.00">EVENT_WRITE</text>
<text text-anchor="middle" x="1853.37" y="-358.8" font-family="Times New Roman,serif" font-size="14.00">1</text>
</g>
<!-- /etc/passwd&#45;&gt;sshd -->
<g id="edge19" class="edge"><title>/etc/passwd&#45;&gt;sshd</title>
<path fill="none" stroke="black" d="M1559.12,-324.992C1554.78,-343.718 1552.94,-367.958 1565.37,-385 1581.61,-407.263 1611.26,-416.606 1636.65,-420.399"/>
<polygon fill="black" stroke="black" points="1636.5,-423.907 1646.85,-421.671 1637.36,-416.961 1636.5,-423.907"/>
<text text-anchor="middle" x="1610.87" y="-373.8" font-family="Times New Roman,serif" font-size="14.00">EVENT_READ</text>
<text text-anchor="middle" x="1610.87" y="-358.8" font-family="Times New Roman,serif" font-size="14.00">3</text>
</g>
<!-- master -->
<g id="node13" class="node"><title>master</title>
<polygon fill="none" stroke="black" points="1673.37,-189 1577.37,-189 1577.37,-148 1673.37,-148 1673.37,-189"/>
<text text-anchor="middle" x="1625.37" y="-161" font-family="Times New Roman,serif" font-size="30.00">master</text>
</g>
<!-- /etc/passwd&#45;&gt;master -->
<g id="edge20" class="edge"><title>/etc/passwd&#45;&gt;master</title>
<path fill="none" stroke="black" d="M1533.49,-268.283C1514.66,-250.558 1497.96,-226.97 1512.37,-207 1525.16,-189.276 1546.67,-179.796 1567.51,-174.773"/>
<polygon fill="black" stroke="black" points="1568.26,-178.192 1577.32,-172.707 1566.82,-171.343 1568.26,-178.192"/>
<text text-anchor="middle" x="1557.87" y="-225.8" font-family="Times New Roman,serif" font-size="14.00">EVENT_READ</text>
<text text-anchor="middle" x="1557.87" y="-210.8" font-family="Times New Roman,serif" font-size="14.00">1</text>
</g>
<!-- csh -->
<g id="node19" class="node"><title>csh</title>
<polygon fill="none" stroke="black" points="1879.37,-189 1823.37,-189 1823.37,-148 1879.37,-148 1879.37,-189"/>
<text text-anchor="middle" x="1851.37" y="-161" font-family="Times New Roman,serif" font-size="30.00">csh</text>
</g>
<!-- /etc/passwd&#45;&gt;csh -->
<g id="edge21" class="edge"><title>/etc/passwd&#45;&gt;csh</title>
<path fill="none" stroke="black" d="M1629.78,-271.776C1648.09,-265.555 1668.36,-259.356 1687.37,-255 1718.38,-247.898 1804.86,-257.269 1829.37,-237 1840.57,-227.737 1846.12,-212.683 1848.85,-199.139"/>
<polygon fill="black" stroke="black" points="1852.32,-199.624 1850.43,-189.198 1845.41,-198.523 1852.32,-199.624"/>
<text text-anchor="middle" x="1892.87" y="-225.8" font-family="Times New Roman,serif" font-size="14.00">EVENT_READ</text>
<text text-anchor="middle" x="1892.87" y="-210.8" font-family="Times New Roman,serif" font-size="14.00">1</text>
</g>
<!-- 53.158.101.118&#45;&gt;sshd -->
<g id="edge22" class="edge"><title>53.158.101.118&#45;&gt;sshd</title>
<path fill="none" stroke="black" d="M2658.14,-322.887C2598.45,-343.635 2510.01,-371.443 2430.37,-385 2294.22,-408.177 1868.96,-418.711 1728.16,-421.625"/>
<polygon fill="black" stroke="black" points="1728.06,-418.126 1718.13,-421.83 1728.2,-425.125 1728.06,-418.126"/>
<text text-anchor="middle" x="2620.87" y="-373.8" font-family="Times New Roman,serif" font-size="14.00">EVENT_RECVFROM</text>
<text text-anchor="middle" x="2620.87" y="-358.8" font-family="Times New Roman,serif" font-size="14.00">3</text>
</g>
<!-- /tmp/XIM&#45;&gt;sshd -->
<g id="edge23" class="edge"><title>/tmp/XIM&#45;&gt;sshd</title>
<path fill="none" stroke="black" d="M132.206,-325.342C135.156,-345.521 142.633,-371.384 161.372,-385 191.967,-407.231 1385.79,-419.704 1636.48,-422.081"/>
<polygon fill="black" stroke="black" points="1636.66,-425.583 1646.69,-422.177 1636.73,-418.583 1636.66,-425.583"/>
<text text-anchor="middle" x="219.372" y="-373.8" font-family="Times New Roman,serif" font-size="14.00">EVENT_EXECUTE</text>
<text text-anchor="middle" x="219.372" y="-358.8" font-family="Times New Roman,serif" font-size="14.00">1</text>
</g>
<!-- master&#45;&gt;/lib/libc.so.7 -->
<g id="edge27" class="edge"><title>master&#45;&gt;/lib/libc.so.7</title>
<path fill="none" stroke="black" d="M1577.07,-170.229C1315.49,-174.405 78.1939,-197.174 23.3715,-255 -16.9973,-297.581 -1.71227,-351.374 46.3715,-385 164.685,-467.74 1148.5,-517.578 1500.63,-532.904"/>
<polygon fill="black" stroke="black" points="1500.72,-536.412 1510.86,-533.348 1501.02,-529.418 1500.72,-536.412"/>
<text text-anchor="middle" x="91.3715" y="-373.8" font-family="Times New Roman,serif" font-size="14.00">EVENT_OPEN</text>
<text text-anchor="middle" x="91.3715" y="-358.8" font-family="Times New Roman,serif" font-size="14.00">2</text>
</g>
<!-- master&#45;&gt;/var/log/. -->
<g id="edge25" class="edge"><title>master&#45;&gt;/var/log/.</title>
<path fill="none" stroke="black" d="M1673.52,-162.352C1711.7,-158.312 1766.43,-152.619 1814.37,-148 1903.65,-139.397 1926.05,-138.158 2015.37,-130 2327.13,-101.525 2696.65,-66.8452 2866.47,-50.8548"/>
<polygon fill="black" stroke="black" points="2867,-54.3207 2876.63,-49.8985 2866.35,-47.3515 2867,-54.3207"/>
<text text-anchor="middle" x="2372.37" y="-118.8" font-family="Times New Roman,serif" font-size="14.00">EVENT_OPEN</text>
<text text-anchor="middle" x="2372.37" y="-103.8" font-family="Times New Roman,serif" font-size="14.00">1</text>
</g>
<!-- master&#45;&gt;/etc/passwd -->
<g id="edge30" class="edge"><title>master&#45;&gt;/etc/passwd</title>
<path fill="none" stroke="black" d="M1620.25,-189.147C1616.37,-202.859 1610.5,-221.42 1603.37,-237 1600.07,-244.219 1596.08,-251.664 1591.98,-258.713"/>
<polygon fill="black" stroke="black" points="1588.93,-257.005 1586.79,-267.383 1594.93,-260.601 1588.93,-257.005"/>
<text text-anchor="middle" x="1660.37" y="-225.8" font-family="Times New Roman,serif" font-size="14.00">EVENT_OPEN</text>
<text text-anchor="middle" x="1660.37" y="-210.8" font-family="Times New Roman,serif" font-size="14.00">1</text>
</g>
<!-- master&#45;&gt;/lib/libthr.so.3 -->
<g id="edge29" class="edge"><title>master&#45;&gt;/lib/libthr.so.3</title>
<path fill="none" stroke="black" d="M1673.45,-161.558C1711.6,-157.082 1766.32,-151.187 1814.37,-148 2366.38,-111.388 2509.98,-162.08 3057.37,-82 3086.3,-77.768 3117.48,-71.5754 3145.76,-65.3211"/>
<polygon fill="black" stroke="black" points="3146.64,-68.7107 3155.63,-63.1095 3145.11,-61.8799 3146.64,-68.7107"/>
<text text-anchor="middle" x="2950.37" y="-118.8" font-family="Times New Roman,serif" font-size="14.00">EVENT_OPEN</text>
<text text-anchor="middle" x="2950.37" y="-103.8" font-family="Times New Roman,serif" font-size="14.00">2</text>
</g>
<!-- 139.123.0.113 -->
<g id="node14" class="node"><title>139.123.0.113</title>
<polygon fill="none" stroke="red" points="1625.37,-82 1436.37,-41 1625.37,-7.10543e-015 1814.37,-41 1625.37,-82"/>
<text text-anchor="middle" x="1625.37" y="-33.5" font-family="Times New Roman,serif" font-size="30.00">139.123.0.113</text>
</g>
<!-- master&#45;&gt;139.123.0.113 -->
<g id="edge24" class="edge"><title>master&#45;&gt;139.123.0.113</title>
<path fill="none" stroke="black" d="M1625.37,-147.891C1625.37,-132.979 1625.37,-111.769 1625.37,-92.2421"/>
<polygon fill="black" stroke="black" points="1628.87,-92.2268 1625.37,-82.2268 1621.87,-92.2269 1628.87,-92.2268"/>
<text text-anchor="middle" x="1685.37" y="-118.8" font-family="Times New Roman,serif" font-size="14.00">EVENT_CONNECT</text>
<text text-anchor="middle" x="1685.37" y="-103.8" font-family="Times New Roman,serif" font-size="14.00">2</text>
</g>
<!-- 61.167.39.128 -->
<g id="node15" class="node"><title>61.167.39.128</title>
<polygon fill="none" stroke="red" points="1229.37,-82 1040.37,-41 1229.37,-7.10543e-015 1418.37,-41 1229.37,-82"/>
<text text-anchor="middle" x="1229.37" y="-33.5" font-family="Times New Roman,serif" font-size="30.00">61.167.39.128</text>
</g>
<!-- master&#45;&gt;61.167.39.128 -->
<g id="edge26" class="edge"><title>master&#45;&gt;61.167.39.128</title>
<path fill="none" stroke="black" d="M1577.21,-152.237C1511.95,-131.553 1394.38,-94.293 1314.15,-68.8688"/>
<polygon fill="black" stroke="black" points="1315.15,-65.5136 1304.56,-65.8289 1313.04,-72.1865 1315.15,-65.5136"/>
<text text-anchor="middle" x="1551.87" y="-118.8" font-family="Times New Roman,serif" font-size="14.00">EVENT_SENDTO</text>
<text text-anchor="middle" x="1551.87" y="-103.8" font-family="Times New Roman,serif" font-size="14.00">2</text>
</g>
<!-- /var/log/devc -->
<g id="node16" class="node"><title>/var/log/devc</title>
<ellipse fill="none" stroke="red" cx="1953.37" cy="-41" rx="120.831" ry="28.9828"/>
<text text-anchor="middle" x="1953.37" y="-33.5" font-family="Times New Roman,serif" font-size="30.00">/var/log/devc</text>
</g>
<!-- master&#45;&gt;/var/log/devc -->
<g id="edge28" class="edge"><title>master&#45;&gt;/var/log/devc</title>
<path fill="none" stroke="black" d="M1673.49,-162.669C1744.34,-155.251 1870.3,-140.785 1888.37,-130 1908.41,-118.037 1924.19,-97.2808 1935.18,-78.9303"/>
<polygon fill="black" stroke="black" points="1938.27,-80.5834 1940.19,-70.1642 1932.19,-77.111 1938.27,-80.5834"/>
<text text-anchor="middle" x="1966.37" y="-118.8" font-family="Times New Roman,serif" font-size="14.00">EVENT_OPEN</text>
<text text-anchor="middle" x="1966.37" y="-103.8" font-family="Times New Roman,serif" font-size="14.00">2</text>
</g>
<!-- 139.123.0.113&#45;&gt;master -->
<g id="edge31" class="edge"><title>139.123.0.113&#45;&gt;master</title>
<path fill="none" stroke="black" d="M1700.67,-65.9267C1735.85,-81.2356 1766.1,-103.236 1746.37,-130 1731.81,-149.751 1706.97,-159.409 1683.56,-164.02"/>
<polygon fill="black" stroke="black" points="1682.92,-160.578 1673.65,-165.702 1684.1,-167.479 1682.92,-160.578"/>
<text text-anchor="middle" x="1818.87" y="-118.8" font-family="Times New Roman,serif" font-size="14.00">EVENT_RECVFROM</text>
<text text-anchor="middle" x="1818.87" y="-103.8" font-family="Times New Roman,serif" font-size="14.00">1</text>
</g>
<!-- /tmp/eraseme&#45;&gt;sshd -->
<g id="edge32" class="edge"><title>/tmp/eraseme&#45;&gt;sshd</title>
<path fill="none" stroke="black" d="M423.802,-322.272C476.615,-347.043 551.61,-381.578 566.372,-385 671.608,-409.396 1439.64,-419.738 1636.5,-422.005"/>
<polygon fill="black" stroke="black" points="1636.74,-425.508 1646.78,-422.122 1636.82,-418.508 1636.74,-425.508"/>
<text text-anchor="middle" x="611.872" y="-373.8" font-family="Times New Roman,serif" font-size="14.00">EVENT_READ</text>
<text text-anchor="middle" x="611.872" y="-358.8" font-family="Times New Roman,serif" font-size="14.00">1</text>
</g>
<!-- /libexec/ld&#45;elf.so.1&#45;&gt;sshd -->
<g id="edge33" class="edge"><title>/libexec/ld&#45;elf.so.1&#45;&gt;sshd</title>
<path fill="none" stroke="black" d="M748.168,-322.536C768.886,-331.508 791.197,-342.511 810.372,-355 826.981,-365.818 825.048,-377.441 843.372,-385 916.695,-415.246 1471.53,-421.168 1636.35,-422.263"/>
<polygon fill="black" stroke="black" points="1636.61,-425.765 1646.63,-422.329 1636.65,-418.765 1636.61,-425.765"/>
<text text-anchor="middle" x="888.872" y="-373.8" font-family="Times New Roman,serif" font-size="14.00">EVENT_READ</text>
<text text-anchor="middle" x="888.872" y="-358.8" font-family="Times New Roman,serif" font-size="14.00">1</text>
</g>
<!-- csh&#45;&gt;/lib/libc.so.7 -->
<g id="edge34" class="edge"><title>csh&#45;&gt;/lib/libc.so.7</title>
<path fill="none" stroke="black" d="M1879.47,-169.641C2037.45,-170.547 2816.41,-176.513 3054.37,-207 3149.77,-219.221 3205.38,-179.83 3265.37,-255 3288.1,-283.485 3286.28,-307.15 3265.37,-337 3178.45,-461.096 2118.02,-517.257 1750.11,-533.093"/>
<polygon fill="black" stroke="black" points="1749.8,-529.603 1739.96,-533.528 1750.1,-536.597 1749.8,-529.603"/>
<text text-anchor="middle" x="3287.37" y="-373.8" font-family="Times New Roman,serif" font-size="14.00">EVENT_OPEN</text>
<text text-anchor="middle" x="3287.37" y="-358.8" font-family="Times New Roman,serif" font-size="14.00">1</text>
</g>
<!-- csh&#45;&gt;/etc/passwd -->
<g id="edge35" class="edge"><title>csh&#45;&gt;/etc/passwd</title>
<path fill="none" stroke="black" d="M1823.26,-174.147C1798.54,-179.223 1762.37,-189.127 1735.37,-207 1720.66,-216.738 1723.7,-226.698 1709.37,-237 1690.92,-250.268 1668.99,-261.16 1647.99,-269.777"/>
<polygon fill="black" stroke="black" points="1646.42,-266.633 1638.42,-273.577 1649,-273.139 1646.42,-266.633"/>
<text text-anchor="middle" x="1780.37" y="-225.8" font-family="Times New Roman,serif" font-size="14.00">EVENT_OPEN</text>
<text text-anchor="middle" x="1780.37" y="-210.8" font-family="Times New Roman,serif" font-size="14.00">1</text>
</g>
<!-- sudo -->
<g id="node20" class="node"><title>sudo</title>
<polygon fill="none" stroke="red" points="1887.87,-674.983 1814.87,-674.983 1814.87,-633.983 1887.87,-633.983 1887.87,-674.983"/>
<text text-anchor="middle" x="1851.37" y="-646.983" font-family="Times New Roman,serif" font-size="30.00">sudo</text>
</g>
<!-- sudo&#45;&gt;/lib/libc.so.7 -->
<g id="edge36" class="edge"><title>sudo&#45;&gt;/lib/libc.so.7</title>
<path fill="none" stroke="black" d="M1849.14,-633.784C1846.37,-618.56 1840.18,-598.103 1826.37,-585.983 1811.96,-573.327 1774.39,-563.208 1735.57,-555.719"/>
<polygon fill="black" stroke="black" points="1736.17,-552.269 1725.69,-553.871 1734.88,-559.149 1736.17,-552.269"/>
<text text-anchor="middle" x="1890.37" y="-604.783" font-family="Times New Roman,serif" font-size="14.00">EVENT_OPEN</text>
<text text-anchor="middle" x="1890.37" y="-589.783" font-family="Times New Roman,serif" font-size="14.00">1</text>
</g>
<!-- dhclient -->
<g id="node21" class="node"><title>dhclient</title>
<polygon fill="none" stroke="black" points="2020.37,-674.983 1908.37,-674.983 1908.37,-633.983 2020.37,-633.983 2020.37,-674.983"/>
<text text-anchor="middle" x="1964.37" y="-646.983" font-family="Times New Roman,serif" font-size="30.00">dhclient</text>
</g>
<!-- dhclient&#45;&gt;/lib/libc.so.7 -->
<g id="edge37" class="edge"><title>dhclient&#45;&gt;/lib/libc.so.7</title>
<path fill="none" stroke="black" d="M1962.45,-633.794C1959.85,-618.365 1953.74,-597.623 1939.37,-585.983 1910.43,-562.545 1824.5,-551.036 1749.84,-545.393"/>
<polygon fill="black" stroke="black" points="1750.08,-541.901 1739.85,-544.667 1749.57,-548.883 1750.08,-541.901"/>
<text text-anchor="middle" x="2003.37" y="-604.783" font-family="Times New Roman,serif" font-size="14.00">EVENT_OPEN</text>
<text text-anchor="middle" x="2003.37" y="-589.783" font-family="Times New Roman,serif" font-size="14.00">1</text>
</g>
<!-- /tmp/memhelp.so&#45;&gt;sshd -->
<g id="edge38" class="edge"><title>/tmp/memhelp.so&#45;&gt;sshd</title>
<path fill="none" stroke="black" d="M1037.47,-324.925C1050.23,-345.451 1070.54,-371.95 1096.37,-385 1144.05,-409.086 1506.51,-418.87 1636.31,-421.625"/>
<polygon fill="black" stroke="black" points="1636.62,-425.132 1646.69,-421.841 1636.77,-418.133 1636.62,-425.132"/>
<text text-anchor="middle" x="1141.87" y="-373.8" font-family="Times New Roman,serif" font-size="14.00">EVENT_READ</text>
<text text-anchor="middle" x="1141.87" y="-358.8" font-family="Times New Roman,serif" font-size="14.00">1</text>
</g>
</g>
</svg>
